<ttFont>
<head>
    <!-- Most of this table will be recalculated by the compiler -->
    <tableVersion value="1.0"/>
    <fontRevision value="1.302"/>
    <checkSumAdjustment value="0x44997025"/>
    <magicNumber value="0x5f0f3cf5"/>
    <flags value="00000000 00001011"/>
    <unitsPerEm value="1000"/>
    <created value="Mon May 10 23:51:03 2010"/>
    <modified value="Thu Mar  6 18:34:21 2014"/>
    <xMin value="-273"/>
    <yMin value="-237"/>
    <xMax value="1332"/>
    <yMax value="1112"/>
    <macStyle value="00000000 00000010"/>
    <lowestRecPPEM value="9"/>
    <fontDirectionHint value="2"/>
    <indexToLocFormat value="0"/>
    <glyphDataFormat value="0"/>
  </head>
    <TTGlyph name="A" xMin="-27" yMin="0" xMax="588" yMax="744">
      <contour>
        <pt x="554" y="0" on="1"/>
        <pt x="503" y="246" on="1"/>
        <pt x="155" y="246" on="1"/>
        <pt x="8" y="0" on="1"/>
        <pt x="-27" y="0" on="1"/>
        <pt x="421" y="744" on="1"/>
        <pt x="428" y="744" on="1"/>
        <pt x="588" y="0" on="1"/>
      </contour>
      <contour>
        <pt x="413" y="675" on="1"/>
        <pt x="172" y="274" on="1"/>
        <pt x="497" y="274" on="1"/>
      </contour>
    </TTGlyph>
    <TTGlyph name="AE" xMin="-27" yMin="0" xMax="1039" yMax="733">
      <contour>
        <pt x="1034" y="704" on="1"/>
        <pt x="668" y="704" on="1"/>
        <pt x="606" y="386" on="1"/>
        <pt x="937" y="386" on="1"/>
        <pt x="932" y="358" on="1"/>
        <pt x="601" y="358" on="1"/>
        <pt x="537" y="29" on="1"/>
        <pt x="903" y="29" on="1"/>
        <pt x="897" y="0" on="1"/>
        <pt x="498" y="0" on="1"/>
        <pt x="546" y="245" on="1"/>
        <pt x="235" y="245" on="1"/>
        <pt x="11" y="0" on="1"/>
        <pt x="-27" y="0" on="1"/>
        <pt x="640" y="733" on="1"/>
        <pt x="1039" y="733" on="1"/>
      </contour>
      <contour>
        <pt x="630" y="679" on="1"/>
        <pt x="261" y="274" on="1"/>
        <pt x="551" y="274" on="1"/>
      </contour>
    </TTGlyph>
    <TTGlyph name="AEacute" xMin="-27" yMin="0" xMax="1039" yMax="943">
      <component glyphName="AE" x="0" y="0" flags="0x204"/>
      <component glyphName="acute" x="517" y="320" flags="0x4"/>
    </TTGlyph>
    <TTGlyph name="Aacute" xMin="-27" yMin="0" xMax="624" yMax="943">
      <component glyphName="A" x="0" y="0" flags="0x204"/>
      <component glyphName="acute" x="242" y="320" flags="0x4"/>
    </TTGlyph>
    <TTGlyph name="Abreve" xMin="-27" yMin="0" xMax="588" yMax="925">
      <component glyphName="A" x="0" y="0" flags="0x204"/>
      <component glyphName="breve" x="162" y="320" flags="0x4"/>
    </TTGlyph>
    <TTGlyph name="Acircumflex" xMin="-27" yMin="0" xMax="588" yMax="942">
      <component glyphName="A" x="0" y="0" flags="0x204"/>
      <component glyphName="circumflex" x="158" y="320" flags="0x4"/>
    </TTGlyph>
    <TTGlyph name="Adieresis" xMin="-27" yMin="0" xMax="588" yMax="896">
      <component glyphName="A" x="0" y="0" flags="0x204"/>
      <component glyphName="dieresis" x="161" y="320" flags="0x4"/>
    </TTGlyph>
    <TTGlyph name="Agrave" xMin="-27" yMin="0" xMax="588" yMax="942">
      <component glyphName="A" x="0" y="0" flags="0x204"/>
      <component glyphName="grave" x="81" y="320" flags="0x4"/>
    </TTGlyph>
    <TTGlyph name="Amacron" xMin="-27" yMin="0" xMax="589" yMax="872">
      <component glyphName="A" x="0" y="0" flags="0x204"/>
      <component glyphName="macron" x="162" y="320" flags="0x4"/>
    </TTGlyph>
    <TTGlyph name="Aogonek" xMin="-27" yMin="-219" xMax="589" yMax="744">
      <contour>
        <pt x="589" y="-170" on="1"/>
        <pt x="569" y="-192" on="0"/>
        <pt x="522" y="-219" on="0"/>
        <pt x="495" y="-219" on="1"/>
        <pt x="465" y="-219" on="0"/>
        <pt x="432" y="-185" on="0"/>
        <pt x="432" y="-159" on="1"/>
        <pt x="432" y="-136" on="0"/>
        <pt x="452" y="-92" on="0"/>
        <pt x="486" y="-51" on="0"/>
        <pt x="530" y="-13" on="0"/>
        <pt x="553" y="5" on="1"/>
        <pt x="503" y="246" on="1"/>
        <pt x="155" y="246" on="1"/>
        <pt x="8" y="0" on="1"/>
        <pt x="-27" y="0" on="1"/>
        <pt x="421" y="744" on="1"/>
        <pt x="428" y="744" on="1"/>
        <pt x="588" y="0" on="1"/>
        <pt x="574" y="-11" on="0"/>
        <pt x="532" y="-45" on="0"/>
        <pt x="492" y="-85" on="0"/>
        <pt x="463" y="-130" on="0"/>
        <pt x="463" y="-152" on="1"/>
        <pt x="463" y="-170" on="0"/>
        <pt x="482" y="-192" on="0"/>
        <pt x="500" y="-192" on="1"/>
        <pt x="520" y="-192" on="0"/>
        <pt x="555" y="-168" on="0"/>
        <pt x="571" y="-151" on="1"/>
      </contour>
      <contour>
        <pt x="413" y="675" on="1"/>
        <pt x="172" y="274" on="1"/>
        <pt x="497" y="274" on="1"/>
      </contour>
    </TTGlyph>
    <TTGlyph name="Aring" xMin="-27" yMin="0" xMax="588" yMax="912">
      <contour>
        <pt x="536" y="825" on="1"/>
        <pt x="536" y="802" on="0"/>
        <pt x="520" y="762" on="0"/>
        <pt x="492" y="731" on="0"/>
        <pt x="455" y="711" on="0"/>
        <pt x="435" y="709" on="1"/>
        <pt x="588" y="0" on="1"/>
        <pt x="554" y="0" on="1"/>
        <pt x="503" y="246" on="1"/>
        <pt x="155" y="246" on="1"/>
        <pt x="8" y="0" on="1"/>
        <pt x="-27" y="0" on="1"/>
        <pt x="402" y="713" on="1"/>
        <pt x="376" y="721" on="0"/>
        <pt x="343" y="765" on="0"/>
        <pt x="343" y="796" on="1"/>
        <pt x="343" y="820" on="0"/>
        <pt x="360" y="862" on="0"/>
        <pt x="389" y="893" on="0"/>
        <pt x="428" y="912" on="0"/>
        <pt x="450" y="912" on="1"/>
        <pt x="486" y="912" on="0"/>
        <pt x="536" y="863" on="0"/>
      </contour>
      <contour>
        <pt x="413" y="675" on="1"/>
        <pt x="172" y="274" on="1"/>
        <pt x="497" y="274" on="1"/>
      </contour>
      <contour>
        <pt x="508" y="823" on="1"/>
        <pt x="508" y="854" on="0"/>
        <pt x="474" y="888" on="0"/>
        <pt x="449" y="888" on="1"/>
        <pt x="433" y="888" on="0"/>
        <pt x="405" y="873" on="0"/>
        <pt x="384" y="848" on="0"/>
        <pt x="371" y="814" on="0"/>
        <pt x="371" y="796" on="1"/>
        <pt x="371" y="765" on="0"/>
        <pt x="404" y="733" on="0"/>
        <pt x="430" y="733" on="1"/>
        <pt x="461" y="733" on="0"/>
        <pt x="508" y="786" on="0"/>
      </contour>
    </TTGlyph>
    <TTGlyph name="Aringacute" xMin="-27" yMin="0" xMax="668" yMax="1112">
      <component glyphName="acute" x="286" y="489" flags="0x4"/>
      <component glyphName="Aring" x="0" y="0" flags="0x4"/>
    </TTGlyph>
    <TTGlyph name="Atilde" xMin="-27" yMin="0" xMax="607" yMax="905">
      <component glyphName="A" x="0" y="0" flags="0x204"/>
      <component glyphName="tilde" x="162" y="320" flags="0x4"/>
    </TTGlyph>
    <TTGlyph name="B" xMin="56" yMin="-8" xMax="548" yMax="742">
      <contour>
        <pt x="548" y="573" on="1"/>
        <pt x="548" y="532" on="0"/>
        <pt x="517" y="465" on="0"/>
        <pt x="461" y="416" on="0"/>
        <pt x="381" y="382" on="0"/>
        <pt x="333" y="374" on="1"/>
        <pt x="416" y="354" on="0"/>
        <pt x="505" y="264" on="0"/>
        <pt x="505" y="198" on="1"/>
        <pt x="505" y="156" on="0"/>
        <pt x="472" y="82" on="0"/>
        <pt x="405" y="25" on="0"/>
        <pt x="305" y="-8" on="0"/>
        <pt x="238" y="-8" on="1"/>
        <pt x="194" y="-8" on="0"/>
        <pt x="110" y="6" on="0"/>
        <pt x="56" y="20" on="1"/>
        <pt x="195" y="727" on="1"/>
        <pt x="223" y="733" on="0"/>
        <pt x="286" y="742" on="0"/>
        <pt x="324" y="742" on="1"/>
        <pt x="379" y="742" on="0"/>
        <pt x="463" y="714" on="0"/>
        <pt x="519" y="668" on="0"/>
        <pt x="548" y="607" on="0"/>
      </contour>
      <contour>
        <pt x="514" y="570" on="1"/>
        <pt x="514" y="632" on="0"/>
        <pt x="413" y="712" on="0"/>
        <pt x="319" y="712" on="1"/>
        <pt x="284" y="712" on="0"/>
        <pt x="235" y="705" on="0"/>
        <pt x="223" y="702" on="1"/>
        <pt x="163" y="394" on="1"/>
        <pt x="187" y="393" on="0"/>
        <pt x="220" y="390" on="0"/>
        <pt x="239" y="390" on="1"/>
        <pt x="301" y="390" on="0"/>
        <pt x="402" y="413" on="0"/>
        <pt x="474" y="459" on="0"/>
        <pt x="514" y="526" on="0"/>
      </contour>
      <contour>
        <pt x="471" y="195" on="1"/>
        <pt x="471" y="275" on="0"/>
        <pt x="334" y="366" on="0"/>
        <pt x="209" y="366" on="1"/>
        <pt x="201" y="366" on="0"/>
        <pt x="174" y="366" on="0"/>
        <pt x="157" y="364" on="1"/>
        <pt x="94" y="40" on="1"/>
        <pt x="114" y="35" on="0"/>
        <pt x="150" y="27" on="0"/>
        <pt x="184" y="22" on="0"/>
        <pt x="221" y="20" on="0"/>
        <pt x="242" y="20" on="1"/>
        <pt x="299" y="20" on="0"/>
        <pt x="384" y="50" on="0"/>
        <pt x="442" y="99" on="0"/>
        <pt x="471" y="162" on="0"/>
      </contour>
    </TTGlyph>
    <TTGlyph name="C" xMin="93" yMin="-8" xMax="774" yMax="742">
      <contour>
        <pt x="753" y="613" on="1"/>
        <pt x="700" y="658" on="0"/>
        <pt x="580" y="711" on="0"/>
        <pt x="505" y="711" on="1"/>
        <pt x="424" y="711" on="0"/>
        <pt x="285" y="649" on="0"/>
        <pt x="184" y="541" on="0"/>
        <pt x="127" y="396" on="0"/>
        <pt x="127" y="314" on="1"/>
        <pt x="127" y="251" on="0"/>
        <pt x="170" y="144" on="0"/>
        <pt x="247" y="67" on="0"/>
        <pt x="355" y="23" on="0"/>
        <pt x="420" y="23" on="1"/>
        <pt x="490" y="23" on="0"/>
        <pt x="597" y="63" on="0"/>
        <pt x="650" y="98" on="1"/>
        <pt x="667" y="71" on="1"/>
        <pt x="649" y="58" on="0"/>
        <pt x="599" y="30" on="0"/>
        <pt x="536" y="7" on="0"/>
        <pt x="461" y="-8" on="0"/>
        <pt x="418" y="-8" on="1"/>
        <pt x="347" y="-8" on="0"/>
        <pt x="227" y="41" on="0"/>
        <pt x="141" y="127" on="0"/>
        <pt x="93" y="245" on="0"/>
        <pt x="93" y="315" on="1"/>
        <pt x="93" y="401" on="0"/>
        <pt x="154" y="556" on="0"/>
        <pt x="263" y="673" on="0"/>
        <pt x="416" y="742" on="0"/>
        <pt x="509" y="742" on="1"/>
        <pt x="552" y="742" on="0"/>
        <pt x="627" y="725" on="0"/>
        <pt x="693" y="697" on="0"/>
        <pt x="750" y="660" on="0"/>
        <pt x="774" y="640" on="1"/>
      </contour>
    </TTGlyph>
    <TTGlyph name="Cacute" xMin="93" yMin="-8" xMax="774" yMax="943">
      <component glyphName="C" x="0" y="0" flags="0x204"/>
      <component glyphName="acute" x="334" y="320" flags="0x4"/>
    </TTGlyph>
    <TTGlyph name="Ccaron" xMin="93" yMin="-8" xMax="774" yMax="941">
      <component glyphName="C" x="0" y="0" flags="0x204"/>
      <component glyphName="caron" x="268" y="320" flags="0x4"/>
    </TTGlyph>
    <TTGlyph name="Ccedilla" xMin="93" yMin="-237" xMax="774" yMax="742">
      <contour>
        <pt x="462" y="-146" on="1"/>
        <pt x="462" y="-166" on="0"/>
        <pt x="444" y="-199" on="0"/>
        <pt x="413" y="-223" on="0"/>
        <pt x="370" y="-237" on="0"/>
        <pt x="345" y="-237" on="1"/>
        <pt x="322" y="-237" on="0"/>
        <pt x="269" y="-220" on="0"/>
        <pt x="244" y="-203" on="1"/>
        <pt x="262" y="-177" on="1"/>
        <pt x="282" y="-191" on="0"/>
        <pt x="325" y="-208" on="0"/>
        <pt x="345" y="-208" on="1"/>
        <pt x="380" y="-208" on="0"/>
        <pt x="427" y="-178" on="0"/>
        <pt x="427" y="-148" on="1"/>
        <pt x="427" y="-127" on="0"/>
        <pt x="385" y="-90" on="0"/>
        <pt x="331" y="-82" on="1"/>
        <pt x="330" y="-78" on="1"/>
        <pt x="364" y="-4" on="1"/>
        <pt x="304" y="5" on="0"/>
        <pt x="204" y="59" on="0"/>
        <pt x="132" y="143" on="0"/>
        <pt x="93" y="252" on="0"/>
        <pt x="93" y="315" on="1"/>
        <pt x="93" y="401" on="0"/>
        <pt x="154" y="556" on="0"/>
        <pt x="263" y="673" on="0"/>
        <pt x="416" y="742" on="0"/>
        <pt x="509" y="742" on="1"/>
        <pt x="552" y="742" on="0"/>
        <pt x="627" y="725" on="0"/>
        <pt x="693" y="697" on="0"/>
        <pt x="750" y="660" on="0"/>
        <pt x="774" y="640" on="1"/>
        <pt x="753" y="613" on="1"/>
        <pt x="700" y="658" on="0"/>
        <pt x="580" y="711" on="0"/>
        <pt x="505" y="711" on="1"/>
        <pt x="424" y="711" on="0"/>
        <pt x="285" y="649" on="0"/>
        <pt x="184" y="541" on="0"/>
        <pt x="127" y="396" on="0"/>
        <pt x="127" y="314" on="1"/>
        <pt x="127" y="251" on="0"/>
        <pt x="170" y="144" on="0"/>
        <pt x="247" y="67" on="0"/>
        <pt x="355" y="23" on="0"/>
        <pt x="420" y="23" on="1"/>
        <pt x="490" y="23" on="0"/>
        <pt x="597" y="63" on="0"/>
        <pt x="650" y="98" on="1"/>
        <pt x="667" y="71" on="1"/>
        <pt x="649" y="58" on="0"/>
        <pt x="599" y="30" on="0"/>
        <pt x="536" y="7" on="0"/>
        <pt x="461" y="-8" on="0"/>
        <pt x="418" y="-8" on="1"/>
        <pt x="413" y="-8" on="0"/>
        <pt x="402" y="-7" on="0"/>
        <pt x="397" y="-7" on="1"/>
        <pt x="370" y="-64" on="1"/>
        <pt x="412" y="-74" on="0"/>
        <pt x="462" y="-112" on="0"/>
      </contour>
    </TTGlyph>
    <TTGlyph name="Cdotaccent" xMin="93" yMin="-8" xMax="774" yMax="896">
      <component glyphName="C" x="0" y="0" flags="0x204"/>
      <component glyphName="dotaccent" x="264" y="320" flags="0x4"/>
    </TTGlyph>
    <TTGlyph name="D" xMin="53" yMin="-8" xMax="669" yMax="742">
      <contour>
        <pt x="211" y="-8" on="1"/>
        <pt x="167" y="-8" on="0"/>
        <pt x="83" y="0" on="0"/>
        <pt x="53" y="6" on="1"/>
        <pt x="195" y="733" on="1"/>
        <pt x="219" y="738" on="0"/>
        <pt x="280" y="742" on="0"/>
        <pt x="306" y="742" on="1"/>
        <pt x="388" y="742" on="0"/>
        <pt x="530" y="697" on="0"/>
        <pt x="579" y="648" on="1"/>
        <pt x="618" y="609" on="0"/>
        <pt x="669" y="494" on="0"/>
        <pt x="669" y="409" on="1"/>
        <pt x="669" y="317" on="0"/>
        <pt x="602" y="164" on="0"/>
        <pt x="482" y="54" on="0"/>
        <pt x="313" y="-8" on="0"/>
      </contour>
      <contour>
        <pt x="306" y="712" on="1"/>
        <pt x="288" y="712" on="0"/>
        <pt x="243" y="708" on="0"/>
        <pt x="224" y="705" on="1"/>
        <pt x="92" y="33" on="1"/>
        <pt x="106" y="31" on="0"/>
        <pt x="139" y="27" on="0"/>
        <pt x="172" y="24" on="0"/>
        <pt x="202" y="23" on="0"/>
        <pt x="214" y="23" on="1"/>
        <pt x="306" y="23" on="0"/>
        <pt x="461" y="79" on="0"/>
        <pt x="573" y="181" on="0"/>
        <pt x="635" y="323" on="0"/>
        <pt x="635" y="408" on="1"/>
        <pt x="635" y="483" on="0"/>
        <pt x="590" y="589" on="0"/>
        <pt x="552" y="627" on="1"/>
        <pt x="507" y="672" on="0"/>
        <pt x="378" y="712" on="0"/>
      </contour>
    </TTGlyph>
    <TTGlyph name="Dcaron" xMin="53" yMin="-8" xMax="669" yMax="941">
      <component glyphName="D" x="0" y="0" flags="0x204"/>
      <component glyphName="caron" x="151" y="320" flags="0x4"/>
    </TTGlyph>
    <TTGlyph name="Dcroat" xMin="80" yMin="-8" xMax="709" yMax="742">
      <component glyphName="Eth" x="0" y="0" flags="0x204"/>
    </TTGlyph>
    <TTGlyph name="E" xMin="52" yMin="0" xMax="594" yMax="733">
      <contour>
        <pt x="589" y="704" on="1"/>
        <pt x="223" y="704" on="1"/>
        <pt x="161" y="386" on="1"/>
        <pt x="492" y="386" on="1"/>
        <pt x="487" y="358" on="1"/>
        <pt x="156" y="358" on="1"/>
        <pt x="92" y="29" on="1"/>
        <pt x="458" y="29" on="1"/>
        <pt x="452" y="0" on="1"/>
        <pt x="52" y="0" on="1"/>
        <pt x="195" y="733" on="1"/>
        <pt x="594" y="733" on="1"/>
      </contour>
    </TTGlyph>
    <TTGlyph name="Eacute" xMin="52" yMin="0" xMax="594" yMax="943">
      <component glyphName="E" x="0" y="0" flags="0x204"/>
      <component glyphName="acute" x="204" y="320" flags="0x4"/>
    </TTGlyph>
    <TTGlyph name="Ebreve" xMin="52" yMin="0" xMax="594" yMax="925">
      <component glyphName="E" x="0" y="0" flags="0x204"/>
      <component glyphName="breve" x="135" y="320" flags="0x4"/>
    </TTGlyph>
    <TTGlyph name="Ecaron" xMin="52" yMin="0" xMax="594" yMax="941">
      <component glyphName="E" x="0" y="0" flags="0x204"/>
      <component glyphName="caron" x="138" y="320" flags="0x4"/>
    </TTGlyph>
    <TTGlyph name="Ecircumflex" xMin="52" yMin="0" xMax="594" yMax="942">
      <component glyphName="E" x="0" y="0" flags="0x204"/>
      <component glyphName="circumflex" x="131" y="320" flags="0x4"/>
    </TTGlyph>
    <TTGlyph name="Edieresis" xMin="52" yMin="0" xMax="594" yMax="896">
      <component glyphName="E" x="0" y="0" flags="0x204"/>
      <component glyphName="dieresis" x="133" y="320" flags="0x4"/>
    </TTGlyph>
    <TTGlyph name="Edotaccent" xMin="52" yMin="0" xMax="594" yMax="896">
      <component glyphName="E" x="0" y="0" flags="0x204"/>
      <component glyphName="dotaccent" x="134" y="320" flags="0x4"/>
    </TTGlyph>
    <TTGlyph name="Egrave" xMin="52" yMin="0" xMax="594" yMax="942">
      <component glyphName="E" x="0" y="0" flags="0x204"/>
      <component glyphName="grave" x="53" y="320" flags="0x4"/>
    </TTGlyph>
    <TTGlyph name="Emacron" xMin="52" yMin="0" xMax="594" yMax="872">
      <component glyphName="E" x="0" y="0" flags="0x204"/>
      <component glyphName="macron" x="134" y="320" flags="0x4"/>
    </TTGlyph>
    <TTGlyph name="Eogonek" xMin="52" yMin="-219" xMax="594" yMax="733">
      <contour>
        <pt x="424" y="-170" on="1"/>
        <pt x="404" y="-192" on="0"/>
        <pt x="357" y="-219" on="0"/>
        <pt x="330" y="-219" on="1"/>
        <pt x="300" y="-219" on="0"/>
        <pt x="267" y="-185" on="0"/>
        <pt x="267" y="-159" on="1"/>
        <pt x="267" y="-137" on="0"/>
        <pt x="286" y="-94" on="0"/>
        <pt x="318" y="-55" on="0"/>
        <pt x="359" y="-18" on="0"/>
        <pt x="381" y="0" on="1"/>
        <pt x="52" y="0" on="1"/>
        <pt x="195" y="733" on="1"/>
        <pt x="594" y="733" on="1"/>
        <pt x="589" y="704" on="1"/>
        <pt x="223" y="704" on="1"/>
        <pt x="161" y="386" on="1"/>
        <pt x="492" y="386" on="1"/>
        <pt x="487" y="358" on="1"/>
        <pt x="156" y="358" on="1"/>
        <pt x="92" y="29" on="1"/>
        <pt x="458" y="29" on="1"/>
        <pt x="452" y="0" on="1"/>
        <pt x="423" y="0" on="1"/>
        <pt x="409" y="-11" on="0"/>
        <pt x="367" y="-45" on="0"/>
        <pt x="327" y="-85" on="0"/>
        <pt x="298" y="-130" on="0"/>
        <pt x="298" y="-152" on="1"/>
        <pt x="298" y="-170" on="0"/>
        <pt x="317" y="-192" on="0"/>
        <pt x="335" y="-192" on="1"/>
        <pt x="355" y="-192" on="0"/>
        <pt x="390" y="-168" on="0"/>
        <pt x="406" y="-151" on="1"/>
      </contour>
    </TTGlyph>
    <TTGlyph name="Eth" xMin="80" yMin="-8" xMax="709" yMax="742">
      <contour>
        <pt x="709" y="409" on="1"/>
        <pt x="709" y="317" on="0"/>
        <pt x="642" y="164" on="0"/>
        <pt x="522" y="54" on="0"/>
        <pt x="353" y="-8" on="0"/>
        <pt x="251" y="-8" on="1"/>
        <pt x="207" y="-8" on="0"/>
        <pt x="123" y="0" on="0"/>
        <pt x="93" y="6" on="1"/>
        <pt x="162" y="359" on="1"/>
        <pt x="80" y="359" on="1"/>
        <pt x="85" y="388" on="1"/>
        <pt x="167" y="388" on="1"/>
        <pt x="235" y="733" on="1"/>
        <pt x="259" y="738" on="0"/>
        <pt x="320" y="742" on="0"/>
        <pt x="346" y="742" on="1"/>
        <pt x="428" y="742" on="0"/>
        <pt x="570" y="697" on="0"/>
        <pt x="619" y="648" on="1"/>
        <pt x="658" y="609" on="0"/>
        <pt x="709" y="494" on="0"/>
      </contour>
      <contour>
        <pt x="675" y="408" on="1"/>
        <pt x="675" y="483" on="0"/>
        <pt x="630" y="589" on="0"/>
        <pt x="592" y="627" on="1"/>
        <pt x="547" y="672" on="0"/>
        <pt x="418" y="712" on="0"/>
        <pt x="346" y="712" on="1"/>
        <pt x="328" y="712" on="0"/>
        <pt x="283" y="708" on="0"/>
        <pt x="264" y="705" on="1"/>
        <pt x="202" y="388" on="1"/>
        <pt x="364" y="388" on="1"/>
        <pt x="359" y="359" on="1"/>
        <pt x="196" y="359" on="1"/>
        <pt x="132" y="33" on="1"/>
        <pt x="146" y="31" on="0"/>
        <pt x="179" y="27" on="0"/>
        <pt x="212" y="24" on="0"/>
        <pt x="242" y="23" on="0"/>
        <pt x="254" y="23" on="1"/>
        <pt x="346" y="23" on="0"/>
        <pt x="501" y="79" on="0"/>
        <pt x="613" y="181" on="0"/>
        <pt x="675" y="323" on="0"/>
      </contour>
    </TTGlyph>
    <TTGlyph name="Euro" xMin="35" yMin="-8" xMax="632" yMax="585">
      <contour>
        <pt x="117" y="237" on="1"/>
        <pt x="117" y="248" on="1"/>
        <pt x="117" y="291" on="0"/>
        <pt x="128" y="337" on="1"/>
        <pt x="60" y="337" on="1"/>
        <pt x="66" y="366" on="1"/>
        <pt x="137" y="366" on="1"/>
        <pt x="153" y="413" on="0"/>
        <pt x="212" y="493" on="0"/>
        <pt x="291" y="552" on="0"/>
        <pt x="389" y="585" on="0"/>
        <pt x="445" y="585" on="1"/>
        <pt x="501" y="585" on="0"/>
        <pt x="597" y="546" on="0"/>
        <pt x="632" y="516" on="1"/>
        <pt x="613" y="493" on="1"/>
        <pt x="581" y="520" on="0"/>
        <pt x="492" y="556" on="0"/>
        <pt x="441" y="556" on="1"/>
        <pt x="393" y="556" on="0"/>
        <pt x="308" y="527" on="0"/>
        <pt x="239" y="476" on="0"/>
        <pt x="187" y="406" on="0"/>
        <pt x="171" y="366" on="1"/>
        <pt x="505" y="366" on="1"/>
        <pt x="500" y="337" on="1"/>
        <pt x="161" y="337" on="1"/>
        <pt x="149" y="293" on="0"/>
        <pt x="149" y="248" on="1"/>
        <pt x="149" y="237" on="1"/>
        <pt x="481" y="237" on="1"/>
        <pt x="475" y="208" on="1"/>
        <pt x="152" y="208" on="1"/>
        <pt x="158" y="167" on="0"/>
        <pt x="196" y="98" on="0"/>
        <pt x="254" y="48" on="0"/>
        <pt x="330" y="21" on="0"/>
        <pt x="375" y="21" on="1"/>
        <pt x="429" y="21" on="0"/>
        <pt x="511" y="52" on="0"/>
        <pt x="551" y="78" on="1"/>
        <pt x="566" y="53" on="1"/>
        <pt x="551" y="43" on="0"/>
        <pt x="511" y="21" on="0"/>
        <pt x="462" y="3" on="0"/>
        <pt x="405" y="-8" on="0"/>
        <pt x="372" y="-8" on="1"/>
        <pt x="321" y="-8" on="0"/>
        <pt x="235" y="24" on="0"/>
        <pt x="169" y="81" on="0"/>
        <pt x="126" y="160" on="0"/>
        <pt x="119" y="208" on="1"/>
        <pt x="35" y="208" on="1"/>
        <pt x="41" y="237" on="1"/>
      </contour>
    </TTGlyph>
    <TTGlyph name="Euro.lin" xMin="47" yMin="-8" xMax="807" yMax="742">
      <contour>
        <pt x="174" y="459" on="1"/>
        <pt x="195" y="523" on="0"/>
        <pt x="273" y="628" on="0"/>
        <pt x="376" y="702" on="0"/>
        <pt x="499" y="742" on="0"/>
        <pt x="567" y="742" on="1"/>
        <pt x="639" y="742" on="0"/>
        <pt x="762" y="691" on="0"/>
        <pt x="807" y="652" on="1"/>
        <pt x="786" y="629" on="1"/>
        <pt x="745" y="664" on="0"/>
        <pt x="630" y="711" on="0"/>
        <pt x="564" y="711" on="1"/>
        <pt x="505" y="711" on="0"/>
        <pt x="395" y="676" on="0"/>
        <pt x="302" y="610" on="0"/>
        <pt x="231" y="517" on="0"/>
        <pt x="210" y="459" on="1"/>
        <pt x="643" y="459" on="1"/>
        <pt x="637" y="429" on="1"/>
        <pt x="200" y="429" on="1"/>
        <pt x="185" y="373" on="0"/>
        <pt x="185" y="312" on="1"/>
        <pt x="185" y="299" on="1"/>
        <pt x="612" y="299" on="1"/>
        <pt x="606" y="269" on="1"/>
        <pt x="188" y="269" on="1"/>
        <pt x="195" y="215" on="0"/>
        <pt x="243" y="125" on="0"/>
        <pt x="318" y="60" on="0"/>
        <pt x="418" y="23" on="0"/>
        <pt x="478" y="23" on="1"/>
        <pt x="548" y="23" on="0"/>
        <pt x="655" y="63" on="0"/>
        <pt x="708" y="98" on="1"/>
        <pt x="724" y="73" on="1"/>
        <pt x="706" y="60" on="0"/>
        <pt x="656" y="32" on="0"/>
        <pt x="594" y="8" on="0"/>
        <pt x="519" y="-8" on="0"/>
        <pt x="476" y="-8" on="1"/>
        <pt x="403" y="-8" on="0"/>
        <pt x="289" y="38" on="0"/>
        <pt x="208" y="115" on="0"/>
        <pt x="161" y="215" on="0"/>
        <pt x="154" y="269" on="1"/>
        <pt x="47" y="269" on="1"/>
        <pt x="53" y="299" on="1"/>
        <pt x="151" y="299" on="1"/>
        <pt x="151" y="312" on="1"/>
        <pt x="151" y="343" on="0"/>
        <pt x="157" y="401" on="0"/>
        <pt x="165" y="429" on="1"/>
        <pt x="78" y="429" on="1"/>
        <pt x="84" y="459" on="1"/>
      </contour>
    </TTGlyph>
    <TTGlyph name="F" xMin="52" yMin="0" xMax="594" yMax="733">
      <contour>
        <pt x="589" y="704" on="1"/>
        <pt x="223" y="704" on="1"/>
        <pt x="159" y="373" on="1"/>
        <pt x="490" y="373" on="1"/>
        <pt x="484" y="345" on="1"/>
        <pt x="153" y="345" on="1"/>
        <pt x="86" y="0" on="1"/>
        <pt x="52" y="0" on="1"/>
        <pt x="195" y="733" on="1"/>
        <pt x="594" y="733" on="1"/>
      </contour>
    </TTGlyph>
    <TTGlyph name="G" xMin="93" yMin="-8" xMax="749" yMax="742">
      <contour>
        <pt x="668" y="61" on="1"/>
        <pt x="652" y="52" on="0"/>
        <pt x="604" y="29" on="0"/>
        <pt x="541" y="7" on="0"/>
        <pt x="463" y="-8" on="0"/>
        <pt x="418" y="-8" on="1"/>
        <pt x="347" y="-8" on="0"/>
        <pt x="227" y="41" on="0"/>
        <pt x="141" y="127" on="0"/>
        <pt x="93" y="245" on="0"/>
        <pt x="93" y="315" on="1"/>
        <pt x="93" y="401" on="0"/>
        <pt x="158" y="556" on="0"/>
        <pt x="271" y="673" on="0"/>
        <pt x="422" y="742" on="0"/>
        <pt x="509" y="742" on="1"/>
        <pt x="588" y="742" on="0"/>
        <pt x="708" y="696" on="0"/>
        <pt x="749" y="665" on="1"/>
        <pt x="729" y="638" on="1"/>
        <pt x="709" y="653" on="0"/>
        <pt x="663" y="679" on="0"/>
        <pt x="609" y="699" on="0"/>
        <pt x="545" y="711" on="0"/>
        <pt x="506" y="711" on="1"/>
        <pt x="428" y="711" on="0"/>
        <pt x="291" y="649" on="0"/>
        <pt x="187" y="541" on="0"/>
        <pt x="127" y="396" on="0"/>
        <pt x="127" y="314" on="1"/>
        <pt x="127" y="251" on="0"/>
        <pt x="170" y="144" on="0"/>
        <pt x="247" y="67" on="0"/>
        <pt x="355" y="23" on="0"/>
        <pt x="420" y="23" on="1"/>
        <pt x="490" y="23" on="0"/>
        <pt x="606" y="60" on="0"/>
        <pt x="639" y="81" on="1"/>
        <pt x="681" y="305" on="1"/>
        <pt x="455" y="305" on="1"/>
        <pt x="461" y="334" on="1"/>
        <pt x="720" y="334" on="1"/>
      </contour>
    </TTGlyph>
    <TTGlyph name="G.alt" xMin="93" yMin="-8" xMax="787" yMax="742">
      <contour>
        <pt x="787" y="345" on="1"/>
        <pt x="776" y="264" on="0"/>
        <pt x="712" y="133" on="0"/>
        <pt x="616" y="42" on="0"/>
        <pt x="491" y="-8" on="0"/>
        <pt x="418" y="-8" on="1"/>
        <pt x="347" y="-8" on="0"/>
        <pt x="227" y="41" on="0"/>
        <pt x="141" y="127" on="0"/>
        <pt x="93" y="245" on="0"/>
        <pt x="93" y="315" on="1"/>
        <pt x="93" y="401" on="0"/>
        <pt x="158" y="556" on="0"/>
        <pt x="271" y="673" on="0"/>
        <pt x="422" y="742" on="0"/>
        <pt x="509" y="742" on="1"/>
        <pt x="588" y="742" on="0"/>
        <pt x="708" y="696" on="0"/>
        <pt x="749" y="665" on="1"/>
        <pt x="730" y="637" on="1"/>
        <pt x="689" y="667" on="0"/>
        <pt x="583" y="711" on="0"/>
        <pt x="506" y="711" on="1"/>
        <pt x="428" y="711" on="0"/>
        <pt x="291" y="649" on="0"/>
        <pt x="187" y="541" on="0"/>
        <pt x="127" y="396" on="0"/>
        <pt x="127" y="314" on="1"/>
        <pt x="127" y="251" on="0"/>
        <pt x="170" y="144" on="0"/>
        <pt x="247" y="67" on="0"/>
        <pt x="355" y="23" on="0"/>
        <pt x="420" y="23" on="1"/>
        <pt x="479" y="23" on="0"/>
        <pt x="587" y="62" on="0"/>
        <pt x="676" y="137" on="0"/>
        <pt x="738" y="246" on="0"/>
        <pt x="750" y="316" on="1"/>
        <pt x="441" y="316" on="1"/>
        <pt x="447" y="345" on="1"/>
      </contour>
    </TTGlyph>
    <TTGlyph name="Gbreve" xMin="93" yMin="-8" xMax="749" yMax="925">
      <component glyphName="G" x="0" y="0" flags="0x204"/>
      <component glyphName="breve" x="252" y="320" flags="0x4"/>
    </TTGlyph>
    <TTGlyph name="Gbreve.alt" xMin="93" yMin="-8" xMax="787" yMax="925">
      <component glyphName="G.alt" x="0" y="0" flags="0x204"/>
      <component glyphName="breve" x="252" y="320" flags="0x4"/>
    </TTGlyph>
    <TTGlyph name="Gcommaaccent" xMin="93" yMin="-236" xMax="749" yMax="742">
      <component glyphName="G" x="0" y="0" flags="0x204"/>
      <component glyphName="commaaccent" x="242" y="0" flags="0x4"/>
    </TTGlyph>
    <TTGlyph name="Gcommaaccent.alt" xMin="93" yMin="-236" xMax="787" yMax="742">
      <component glyphName="G.alt" x="0" y="0" flags="0x204"/>
      <component glyphName="commaaccent" x="282" y="0" flags="0x4"/>
    </TTGlyph>
    <TTGlyph name="Gdotaccent" xMin="93" yMin="-8" xMax="749" yMax="896">
      <component glyphName="G" x="0" y="0" flags="0x204"/>
      <component glyphName="dotaccent" x="252" y="320" flags="0x4"/>
    </TTGlyph>
    <TTGlyph name="Gdotaccent.alt" xMin="93" yMin="-8" xMax="787" yMax="896">
      <component glyphName="G.alt" x="0" y="0" flags="0x204"/>
      <component glyphName="dotaccent" x="252" y="320" flags="0x4"/>
    </TTGlyph>
    <TTGlyph name="H" xMin="52" yMin="0" xMax="704" yMax="733">
      <contour>
        <pt x="561" y="0" on="1"/>
        <pt x="527" y="0" on="1"/>
        <pt x="597" y="359" on="1"/>
        <pt x="156" y="359" on="1"/>
        <pt x="86" y="0" on="1"/>
        <pt x="52" y="0" on="1"/>
        <pt x="195" y="733" on="1"/>
        <pt x="229" y="733" on="1"/>
        <pt x="162" y="388" on="1"/>
        <pt x="603" y="388" on="1"/>
        <pt x="670" y="733" on="1"/>
        <pt x="704" y="733" on="1"/>
      </contour>
    </TTGlyph>
    <TTGlyph name="Hbar" xMin="62" yMin="0" xMax="762" yMax="733">
      <contour>
        <pt x="686" y="592" on="1"/>
        <pt x="762" y="592" on="1"/>
        <pt x="756" y="564" on="1"/>
        <pt x="681" y="564" on="1"/>
        <pt x="571" y="0" on="1"/>
        <pt x="537" y="0" on="1"/>
        <pt x="607" y="359" on="1"/>
        <pt x="166" y="359" on="1"/>
        <pt x="96" y="0" on="1"/>
        <pt x="62" y="0" on="1"/>
        <pt x="172" y="564" on="1"/>
        <pt x="97" y="564" on="1"/>
        <pt x="103" y="592" on="1"/>
        <pt x="177" y="592" on="1"/>
        <pt x="205" y="733" on="1"/>
        <pt x="239" y="733" on="1"/>
        <pt x="211" y="592" on="1"/>
        <pt x="652" y="592" on="1"/>
        <pt x="680" y="733" on="1"/>
        <pt x="714" y="733" on="1"/>
      </contour>
      <contour>
        <pt x="613" y="388" on="1"/>
        <pt x="647" y="564" on="1"/>
        <pt x="206" y="564" on="1"/>
        <pt x="172" y="388" on="1"/>
      </contour>
    </TTGlyph>
    <TTGlyph name="I" xMin="55" yMin="0" xMax="232" yMax="733">
      <contour>
        <pt x="89" y="0" on="1"/>
        <pt x="55" y="0" on="1"/>
        <pt x="198" y="733" on="1"/>
        <pt x="232" y="733" on="1"/>
      </contour>
    </TTGlyph>
    <TTGlyph name="Iacute" xMin="55" yMin="0" xMax="416" yMax="943">
      <component glyphName="I" x="0" y="0" flags="0x204"/>
      <component glyphName="acute" x="34" y="320" flags="0x4"/>
    </TTGlyph>
    <TTGlyph name="Ibreve" xMin="55" yMin="0" xMax="374" yMax="925">
      <component glyphName="I" x="0" y="0" flags="0x204"/>
      <component glyphName="breve" x="-44" y="320" flags="0x4"/>
    </TTGlyph>
    <TTGlyph name="Icircumflex" xMin="55" yMin="0" xMax="355" yMax="942">
      <component glyphName="I" x="0" y="0" flags="0x204"/>
      <component glyphName="circumflex" x="-48" y="320" flags="0x4"/>
    </TTGlyph>
    <TTGlyph name="Idieresis" xMin="55" yMin="0" xMax="358" yMax="896">
      <component glyphName="I" x="0" y="0" flags="0x204"/>
      <component glyphName="dieresis" x="-46" y="320" flags="0x4"/>
    </TTGlyph>
    <TTGlyph name="Idotaccent" xMin="55" yMin="0" xMax="274" yMax="896">
      <component glyphName="I" x="0" y="0" flags="0x204"/>
      <component glyphName="dotaccent" x="-45" y="320" flags="0x4"/>
    </TTGlyph>
    <TTGlyph name="Igrave" xMin="43" yMin="0" xMax="255" yMax="942">
      <component glyphName="I" x="0" y="0" flags="0x204"/>
      <component glyphName="grave" x="-126" y="320" flags="0x4"/>
    </TTGlyph>
    <TTGlyph name="Imacron" xMin="55" yMin="0" xMax="382" yMax="872">
      <component glyphName="I" x="0" y="0" flags="0x204"/>
      <component glyphName="macron" x="-45" y="320" flags="0x4"/>
    </TTGlyph>
    <TTGlyph name="Iogonek" xMin="-48" yMin="-219" xMax="232" yMax="733">
      <contour>
        <pt x="89" y="0" on="1"/>
        <pt x="46" y="-39" on="0"/>
        <pt x="-17" y="-113" on="0"/>
        <pt x="-17" y="-150" on="1"/>
        <pt x="-17" y="-170" on="0"/>
        <pt x="3" y="-192" on="0"/>
        <pt x="20" y="-192" on="1"/>
        <pt x="40" y="-192" on="0"/>
        <pt x="75" y="-168" on="0"/>
        <pt x="91" y="-151" on="1"/>
        <pt x="109" y="-170" on="1"/>
        <pt x="89" y="-192" on="0"/>
        <pt x="42" y="-219" on="0"/>
        <pt x="13" y="-219" on="1"/>
        <pt x="-16" y="-219" on="0"/>
        <pt x="-48" y="-185" on="0"/>
        <pt x="-48" y="-159" on="1"/>
        <pt x="-48" y="-137" on="0"/>
        <pt x="-31" y="-94" on="0"/>
        <pt x="-2" y="-52" on="0"/>
        <pt x="35" y="-12" on="0"/>
        <pt x="56" y="7" on="1"/>
        <pt x="198" y="733" on="1"/>
        <pt x="232" y="733" on="1"/>
      </contour>
    </TTGlyph>
    <TTGlyph name="J" xMin="-8" yMin="-8" xMax="439" yMax="733">
      <contour>
        <pt x="330" y="177" on="1"/>
        <pt x="311" y="80" on="0"/>
        <pt x="219" y="-8" on="0"/>
        <pt x="149" y="-8" on="1"/>
        <pt x="101" y="-8" on="0"/>
        <pt x="26" y="23" on="0"/>
        <pt x="-8" y="50" on="1"/>
        <pt x="10" y="74" on="1"/>
        <pt x="47" y="45" on="0"/>
        <pt x="111" y="21" on="0"/>
        <pt x="150" y="21" on="1"/>
        <pt x="202" y="21" on="0"/>
        <pt x="280" y="93" on="0"/>
        <pt x="297" y="182" on="1"/>
        <pt x="405" y="733" on="1"/>
        <pt x="439" y="733" on="1"/>
      </contour>
    </TTGlyph>
    <TTGlyph name="K" xMin="52" yMin="0" xMax="638" yMax="733">
      <contour>
        <pt x="186" y="374" on="1"/>
        <pt x="507" y="0" on="1"/>
        <pt x="465" y="0" on="1"/>
        <pt x="157" y="363" on="1"/>
        <pt x="86" y="0" on="1"/>
        <pt x="52" y="0" on="1"/>
        <pt x="195" y="733" on="1"/>
        <pt x="229" y="733" on="1"/>
        <pt x="161" y="389" on="1"/>
        <pt x="592" y="733" on="1"/>
        <pt x="638" y="733" on="1"/>
      </contour>
    </TTGlyph>
    <TTGlyph name="Kcommaaccent" xMin="52" yMin="-236" xMax="638" yMax="733">
      <component glyphName="K" x="0" y="0" flags="0x204"/>
      <component glyphName="commaaccent" x="136" y="0" flags="0x4"/>
    </TTGlyph>
    <TTGlyph name="L" xMin="52" yMin="0" xMax="458" yMax="733">
      <contour>
        <pt x="452" y="0" on="1"/>
        <pt x="52" y="0" on="1"/>
        <pt x="195" y="733" on="1"/>
        <pt x="229" y="733" on="1"/>
        <pt x="92" y="29" on="1"/>
        <pt x="458" y="29" on="1"/>
      </contour>
    </TTGlyph>
    <TTGlyph name="Lacute" xMin="52" yMin="0" xMax="458" yMax="943">
      <component glyphName="L" x="0" y="0" flags="0x204"/>
      <component glyphName="acute" x="38" y="320" flags="0x4"/>
    </TTGlyph>
    <TTGlyph name="Lcaron" xMin="52" yMin="0" xMax="458" yMax="734">
      <component glyphName="L" x="0" y="0" flags="0x204"/>
      <component glyphName="caron.alt" x="266" y="-2" flags="0x4"/>
    </TTGlyph>
    <TTGlyph name="Lcommaaccent" xMin="52" yMin="-236" xMax="458" yMax="733">
      <component glyphName="L" x="0" y="0" flags="0x204"/>
      <component glyphName="commaaccent" x="125" y="0" flags="0x4"/>
    </TTGlyph>
    <TTGlyph name="Ldot" xMin="52" yMin="0" xMax="458" yMax="733">
      <contour>
        <pt x="452" y="0" on="1"/>
        <pt x="52" y="0" on="1"/>
        <pt x="195" y="733" on="1"/>
        <pt x="229" y="733" on="1"/>
        <pt x="92" y="29" on="1"/>
        <pt x="458" y="29" on="1"/>
      </contour>
      <contour>
        <pt x="436" y="366" on="1"/>
        <pt x="436" y="352" on="0"/>
        <pt x="416" y="332" on="0"/>
        <pt x="402" y="332" on="1"/>
        <pt x="388" y="332" on="0"/>
        <pt x="368" y="352" on="0"/>
        <pt x="368" y="366" on="1"/>
        <pt x="368" y="380" on="0"/>
        <pt x="388" y="401" on="0"/>
        <pt x="402" y="401" on="1"/>
        <pt x="416" y="401" on="0"/>
        <pt x="436" y="380" on="0"/>
      </contour>
    </TTGlyph>
    <TTGlyph name="Lslash" xMin="83" yMin="0" xMax="498" yMax="733">
      <contour>
        <pt x="492" y="0" on="1"/>
        <pt x="92" y="0" on="1"/>
        <pt x="159" y="345" on="1"/>
        <pt x="83" y="313" on="1"/>
        <pt x="89" y="345" on="1"/>
        <pt x="127" y="361" on="1"/>
        <pt x="165" y="377" on="1"/>
        <pt x="235" y="733" on="1"/>
        <pt x="269" y="733" on="1"/>
        <pt x="203" y="392" on="1"/>
        <pt x="334" y="447" on="1"/>
        <pt x="328" y="415" on="1"/>
        <pt x="196" y="360" on="1"/>
        <pt x="164" y="194" on="1"/>
        <pt x="150" y="121" on="0"/>
        <pt x="132" y="29" on="1"/>
        <pt x="498" y="29" on="1"/>
      </contour>
    </TTGlyph>
    <TTGlyph name="M" xMin="42" yMin="0" xMax="839" yMax="740">
      <contour>
        <pt x="716" y="0" on="1"/>
        <pt x="683" y="0" on="1"/>
        <pt x="796" y="653" on="1"/>
        <pt x="410" y="133" on="1"/>
        <pt x="401" y="133" on="1"/>
        <pt x="218" y="654" on="1"/>
        <pt x="75" y="0" on="1"/>
        <pt x="42" y="0" on="1"/>
        <pt x="208" y="739" on="1"/>
        <pt x="221" y="740" on="1"/>
        <pt x="414" y="183" on="1"/>
        <pt x="826" y="740" on="1"/>
        <pt x="839" y="739" on="1"/>
      </contour>
    </TTGlyph>
    <TTGlyph name="M.alt" xMin="42" yMin="0" xMax="839" yMax="740">
      <contour>
        <pt x="716" y="0" on="1"/>
        <pt x="683" y="0" on="1"/>
        <pt x="799" y="662" on="1"/>
        <pt x="423" y="204" on="1"/>
        <pt x="414" y="204" on="1"/>
        <pt x="221" y="666" on="1"/>
        <pt x="75" y="0" on="1"/>
        <pt x="42" y="0" on="1"/>
        <pt x="208" y="739" on="1"/>
        <pt x="221" y="740" on="1"/>
        <pt x="426" y="250" on="1"/>
        <pt x="826" y="740" on="1"/>
        <pt x="839" y="739" on="1"/>
      </contour>
    </TTGlyph>
    <TTGlyph name="N" xMin="53" yMin="-7" xMax="735" yMax="740">
      <contour>
        <pt x="592" y="-6" on="1"/>
        <pt x="582" y="-7" on="1"/>
        <pt x="215" y="668" on="1"/>
        <pt x="85" y="0" on="1"/>
        <pt x="53" y="0" on="1"/>
        <pt x="197" y="739" on="1"/>
        <pt x="209" y="740" on="1"/>
        <pt x="574" y="68" on="1"/>
        <pt x="703" y="733" on="1"/>
        <pt x="735" y="733" on="1"/>
      </contour>
    </TTGlyph>
    <TTGlyph name="Nacute" xMin="53" yMin="-7" xMax="735" yMax="933">
      <component glyphName="N" x="0" y="0" flags="0x204"/>
      <component glyphName="acute" x="273" y="310" flags="0x4"/>
    </TTGlyph>
    <TTGlyph name="Ncaron" xMin="53" yMin="-7" xMax="735" yMax="931">
      <component glyphName="N" x="0" y="0" flags="0x204"/>
      <component glyphName="caron" x="207" y="310" flags="0x4"/>
    </TTGlyph>
    <TTGlyph name="Ncommaaccent" xMin="53" yMin="-236" xMax="735" yMax="740">
      <component glyphName="N" x="0" y="0" flags="0x204"/>
      <component glyphName="commaaccent" x="195" y="0" flags="0x4"/>
    </TTGlyph>
    <TTGlyph name="Ntilde" xMin="53" yMin="-7" xMax="735" yMax="895">
      <component glyphName="N" x="0" y="0" flags="0x204"/>
      <component glyphName="tilde" x="203" y="310" flags="0x4"/>
    </TTGlyph>
    <TTGlyph name="O" xMin="93" yMin="-8" xMax="811" yMax="742">
      <contour>
        <pt x="811" y="408" on="1"/>
        <pt x="811" y="325" on="0"/>
        <pt x="753" y="174" on="0"/>
        <pt x="648" y="60" on="0"/>
        <pt x="501" y="-8" on="0"/>
        <pt x="413" y="-8" on="1"/>
        <pt x="343" y="-8" on="0"/>
        <pt x="226" y="43" on="0"/>
        <pt x="141" y="132" on="0"/>
        <pt x="93" y="254" on="0"/>
        <pt x="93" y="326" on="1"/>
        <pt x="93" y="409" on="0"/>
        <pt x="151" y="560" on="0"/>
        <pt x="256" y="674" on="0"/>
        <pt x="403" y="742" on="0"/>
        <pt x="491" y="742" on="1"/>
        <pt x="561" y="742" on="0"/>
        <pt x="678" y="691" on="0"/>
        <pt x="763" y="601" on="0"/>
        <pt x="811" y="479" on="0"/>
      </contour>
      <contour>
        <pt x="777" y="409" on="1"/>
        <pt x="777" y="475" on="0"/>
        <pt x="734" y="585" on="0"/>
        <pt x="657" y="666" on="0"/>
        <pt x="551" y="711" on="0"/>
        <pt x="488" y="711" on="1"/>
        <pt x="409" y="711" on="0"/>
        <pt x="276" y="649" on="0"/>
        <pt x="180" y="544" on="0"/>
        <pt x="127" y="403" on="0"/>
        <pt x="127" y="325" on="1"/>
        <pt x="127" y="258" on="0"/>
        <pt x="170" y="147" on="0"/>
        <pt x="247" y="67" on="0"/>
        <pt x="353" y="23" on="0"/>
        <pt x="416" y="23" on="1"/>
        <pt x="495" y="23" on="0"/>
        <pt x="628" y="85" on="0"/>
        <pt x="724" y="190" on="0"/>
        <pt x="777" y="331" on="0"/>
      </contour>
    </TTGlyph>
    <TTGlyph name="OE" xMin="93" yMin="-8" xMax="1068" yMax="742">
      <contour>
        <pt x="1063" y="704" on="1"/>
        <pt x="697" y="704" on="1"/>
        <pt x="635" y="386" on="1"/>
        <pt x="966" y="386" on="1"/>
        <pt x="961" y="358" on="1"/>
        <pt x="630" y="358" on="1"/>
        <pt x="566" y="29" on="1"/>
        <pt x="932" y="29" on="1"/>
        <pt x="926" y="0" on="1"/>
        <pt x="536" y="0" on="1"/>
        <pt x="515" y="-3" on="0"/>
        <pt x="468" y="-8" on="0"/>
        <pt x="445" y="-8" on="1"/>
        <pt x="358" y="-8" on="0"/>
        <pt x="226" y="41" on="0"/>
        <pt x="138" y="130" on="0"/>
        <pt x="93" y="252" on="0"/>
        <pt x="93" y="325" on="1"/>
        <pt x="93" y="416" on="0"/>
        <pt x="160" y="570" on="0"/>
        <pt x="280" y="680" on="0"/>
        <pt x="449" y="742" on="0"/>
        <pt x="551" y="742" on="1"/>
        <pt x="578" y="742" on="0"/>
        <pt x="633" y="736" on="0"/>
        <pt x="658" y="733" on="1"/>
        <pt x="1068" y="733" on="1"/>
      </contour>
      <contour>
        <pt x="445" y="22" on="1"/>
        <pt x="465" y="22" on="0"/>
        <pt x="513" y="25" on="0"/>
        <pt x="531" y="28" on="1"/>
        <pt x="663" y="702" on="1"/>
        <pt x="636" y="706" on="0"/>
        <pt x="570" y="711" on="0"/>
        <pt x="548" y="711" on="1"/>
        <pt x="456" y="711" on="0"/>
        <pt x="301" y="655" on="0"/>
        <pt x="189" y="553" on="0"/>
        <pt x="127" y="411" on="0"/>
        <pt x="127" y="326" on="1"/>
        <pt x="127" y="244" on="0"/>
        <pt x="188" y="113" on="0"/>
        <pt x="250" y="73" on="1"/>
        <pt x="288" y="49" on="0"/>
        <pt x="385" y="22" on="0"/>
      </contour>
    </TTGlyph>
    <TTGlyph name="Oacute" xMin="93" yMin="-8" xMax="811" yMax="943">
      <component glyphName="O" x="0" y="0" flags="0x204"/>
      <component glyphName="acute" x="333" y="320" flags="0x4"/>
    </TTGlyph>
    <TTGlyph name="Obreve" xMin="93" yMin="-8" xMax="811" yMax="925">
      <component glyphName="O" x="0" y="0" flags="0x204"/>
      <component glyphName="breve" x="263" y="320" flags="0x4"/>
    </TTGlyph>
    <TTGlyph name="Ocircumflex" xMin="93" yMin="-8" xMax="811" yMax="942">
      <component glyphName="O" x="0" y="0" flags="0x204"/>
      <component glyphName="circumflex" x="259" y="320" flags="0x4"/>
    </TTGlyph>
    <TTGlyph name="Odieresis" xMin="93" yMin="-8" xMax="811" yMax="896">
      <component glyphName="O" x="0" y="0" flags="0x204"/>
      <component glyphName="dieresis" x="262" y="320" flags="0x4"/>
    </TTGlyph>
    <TTGlyph name="Ograve" xMin="93" yMin="-8" xMax="811" yMax="942">
      <component glyphName="O" x="0" y="0" flags="0x204"/>
      <component glyphName="grave" x="182" y="320" flags="0x4"/>
    </TTGlyph>
    <TTGlyph name="Ohungarumlaut" xMin="93" yMin="-8" xMax="811" yMax="985">
      <component glyphName="O" x="0" y="0" flags="0x204"/>
      <component glyphName="hungarumlaut" x="287" y="320" flags="0x4"/>
    </TTGlyph>
    <TTGlyph name="Omacron" xMin="93" yMin="-8" xMax="811" yMax="872">
      <component glyphName="O" x="0" y="0" flags="0x204"/>
      <component glyphName="macron" x="263" y="320" flags="0x4"/>
    </TTGlyph>
    <TTGlyph name="Oslash" xMin="72" yMin="-8" xMax="832" yMax="742">
      <contour>
        <pt x="811" y="408" on="1"/>
        <pt x="811" y="325" on="0"/>
        <pt x="753" y="174" on="0"/>
        <pt x="648" y="60" on="0"/>
        <pt x="501" y="-8" on="0"/>
        <pt x="413" y="-8" on="1"/>
        <pt x="344" y="-8" on="0"/>
        <pt x="227" y="41" on="0"/>
        <pt x="185" y="86" on="1"/>
        <pt x="147" y="48" on="0"/>
        <pt x="96" y="-1" on="0"/>
        <pt x="91" y="-6" on="1"/>
        <pt x="72" y="14" on="1"/>
        <pt x="166" y="107" on="1"/>
        <pt x="131" y="150" on="0"/>
        <pt x="93" y="261" on="0"/>
        <pt x="93" y="326" on="1"/>
        <pt x="93" y="409" on="0"/>
        <pt x="151" y="560" on="0"/>
        <pt x="256" y="674" on="0"/>
        <pt x="403" y="742" on="0"/>
        <pt x="491" y="742" on="1"/>
        <pt x="560" y="742" on="0"/>
        <pt x="676" y="693" on="0"/>
        <pt x="718" y="649" on="1"/>
        <pt x="813" y="741" on="1"/>
        <pt x="832" y="721" on="1"/>
        <pt x="820" y="710" on="0"/>
        <pt x="806" y="696" on="1"/>
        <pt x="793" y="684" on="0"/>
        <pt x="759" y="649" on="0"/>
        <pt x="737" y="628" on="1"/>
        <pt x="772" y="584" on="0"/>
        <pt x="811" y="472" on="0"/>
      </contour>
      <contour>
        <pt x="777" y="409" on="1"/>
        <pt x="777" y="467" on="0"/>
        <pt x="743" y="566" on="0"/>
        <pt x="713" y="605" on="1"/>
        <pt x="661" y="554" on="0"/>
        <pt x="530" y="424" on="0"/>
        <pt x="392" y="289" on="0"/>
        <pt x="260" y="159" on="0"/>
        <pt x="208" y="108" on="1"/>
        <pt x="246" y="67" on="0"/>
        <pt x="353" y="23" on="0"/>
        <pt x="416" y="23" on="1"/>
        <pt x="495" y="23" on="0"/>
        <pt x="628" y="85" on="0"/>
        <pt x="724" y="190" on="0"/>
        <pt x="777" y="331" on="0"/>
      </contour>
      <contour>
        <pt x="127" y="325" on="1"/>
        <pt x="127" y="267" on="0"/>
        <pt x="160" y="167" on="0"/>
        <pt x="189" y="129" on="1"/>
        <pt x="694" y="626" on="1"/>
        <pt x="656" y="666" on="0"/>
        <pt x="551" y="711" on="0"/>
        <pt x="488" y="711" on="1"/>
        <pt x="409" y="711" on="0"/>
        <pt x="276" y="649" on="0"/>
        <pt x="180" y="544" on="0"/>
        <pt x="127" y="403" on="0"/>
      </contour>
    </TTGlyph>
    <TTGlyph name="Oslashacute" xMin="72" yMin="-8" xMax="832" yMax="943">
      <component glyphName="Oslash" x="0" y="0" flags="0x204"/>
      <component glyphName="acute" x="333" y="320" flags="0x4"/>
    </TTGlyph>
    <TTGlyph name="Otilde" xMin="93" yMin="-8" xMax="811" yMax="905">
      <component glyphName="O" x="0" y="0" flags="0x204"/>
      <component glyphName="tilde" x="263" y="320" flags="0x4"/>
    </TTGlyph>
    <TTGlyph name="P" xMin="52" yMin="0" xMax="573" yMax="738">
      <contour>
        <pt x="573" y="517" on="1"/>
        <pt x="573" y="464" on="0"/>
        <pt x="535" y="370" on="0"/>
        <pt x="458" y="298" on="0"/>
        <pt x="343" y="256" on="0"/>
        <pt x="265" y="256" on="1"/>
        <pt x="238" y="256" on="0"/>
        <pt x="167" y="263" on="0"/>
        <pt x="138" y="268" on="1"/>
        <pt x="86" y="0" on="1"/>
        <pt x="52" y="0" on="1"/>
        <pt x="194" y="728" on="1"/>
        <pt x="227" y="733" on="0"/>
        <pt x="291" y="738" on="0"/>
        <pt x="315" y="738" on="1"/>
        <pt x="378" y="738" on="0"/>
        <pt x="474" y="705" on="0"/>
        <pt x="539" y="646" on="0"/>
        <pt x="573" y="565" on="0"/>
      </contour>
      <contour>
        <pt x="539" y="517" on="1"/>
        <pt x="539" y="554" on="0"/>
        <pt x="513" y="624" on="0"/>
        <pt x="458" y="677" on="0"/>
        <pt x="371" y="709" on="0"/>
        <pt x="310" y="709" on="1"/>
        <pt x="295" y="709" on="0"/>
        <pt x="248" y="705" on="0"/>
        <pt x="223" y="701" on="1"/>
        <pt x="144" y="296" on="1"/>
        <pt x="173" y="291" on="0"/>
        <pt x="240" y="284" on="0"/>
        <pt x="266" y="284" on="1"/>
        <pt x="335" y="284" on="0"/>
        <pt x="438" y="321" on="0"/>
        <pt x="506" y="385" on="0"/>
        <pt x="539" y="469" on="0"/>
      </contour>
    </TTGlyph>
    <TTGlyph name="Q" xMin="93" yMin="-13" xMax="811" yMax="742">
      <contour>
        <pt x="811" y="408" on="1"/>
        <pt x="811" y="312" on="0"/>
        <pt x="736" y="145" on="0"/>
        <pt x="669" y="86" on="1"/>
        <pt x="741" y="9" on="1"/>
        <pt x="717" y="-13" on="1"/>
        <pt x="645" y="67" on="1"/>
        <pt x="597" y="32" on="0"/>
        <pt x="481" y="-8" on="0"/>
        <pt x="413" y="-8" on="1"/>
        <pt x="343" y="-8" on="0"/>
        <pt x="226" y="43" on="0"/>
        <pt x="141" y="132" on="0"/>
        <pt x="93" y="254" on="0"/>
        <pt x="93" y="326" on="1"/>
        <pt x="93" y="409" on="0"/>
        <pt x="151" y="560" on="0"/>
        <pt x="256" y="674" on="0"/>
        <pt x="403" y="742" on="0"/>
        <pt x="491" y="742" on="1"/>
        <pt x="561" y="742" on="0"/>
        <pt x="678" y="691" on="0"/>
        <pt x="763" y="601" on="0"/>
        <pt x="811" y="479" on="0"/>
      </contour>
      <contour>
        <pt x="777" y="409" on="1"/>
        <pt x="777" y="475" on="0"/>
        <pt x="734" y="585" on="0"/>
        <pt x="657" y="666" on="0"/>
        <pt x="551" y="711" on="0"/>
        <pt x="488" y="711" on="1"/>
        <pt x="409" y="711" on="0"/>
        <pt x="276" y="649" on="0"/>
        <pt x="180" y="544" on="0"/>
        <pt x="127" y="403" on="0"/>
        <pt x="127" y="325" on="1"/>
        <pt x="127" y="258" on="0"/>
        <pt x="170" y="147" on="0"/>
        <pt x="247" y="67" on="0"/>
        <pt x="353" y="23" on="0"/>
        <pt x="416" y="23" on="1"/>
        <pt x="476" y="23" on="0"/>
        <pt x="581" y="59" on="0"/>
        <pt x="624" y="91" on="1"/>
        <pt x="472" y="254" on="1"/>
        <pt x="496" y="276" on="1"/>
        <pt x="647" y="110" on="1"/>
        <pt x="708" y="164" on="0"/>
        <pt x="777" y="319" on="0"/>
      </contour>
    </TTGlyph>
    <TTGlyph name="R" xMin="52" yMin="0" xMax="579" yMax="738">
      <contour>
        <pt x="579" y="543" on="1"/>
        <pt x="579" y="500" on="0"/>
        <pt x="551" y="422" on="0"/>
        <pt x="495" y="360" on="0"/>
        <pt x="412" y="316" on="0"/>
        <pt x="357" y="307" on="1"/>
        <pt x="505" y="0" on="1"/>
        <pt x="467" y="0" on="1"/>
        <pt x="324" y="303" on="1"/>
        <pt x="314" y="302" on="0"/>
        <pt x="295" y="301" on="0"/>
        <pt x="284" y="301" on="1"/>
        <pt x="246" y="301" on="0"/>
        <pt x="186" y="306" on="0"/>
        <pt x="146" y="311" on="1"/>
        <pt x="86" y="0" on="1"/>
        <pt x="52" y="0" on="1"/>
        <pt x="194" y="726" on="1"/>
        <pt x="236" y="731" on="0"/>
        <pt x="299" y="738" on="0"/>
        <pt x="334" y="738" on="1"/>
        <pt x="395" y="738" on="0"/>
        <pt x="487" y="708" on="0"/>
        <pt x="548" y="655" on="0"/>
        <pt x="579" y="584" on="0"/>
      </contour>
      <contour>
        <pt x="545" y="542" on="1"/>
        <pt x="545" y="576" on="0"/>
        <pt x="520" y="637" on="0"/>
        <pt x="467" y="682" on="0"/>
        <pt x="385" y="708" on="0"/>
        <pt x="329" y="708" on="1"/>
        <pt x="303" y="708" on="0"/>
        <pt x="257" y="705" on="0"/>
        <pt x="223" y="700" on="1"/>
        <pt x="152" y="340" on="1"/>
        <pt x="187" y="336" on="0"/>
        <pt x="253" y="330" on="0"/>
        <pt x="284" y="330" on="1"/>
        <pt x="344" y="330" on="0"/>
        <pt x="441" y="361" on="0"/>
        <pt x="508" y="417" on="0"/>
        <pt x="545" y="495" on="0"/>
      </contour>
    </TTGlyph>
    <TTGlyph name="Racute" xMin="52" yMin="0" xMax="579" yMax="943">
      <component glyphName="R" x="0" y="0" flags="0x204"/>
      <component glyphName="acute" x="196" y="320" flags="0x4"/>
    </TTGlyph>
    <TTGlyph name="Rcaron" xMin="52" yMin="0" xMax="579" yMax="941">
      <component glyphName="R" x="0" y="0" flags="0x204"/>
      <component glyphName="caron" x="130" y="320" flags="0x4"/>
    </TTGlyph>
    <TTGlyph name="Rcommaaccent" xMin="52" yMin="-236" xMax="579" yMax="738">
      <component glyphName="R" x="0" y="0" flags="0x204"/>
      <component glyphName="commaaccent" x="115" y="0" flags="0x4"/>
    </TTGlyph>
    <TTGlyph name="S" xMin="0" yMin="-8" xMax="523" yMax="742">
      <contour>
        <pt x="503" y="648" on="1"/>
        <pt x="474" y="674" on="0"/>
        <pt x="386" y="713" on="0"/>
        <pt x="342" y="713" on="1"/>
        <pt x="300" y="713" on="0"/>
        <pt x="233" y="689" on="0"/>
        <pt x="186" y="646" on="0"/>
        <pt x="161" y="588" on="0"/>
        <pt x="161" y="554" on="1"/>
        <pt x="161" y="528" on="0"/>
        <pt x="178" y="487" on="0"/>
        <pt x="213" y="448" on="0"/>
        <pt x="264" y="410" on="0"/>
        <pt x="298" y="387" on="1"/>
        <pt x="325" y="369" on="0"/>
        <pt x="379" y="329" on="0"/>
        <pt x="421" y="282" on="0"/>
        <pt x="447" y="224" on="0"/>
        <pt x="447" y="188" on="1"/>
        <pt x="447" y="142" on="0"/>
        <pt x="412" y="70" on="0"/>
        <pt x="352" y="19" on="0"/>
        <pt x="270" y="-8" on="0"/>
        <pt x="224" y="-8" on="1"/>
        <pt x="162" y="-8" on="0"/>
        <pt x="49" y="40" on="0"/>
        <pt x="0" y="82" on="1"/>
        <pt x="20" y="107" on="1"/>
        <pt x="65" y="69" on="0"/>
        <pt x="165" y="21" on="0"/>
        <pt x="224" y="21" on="1"/>
        <pt x="263" y="21" on="0"/>
        <pt x="333" y="44" on="0"/>
        <pt x="384" y="88" on="0"/>
        <pt x="414" y="149" on="0"/>
        <pt x="414" y="187" on="1"/>
        <pt x="414" y="216" on="0"/>
        <pt x="391" y="265" on="0"/>
        <pt x="352" y="307" on="0"/>
        <pt x="301" y="345" on="0"/>
        <pt x="272" y="365" on="1"/>
        <pt x="245" y="383" on="0"/>
        <pt x="194" y="421" on="0"/>
        <pt x="153" y="466" on="0"/>
        <pt x="128" y="520" on="0"/>
        <pt x="128" y="553" on="1"/>
        <pt x="128" y="595" on="0"/>
        <pt x="160" y="665" on="0"/>
        <pt x="217" y="714" on="0"/>
        <pt x="295" y="742" on="0"/>
        <pt x="342" y="742" on="1"/>
        <pt x="396" y="742" on="0"/>
        <pt x="489" y="702" on="0"/>
        <pt x="523" y="673" on="1"/>
      </contour>
    </TTGlyph>
    <TTGlyph name="Sacute" xMin="0" yMin="-8" xMax="537" yMax="943">
      <component glyphName="S" x="0" y="0" flags="0x204"/>
      <component glyphName="acute" x="155" y="320" flags="0x4"/>
    </TTGlyph>
    <TTGlyph name="Scaron" xMin="0" yMin="-8" xMax="523" yMax="941">
      <component glyphName="S" x="0" y="0" flags="0x204"/>
      <component glyphName="caron" x="89" y="320" flags="0x4"/>
    </TTGlyph>
    <TTGlyph name="Scedilla" xMin="0" yMin="-237" xMax="523" yMax="742">
      <contour>
        <pt x="303" y="-146" on="1"/>
        <pt x="303" y="-166" on="0"/>
        <pt x="285" y="-199" on="0"/>
        <pt x="254" y="-223" on="0"/>
        <pt x="211" y="-237" on="0"/>
        <pt x="186" y="-237" on="1"/>
        <pt x="163" y="-237" on="0"/>
        <pt x="110" y="-220" on="0"/>
        <pt x="85" y="-203" on="1"/>
        <pt x="103" y="-177" on="1"/>
        <pt x="123" y="-191" on="0"/>
        <pt x="166" y="-208" on="0"/>
        <pt x="186" y="-208" on="1"/>
        <pt x="221" y="-208" on="0"/>
        <pt x="268" y="-178" on="0"/>
        <pt x="268" y="-148" on="1"/>
        <pt x="268" y="-127" on="0"/>
        <pt x="226" y="-90" on="0"/>
        <pt x="172" y="-82" on="1"/>
        <pt x="171" y="-78" on="1"/>
        <pt x="204" y="-7" on="1"/>
        <pt x="147" y="-3" on="0"/>
        <pt x="45" y="44" on="0"/>
        <pt x="0" y="82" on="1"/>
        <pt x="20" y="107" on="1"/>
        <pt x="65" y="69" on="0"/>
        <pt x="165" y="21" on="0"/>
        <pt x="224" y="21" on="1"/>
        <pt x="263" y="21" on="0"/>
        <pt x="333" y="44" on="0"/>
        <pt x="384" y="88" on="0"/>
        <pt x="414" y="149" on="0"/>
        <pt x="414" y="187" on="1"/>
        <pt x="414" y="216" on="0"/>
        <pt x="391" y="265" on="0"/>
        <pt x="352" y="307" on="0"/>
        <pt x="301" y="345" on="0"/>
        <pt x="272" y="365" on="1"/>
        <pt x="245" y="383" on="0"/>
        <pt x="194" y="421" on="0"/>
        <pt x="153" y="466" on="0"/>
        <pt x="128" y="520" on="0"/>
        <pt x="128" y="553" on="1"/>
        <pt x="128" y="595" on="0"/>
        <pt x="160" y="665" on="0"/>
        <pt x="217" y="714" on="0"/>
        <pt x="295" y="742" on="0"/>
        <pt x="342" y="742" on="1"/>
        <pt x="396" y="742" on="0"/>
        <pt x="489" y="702" on="0"/>
        <pt x="523" y="673" on="1"/>
        <pt x="503" y="648" on="1"/>
        <pt x="474" y="674" on="0"/>
        <pt x="386" y="713" on="0"/>
        <pt x="342" y="713" on="1"/>
        <pt x="300" y="713" on="0"/>
        <pt x="233" y="689" on="0"/>
        <pt x="186" y="646" on="0"/>
        <pt x="161" y="588" on="0"/>
        <pt x="161" y="554" on="1"/>
        <pt x="161" y="528" on="0"/>
        <pt x="178" y="487" on="0"/>
        <pt x="213" y="448" on="0"/>
        <pt x="264" y="410" on="0"/>
        <pt x="298" y="387" on="1"/>
        <pt x="325" y="369" on="0"/>
        <pt x="379" y="329" on="0"/>
        <pt x="421" y="282" on="0"/>
        <pt x="447" y="224" on="0"/>
        <pt x="447" y="188" on="1"/>
        <pt x="447" y="144" on="0"/>
        <pt x="415" y="73" on="0"/>
        <pt x="358" y="22" on="0"/>
        <pt x="281" y="-6" on="0"/>
        <pt x="237" y="-8" on="1"/>
        <pt x="211" y="-64" on="1"/>
        <pt x="253" y="-74" on="0"/>
        <pt x="303" y="-112" on="0"/>
      </contour>
    </TTGlyph>
    <TTGlyph name="Scommaaccent" xMin="0" yMin="-236" xMax="523" yMax="742">
      <component glyphName="S" x="0" y="0" flags="0x204"/>
      <component glyphName="commaaccent" x="75" y="0" flags="0x4"/>
    </TTGlyph>
    <TTGlyph name="T" xMin="111" yMin="0" xMax="639" yMax="733">
      <contour>
        <pt x="633" y="701" on="1"/>
        <pt x="387" y="701" on="1"/>
        <pt x="251" y="0" on="1"/>
        <pt x="218" y="0" on="1"/>
        <pt x="354" y="701" on="1"/>
        <pt x="111" y="701" on="1"/>
        <pt x="117" y="733" on="1"/>
        <pt x="639" y="733" on="1"/>
      </contour>
    </TTGlyph>
    <TTGlyph name="Tcaron" xMin="111" yMin="0" xMax="639" yMax="941">
      <component glyphName="T" x="0" y="0" flags="0x204"/>
      <component glyphName="caron" x="123" y="320" flags="0x4"/>
    </TTGlyph>
    <TTGlyph name="Tcommaaccent" xMin="111" yMin="-236" xMax="639" yMax="733">
      <component glyphName="T" x="0" y="0" flags="0x204"/>
      <component glyphName="commaaccent" x="109" y="0" flags="0x4"/>
    </TTGlyph>
    <TTGlyph name="Thorn" xMin="53" yMin="0" xMax="549" yMax="733">
      <contour>
        <pt x="196" y="733" on="1"/>
        <pt x="230" y="733" on="1"/>
        <pt x="204" y="603" on="1"/>
        <pt x="214" y="604" on="0"/>
        <pt x="238" y="606" on="0"/>
        <pt x="262" y="607" on="0"/>
        <pt x="284" y="608" on="0"/>
        <pt x="291" y="608" on="1"/>
        <pt x="354" y="608" on="0"/>
        <pt x="450" y="575" on="0"/>
        <pt x="515" y="516" on="0"/>
        <pt x="549" y="435" on="0"/>
        <pt x="549" y="387" on="1"/>
        <pt x="549" y="334" on="0"/>
        <pt x="511" y="240" on="0"/>
        <pt x="434" y="168" on="0"/>
        <pt x="319" y="126" on="0"/>
        <pt x="241" y="126" on="1"/>
        <pt x="214" y="126" on="0"/>
        <pt x="143" y="133" on="0"/>
        <pt x="114" y="138" on="1"/>
        <pt x="87" y="0" on="1"/>
        <pt x="53" y="0" on="1"/>
      </contour>
      <contour>
        <pt x="515" y="387" on="1"/>
        <pt x="515" y="424" on="0"/>
        <pt x="489" y="494" on="0"/>
        <pt x="434" y="547" on="0"/>
        <pt x="347" y="579" on="0"/>
        <pt x="286" y="579" on="1"/>
        <pt x="271" y="579" on="0"/>
        <pt x="224" y="575" on="0"/>
        <pt x="199" y="571" on="1"/>
        <pt x="120" y="166" on="1"/>
        <pt x="149" y="161" on="0"/>
        <pt x="216" y="154" on="0"/>
        <pt x="242" y="154" on="1"/>
        <pt x="311" y="154" on="0"/>
        <pt x="414" y="191" on="0"/>
        <pt x="482" y="255" on="0"/>
        <pt x="515" y="339" on="0"/>
      </contour>
    </TTGlyph>
    <TTGlyph name="U" xMin="99" yMin="-8" xMax="726" yMax="733">
      <contour>
        <pt x="631" y="244" on="1"/>
        <pt x="605" y="114" on="0"/>
        <pt x="460" y="-8" on="0"/>
        <pt x="341" y="-8" on="1"/>
        <pt x="226" y="-8" on="0"/>
        <pt x="99" y="112" on="0"/>
        <pt x="99" y="215" on="1"/>
        <pt x="99" y="239" on="0"/>
        <pt x="105" y="279" on="0"/>
        <pt x="109" y="299" on="1"/>
        <pt x="193" y="733" on="1"/>
        <pt x="228" y="733" on="1"/>
        <pt x="142" y="293" on="1"/>
        <pt x="138" y="273" on="0"/>
        <pt x="133" y="241" on="0"/>
        <pt x="133" y="216" on="1"/>
        <pt x="133" y="125" on="0"/>
        <pt x="245" y="22" on="0"/>
        <pt x="346" y="22" on="1"/>
        <pt x="447" y="22" on="0"/>
        <pt x="575" y="129" on="0"/>
        <pt x="598" y="249" on="1"/>
        <pt x="691" y="733" on="1"/>
        <pt x="726" y="733" on="1"/>
      </contour>
    </TTGlyph>
    <TTGlyph name="Uacute" xMin="99" yMin="-8" xMax="726" yMax="933">
      <component glyphName="U" x="0" y="0" flags="0x204"/>
      <component glyphName="acute" x="265" y="310" flags="0x4"/>
    </TTGlyph>
    <TTGlyph name="Ubreve" xMin="99" yMin="-8" xMax="726" yMax="915">
      <component glyphName="U" x="0" y="0" flags="0x204"/>
      <component glyphName="breve" x="195" y="310" flags="0x4"/>
    </TTGlyph>
    <TTGlyph name="Ucircumflex" xMin="99" yMin="-8" xMax="726" yMax="932">
      <component glyphName="U" x="0" y="0" flags="0x204"/>
      <component glyphName="circumflex" x="191" y="310" flags="0x4"/>
    </TTGlyph>
    <TTGlyph name="Udieresis" xMin="99" yMin="-8" xMax="726" yMax="886">
      <component glyphName="U" x="0" y="0" flags="0x204"/>
      <component glyphName="dieresis" x="194" y="310" flags="0x4"/>
    </TTGlyph>
    <TTGlyph name="Ugrave" xMin="99" yMin="-8" xMax="726" yMax="932">
      <component glyphName="U" x="0" y="0" flags="0x204"/>
      <component glyphName="grave" x="114" y="310" flags="0x4"/>
    </TTGlyph>
    <TTGlyph name="Uhungarumlaut" xMin="99" yMin="-8" xMax="726" yMax="975">
      <component glyphName="U" x="0" y="0" flags="0x204"/>
      <component glyphName="hungarumlaut" x="219" y="310" flags="0x4"/>
    </TTGlyph>
    <TTGlyph name="Umacron" xMin="99" yMin="-8" xMax="726" yMax="862">
      <component glyphName="U" x="0" y="0" flags="0x204"/>
      <component glyphName="macron" x="195" y="310" flags="0x4"/>
    </TTGlyph>
    <TTGlyph name="Uogonek" xMin="99" yMin="-219" xMax="726" yMax="733">
      <contour>
        <pt x="631" y="244" on="1"/>
        <pt x="606" y="117" on="0"/>
        <pt x="469" y="-4" on="0"/>
        <pt x="355" y="-8" on="1"/>
        <pt x="340" y="-20" on="0"/>
        <pt x="300" y="-52" on="0"/>
        <pt x="265" y="-89" on="0"/>
        <pt x="240" y="-130" on="0"/>
        <pt x="240" y="-150" on="1"/>
        <pt x="240" y="-170" on="0"/>
        <pt x="260" y="-192" on="0"/>
        <pt x="277" y="-192" on="1"/>
        <pt x="297" y="-192" on="0"/>
        <pt x="332" y="-168" on="0"/>
        <pt x="348" y="-151" on="1"/>
        <pt x="366" y="-170" on="1"/>
        <pt x="346" y="-192" on="0"/>
        <pt x="299" y="-219" on="0"/>
        <pt x="270" y="-219" on="1"/>
        <pt x="241" y="-219" on="0"/>
        <pt x="209" y="-185" on="0"/>
        <pt x="209" y="-159" on="1"/>
        <pt x="209" y="-137" on="0"/>
        <pt x="226" y="-97" on="0"/>
        <pt x="255" y="-59" on="0"/>
        <pt x="293" y="-24" on="0"/>
        <pt x="314" y="-7" on="1"/>
        <pt x="211" y="0" on="0"/>
        <pt x="99" y="118" on="0"/>
        <pt x="99" y="215" on="1"/>
        <pt x="99" y="239" on="0"/>
        <pt x="105" y="279" on="0"/>
        <pt x="109" y="299" on="1"/>
        <pt x="193" y="733" on="1"/>
        <pt x="228" y="733" on="1"/>
        <pt x="142" y="293" on="1"/>
        <pt x="138" y="273" on="0"/>
        <pt x="133" y="241" on="0"/>
        <pt x="133" y="216" on="1"/>
        <pt x="133" y="125" on="0"/>
        <pt x="245" y="22" on="0"/>
        <pt x="346" y="22" on="1"/>
        <pt x="447" y="22" on="0"/>
        <pt x="575" y="129" on="0"/>
        <pt x="598" y="249" on="1"/>
        <pt x="691" y="733" on="1"/>
        <pt x="726" y="733" on="1"/>
      </contour>
    </TTGlyph>
    <TTGlyph name="Uring" xMin="99" yMin="-8" xMax="726" yMax="995">
      <component glyphName="U" x="0" y="0" flags="0x204"/>
      <component glyphName="ring" x="201" y="310" flags="0x4"/>
    </TTGlyph>
    <TTGlyph name="V" xMin="135" yMin="-11" xMax="768" yMax="733">
      <contour>
        <pt x="311" y="-11" on="1"/>
        <pt x="303" y="-11" on="1"/>
        <pt x="135" y="733" on="1"/>
        <pt x="168" y="733" on="1"/>
        <pt x="319" y="57" on="1"/>
        <pt x="729" y="733" on="1"/>
        <pt x="768" y="733" on="1"/>
      </contour>
    </TTGlyph>
    <TTGlyph name="W" xMin="160" yMin="-10" xMax="1033" yMax="734">
      <contour>
        <pt x="706" y="-8" on="1"/>
        <pt x="690" y="-10" on="1"/>
        <pt x="582" y="670" on="1"/>
        <pt x="211" y="-10" on="1"/>
        <pt x="197" y="-8" on="1"/>
        <pt x="160" y="733" on="1"/>
        <pt x="190" y="733" on="1"/>
        <pt x="222" y="65" on="1"/>
        <pt x="587" y="734" on="1"/>
        <pt x="600" y="734" on="1"/>
        <pt x="709" y="63" on="1"/>
        <pt x="999" y="733" on="1"/>
        <pt x="1033" y="733" on="1"/>
      </contour>
    </TTGlyph>
    <TTGlyph name="Wacute" xMin="160" yMin="-10" xMax="1033" yMax="943">
      <component glyphName="W" x="0" y="0" flags="0x204"/>
      <component glyphName="acute" x="403" y="320" flags="0x4"/>
    </TTGlyph>
    <TTGlyph name="Wcircumflex" xMin="160" yMin="-10" xMax="1033" yMax="942">
      <component glyphName="W" x="0" y="0" flags="0x204"/>
      <component glyphName="circumflex" x="329" y="320" flags="0x4"/>
    </TTGlyph>
    <TTGlyph name="Wdieresis" xMin="160" yMin="-10" xMax="1033" yMax="896">
      <component glyphName="W" x="0" y="0" flags="0x204"/>
      <component glyphName="dieresis" x="332" y="320" flags="0x4"/>
    </TTGlyph>
    <TTGlyph name="Wgrave" xMin="160" yMin="-10" xMax="1033" yMax="942">
      <component glyphName="W" x="0" y="0" flags="0x204"/>
      <component glyphName="grave" x="252" y="320" flags="0x4"/>
    </TTGlyph>
    <TTGlyph name="X" xMin="13" yMin="0" xMax="725" yMax="733">
      <contour>
        <pt x="394" y="371" on="1"/>
        <pt x="592" y="0" on="1"/>
        <pt x="554" y="0" on="1"/>
        <pt x="371" y="349" on="1"/>
        <pt x="54" y="0" on="1"/>
        <pt x="13" y="0" on="1"/>
        <pt x="355" y="372" on="1"/>
        <pt x="162" y="733" on="1"/>
        <pt x="200" y="733" on="1"/>
        <pt x="378" y="394" on="1"/>
        <pt x="684" y="733" on="1"/>
        <pt x="725" y="733" on="1"/>
      </contour>
    </TTGlyph>
    <TTGlyph name="Y" xMin="129" yMin="0" xMax="671" yMax="733">
      <contour>
        <pt x="340" y="333" on="1"/>
        <pt x="275" y="0" on="1"/>
        <pt x="242" y="0" on="1"/>
        <pt x="307" y="333" on="1"/>
        <pt x="129" y="733" on="1"/>
        <pt x="163" y="733" on="1"/>
        <pt x="327" y="362" on="1"/>
        <pt x="632" y="733" on="1"/>
        <pt x="671" y="733" on="1"/>
      </contour>
    </TTGlyph>
    <TTGlyph name="Yacute" xMin="129" yMin="0" xMax="671" yMax="933">
      <component glyphName="Y" x="0" y="0" flags="0x204"/>
      <component glyphName="acute" x="210" y="310" flags="0x4"/>
    </TTGlyph>
    <TTGlyph name="Ycircumflex" xMin="129" yMin="0" xMax="671" yMax="932">
      <component glyphName="Y" x="0" y="0" flags="0x204"/>
      <component glyphName="circumflex" x="137" y="310" flags="0x4"/>
    </TTGlyph>
    <TTGlyph name="Ydieresis" xMin="129" yMin="0" xMax="671" yMax="886">
      <component glyphName="Y" x="0" y="0" flags="0x204"/>
      <component glyphName="dieresis" x="139" y="310" flags="0x4"/>
    </TTGlyph>
    <TTGlyph name="Ygrave" xMin="129" yMin="0" xMax="671" yMax="932">
      <component glyphName="Y" x="0" y="0" flags="0x204"/>
      <component glyphName="grave" x="59" y="310" flags="0x4"/>
    </TTGlyph>
    <TTGlyph name="Z" xMin="16" yMin="0" xMax="682" yMax="733">
      <contour>
        <pt x="74" y="29" on="1"/>
        <pt x="543" y="29" on="1"/>
        <pt x="537" y="0" on="1"/>
        <pt x="18" y="0" on="1"/>
        <pt x="16" y="8" on="1"/>
        <pt x="624" y="704" on="1"/>
        <pt x="176" y="704" on="1"/>
        <pt x="181" y="733" on="1"/>
        <pt x="679" y="733" on="1"/>
        <pt x="682" y="724" on="1"/>
      </contour>
    </TTGlyph>
    <TTGlyph name="Zacute" xMin="16" yMin="0" xMax="682" yMax="943">
      <component glyphName="Z" x="0" y="0" flags="0x204"/>
      <component glyphName="acute" x="230" y="320" flags="0x4"/>
    </TTGlyph>
    <TTGlyph name="Zcaron" xMin="16" yMin="0" xMax="682" yMax="941">
      <component glyphName="Z" x="0" y="0" flags="0x204"/>
      <component glyphName="caron" x="164" y="320" flags="0x4"/>
    </TTGlyph>
    <TTGlyph name="Zdotaccent" xMin="16" yMin="0" xMax="682" yMax="896">
      <component glyphName="Z" x="0" y="0" flags="0x204"/>
      <component glyphName="dotaccent" x="160" y="320" flags="0x4"/>
    </TTGlyph>
    <TTGlyph name="a" xMin="26" yMin="-8" xMax="369" yMax="423">
      <contour>
        <pt x="369" y="304" on="1"/>
        <pt x="369" y="291" on="0"/>
        <pt x="365" y="263" on="0"/>
        <pt x="363" y="252" on="1"/>
        <pt x="312" y="0" on="1"/>
        <pt x="279" y="0" on="1"/>
        <pt x="289" y="48" on="1"/>
        <pt x="269" y="29" on="0"/>
        <pt x="200" y="-8" on="0"/>
        <pt x="152" y="-8" on="1"/>
        <pt x="126" y="-8" on="0"/>
        <pt x="81" y="7" on="0"/>
        <pt x="46" y="37" on="0"/>
        <pt x="26" y="81" on="0"/>
        <pt x="26" y="109" on="1"/>
        <pt x="26" y="137" on="0"/>
        <pt x="50" y="187" on="0"/>
        <pt x="95" y="226" on="0"/>
        <pt x="159" y="249" on="0"/>
        <pt x="199" y="249" on="1"/>
        <pt x="238" y="249" on="0"/>
        <pt x="302" y="227" on="0"/>
        <pt x="321" y="216" on="1"/>
        <pt x="329" y="256" on="1"/>
        <pt x="331" y="268" on="0"/>
        <pt x="334" y="286" on="0"/>
        <pt x="334" y="299" on="1"/>
        <pt x="334" y="343" on="0"/>
        <pt x="268" y="393" on="0"/>
        <pt x="214" y="393" on="1"/>
        <pt x="182" y="393" on="0"/>
        <pt x="131" y="384" on="0"/>
        <pt x="108" y="376" on="1"/>
        <pt x="103" y="406" on="1"/>
        <pt x="126" y="414" on="0"/>
        <pt x="181" y="423" on="0"/>
        <pt x="217" y="423" on="1"/>
        <pt x="251" y="423" on="0"/>
        <pt x="307" y="405" on="0"/>
        <pt x="347" y="374" on="0"/>
        <pt x="369" y="330" on="0"/>
      </contour>
      <contour>
        <pt x="316" y="188" on="1"/>
        <pt x="299" y="202" on="0"/>
        <pt x="234" y="222" on="0"/>
        <pt x="197" y="222" on="1"/>
        <pt x="165" y="222" on="0"/>
        <pt x="114" y="204" on="0"/>
        <pt x="78" y="173" on="0"/>
        <pt x="59" y="133" on="0"/>
        <pt x="59" y="111" on="1"/>
        <pt x="59" y="66" on="0"/>
        <pt x="113" y="19" on="0"/>
        <pt x="154" y="19" on="1"/>
        <pt x="199" y="19" on="0"/>
        <pt x="269" y="57" on="0"/>
        <pt x="295" y="83" on="1"/>
      </contour>
    </TTGlyph>
    <TTGlyph name="aacute" xMin="26" yMin="-8" xMax="437" yMax="623">
      <component glyphName="a" x="0" y="0" flags="0x204"/>
      <component glyphName="acute" x="55" y="0" flags="0x4"/>
    </TTGlyph>
    <TTGlyph name="abreve" xMin="26" yMin="-8" xMax="404" yMax="605">
      <component glyphName="a" x="0" y="0" flags="0x204"/>
      <component glyphName="breve" x="-14" y="0" flags="0x4"/>
    </TTGlyph>
    <TTGlyph name="acircumflex" xMin="26" yMin="-8" xMax="385" yMax="622">
      <component glyphName="a" x="0" y="0" flags="0x204"/>
      <component glyphName="circumflex" x="-18" y="0" flags="0x4"/>
    </TTGlyph>
    <TTGlyph name="acute" xMin="170" yMin="476" xMax="382" yMax="623">
      <contour>
        <pt x="180" y="476" on="1"/>
        <pt x="170" y="494" on="1"/>
        <pt x="364" y="623" on="1"/>
        <pt x="382" y="592" on="1"/>
      </contour>
    </TTGlyph>
    <TTGlyph name="adieresis" xMin="26" yMin="-8" xMax="389" yMax="576">
      <component glyphName="a" x="0" y="0" flags="0x204"/>
      <component glyphName="dieresis" x="-15" y="0" flags="0x4"/>
    </TTGlyph>
    <TTGlyph name="ae" xMin="26" yMin="-8" xMax="687" yMax="423">
      <contour>
        <pt x="156" y="-8" on="1"/>
        <pt x="101" y="-8" on="0"/>
        <pt x="26" y="52" on="0"/>
        <pt x="26" y="109" on="1"/>
        <pt x="26" y="137" on="0"/>
        <pt x="50" y="187" on="0"/>
        <pt x="95" y="226" on="0"/>
        <pt x="159" y="249" on="0"/>
        <pt x="199" y="249" on="1"/>
        <pt x="238" y="249" on="0"/>
        <pt x="303" y="227" on="0"/>
        <pt x="322" y="216" on="1"/>
        <pt x="330" y="256" on="1"/>
        <pt x="332" y="268" on="0"/>
        <pt x="335" y="286" on="0"/>
        <pt x="335" y="299" on="1"/>
        <pt x="335" y="343" on="0"/>
        <pt x="268" y="393" on="0"/>
        <pt x="214" y="393" on="1"/>
        <pt x="182" y="393" on="0"/>
        <pt x="131" y="384" on="0"/>
        <pt x="108" y="376" on="1"/>
        <pt x="103" y="406" on="1"/>
        <pt x="126" y="414" on="0"/>
        <pt x="181" y="423" on="0"/>
        <pt x="217" y="423" on="1"/>
        <pt x="275" y="423" on="0"/>
        <pt x="353" y="372" on="0"/>
        <pt x="364" y="328" on="1"/>
        <pt x="394" y="373" on="0"/>
        <pt x="481" y="422" on="0"/>
        <pt x="536" y="422" on="1"/>
        <pt x="579" y="422" on="0"/>
        <pt x="638" y="393" on="0"/>
        <pt x="673" y="347" on="0"/>
        <pt x="687" y="291" on="0"/>
        <pt x="687" y="264" on="1"/>
        <pt x="687" y="234" on="0"/>
        <pt x="679" y="208" on="1"/>
        <pt x="351" y="208" on="1"/>
        <pt x="350" y="200" on="0"/>
        <pt x="350" y="183" on="0"/>
        <pt x="350" y="178" on="1"/>
        <pt x="350" y="106" on="0"/>
        <pt x="424" y="20" on="0"/>
        <pt x="505" y="20" on="1"/>
        <pt x="557" y="20" on="0"/>
        <pt x="605" y="38" on="1"/>
        <pt x="606" y="30" on="0"/>
        <pt x="608" y="24" on="1"/>
        <pt x="609" y="19" on="0"/>
        <pt x="611" y="9" on="0"/>
        <pt x="611" y="10" on="1"/>
        <pt x="587" y="1" on="0"/>
        <pt x="530" y="-8" on="0"/>
        <pt x="503" y="-8" on="1"/>
        <pt x="421" y="-8" on="0"/>
        <pt x="335" y="62" on="0"/>
        <pt x="323" y="121" on="1"/>
        <pt x="302" y="62" on="0"/>
        <pt x="212" y="-8" on="0"/>
      </contour>
      <contour>
        <pt x="158" y="19" on="1"/>
        <pt x="213" y="19" on="0"/>
        <pt x="300" y="108" on="0"/>
        <pt x="317" y="189" on="1"/>
        <pt x="267" y="222" on="0"/>
        <pt x="197" y="222" on="1"/>
        <pt x="165" y="222" on="0"/>
        <pt x="114" y="204" on="0"/>
        <pt x="78" y="173" on="0"/>
        <pt x="59" y="133" on="0"/>
        <pt x="59" y="111" on="1"/>
        <pt x="59" y="66" on="0"/>
        <pt x="113" y="19" on="0"/>
      </contour>
      <contour>
        <pt x="653" y="236" on="1"/>
        <pt x="656" y="249" on="0"/>
        <pt x="656" y="267" on="1"/>
        <pt x="656" y="287" on="0"/>
        <pt x="646" y="332" on="0"/>
        <pt x="619" y="369" on="0"/>
        <pt x="571" y="394" on="0"/>
        <pt x="534" y="394" on="1"/>
        <pt x="499" y="394" on="0"/>
        <pt x="441" y="370" on="0"/>
        <pt x="395" y="328" on="0"/>
        <pt x="363" y="270" on="0"/>
        <pt x="356" y="236" on="1"/>
      </contour>
    </TTGlyph>
    <TTGlyph name="aeacute" xMin="26" yMin="-8" xMax="687" yMax="623">
      <component glyphName="ae" x="0" y="0" flags="0x204"/>
      <component glyphName="acute" x="199" y="0" flags="0x4"/>
    </TTGlyph>
    <TTGlyph name="agrave" xMin="26" yMin="-8" xMax="369" yMax="622">
      <component glyphName="a" x="0" y="0" flags="0x204"/>
      <component glyphName="grave" x="-95" y="0" flags="0x4"/>
    </TTGlyph>
    <TTGlyph name="amacron" xMin="26" yMin="-8" xMax="413" yMax="552">
      <component glyphName="a" x="0" y="0" flags="0x204"/>
      <component glyphName="macron" x="-14" y="0" flags="0x4"/>
    </TTGlyph>
    <TTGlyph name="ampersand" xMin="37" yMin="-16" xMax="567" yMax="580">
      <contour>
        <pt x="567" y="230" on="1"/>
        <pt x="535" y="195" on="0"/>
        <pt x="460" y="121" on="0"/>
        <pt x="418" y="88" on="1"/>
        <pt x="437" y="65" on="0"/>
        <pt x="472" y="23" on="0"/>
        <pt x="489" y="4" on="1"/>
        <pt x="465" y="-16" on="1"/>
        <pt x="449" y="2" on="0"/>
        <pt x="413" y="46" on="0"/>
        <pt x="394" y="69" on="1"/>
        <pt x="347" y="36" on="0"/>
        <pt x="247" y="-8" on="0"/>
        <pt x="195" y="-8" on="1"/>
        <pt x="157" y="-8" on="0"/>
        <pt x="99" y="14" on="0"/>
        <pt x="58" y="51" on="0"/>
        <pt x="37" y="102" on="0"/>
        <pt x="37" y="131" on="1"/>
        <pt x="37" y="198" on="0"/>
        <pt x="129" y="293" on="0"/>
        <pt x="225" y="318" on="1"/>
        <pt x="212" y="344" on="0"/>
        <pt x="195" y="402" on="0"/>
        <pt x="195" y="429" on="1"/>
        <pt x="195" y="461" on="0"/>
        <pt x="218" y="516" on="0"/>
        <pt x="259" y="557" on="0"/>
        <pt x="315" y="580" on="0"/>
        <pt x="347" y="580" on="1"/>
        <pt x="374" y="580" on="0"/>
        <pt x="418" y="563" on="0"/>
        <pt x="448" y="534" on="0"/>
        <pt x="465" y="496" on="0"/>
        <pt x="465" y="475" on="1"/>
        <pt x="465" y="415" on="0"/>
        <pt x="372" y="330" on="0"/>
        <pt x="268" y="302" on="1"/>
        <pt x="289" y="264" on="0"/>
        <pt x="361" y="161" on="0"/>
        <pt x="401" y="111" on="1"/>
        <pt x="441" y="143" on="0"/>
        <pt x="515" y="217" on="0"/>
        <pt x="546" y="252" on="1"/>
      </contour>
      <contour>
        <pt x="376" y="92" on="1"/>
        <pt x="335" y="145" on="0"/>
        <pt x="259" y="252" on="0"/>
        <pt x="238" y="293" on="1"/>
        <pt x="157" y="273" on="0"/>
        <pt x="70" y="193" on="0"/>
        <pt x="70" y="133" on="1"/>
        <pt x="70" y="86" on="0"/>
        <pt x="136" y="20" on="0"/>
        <pt x="199" y="20" on="1"/>
        <pt x="243" y="20" on="0"/>
        <pt x="332" y="60" on="0"/>
      </contour>
      <contour>
        <pt x="432" y="473" on="1"/>
        <pt x="432" y="506" on="0"/>
        <pt x="385" y="554" on="0"/>
        <pt x="345" y="554" on="1"/>
        <pt x="319" y="554" on="0"/>
        <pt x="276" y="534" on="0"/>
        <pt x="245" y="499" on="0"/>
        <pt x="227" y="455" on="0"/>
        <pt x="227" y="431" on="1"/>
        <pt x="227" y="405" on="0"/>
        <pt x="244" y="352" on="0"/>
        <pt x="256" y="326" on="1"/>
        <pt x="306" y="339" on="0"/>
        <pt x="373" y="371" on="0"/>
        <pt x="414" y="408" on="0"/>
        <pt x="432" y="450" on="0"/>
      </contour>
    </TTGlyph>
    <TTGlyph name="ampersand.cap" xMin="47" yMin="-18" xMax="722" yMax="742">
      <contour>
        <pt x="722" y="295" on="1"/>
        <pt x="679" y="250" on="0"/>
        <pt x="581" y="154" on="0"/>
        <pt x="527" y="112" on="1"/>
        <pt x="550" y="82" on="0"/>
        <pt x="596" y="27" on="0"/>
        <pt x="617" y="2" on="1"/>
        <pt x="592" y="-18" on="1"/>
        <pt x="572" y="5" on="0"/>
        <pt x="527" y="61" on="0"/>
        <pt x="502" y="93" on="1"/>
        <pt x="441" y="48" on="0"/>
        <pt x="313" y="-8" on="0"/>
        <pt x="247" y="-8" on="1"/>
        <pt x="201" y="-8" on="0"/>
        <pt x="127" y="19" on="0"/>
        <pt x="75" y="67" on="0"/>
        <pt x="47" y="131" on="0"/>
        <pt x="47" y="168" on="1"/>
        <pt x="47" y="253" on="0"/>
        <pt x="163" y="372" on="0"/>
        <pt x="288" y="407" on="1"/>
        <pt x="271" y="442" on="0"/>
        <pt x="248" y="516" on="0"/>
        <pt x="248" y="551" on="1"/>
        <pt x="248" y="593" on="0"/>
        <pt x="276" y="664" on="0"/>
        <pt x="326" y="714" on="0"/>
        <pt x="396" y="742" on="0"/>
        <pt x="438" y="742" on="1"/>
        <pt x="472" y="742" on="0"/>
        <pt x="526" y="720" on="0"/>
        <pt x="564" y="684" on="0"/>
        <pt x="585" y="636" on="0"/>
        <pt x="585" y="609" on="1"/>
        <pt x="585" y="533" on="0"/>
        <pt x="464" y="427" on="0"/>
        <pt x="331" y="390" on="1"/>
        <pt x="345" y="364" on="0"/>
        <pt x="384" y="304" on="0"/>
        <pt x="430" y="238" on="0"/>
        <pt x="482" y="169" on="0"/>
        <pt x="508" y="135" on="1"/>
        <pt x="562" y="177" on="0"/>
        <pt x="658" y="273" on="0"/>
        <pt x="700" y="318" on="1"/>
      </contour>
      <contour>
        <pt x="484" y="117" on="1"/>
        <pt x="457" y="151" on="0"/>
        <pt x="404" y="222" on="0"/>
        <pt x="356" y="291" on="0"/>
        <pt x="316" y="355" on="0"/>
        <pt x="301" y="382" on="1"/>
        <pt x="196" y="353" on="0"/>
        <pt x="82" y="250" on="0"/>
        <pt x="82" y="170" on="1"/>
        <pt x="82" y="106" on="0"/>
        <pt x="167" y="21" on="0"/>
        <pt x="251" y="21" on="1"/>
        <pt x="308" y="21" on="0"/>
        <pt x="427" y="75" on="0"/>
      </contour>
      <contour>
        <pt x="319" y="415" on="1"/>
        <pt x="385" y="433" on="0"/>
        <pt x="474" y="474" on="0"/>
        <pt x="528" y="522" on="0"/>
        <pt x="551" y="577" on="0"/>
        <pt x="551" y="608" on="1"/>
        <pt x="551" y="652" on="0"/>
        <pt x="489" y="714" on="0"/>
        <pt x="436" y="714" on="1"/>
        <pt x="398" y="714" on="0"/>
        <pt x="341" y="688" on="0"/>
        <pt x="302" y="644" on="0"/>
        <pt x="282" y="585" on="0"/>
        <pt x="282" y="552" on="1"/>
        <pt x="282" y="520" on="0"/>
        <pt x="303" y="449" on="0"/>
      </contour>
    </TTGlyph>
    <TTGlyph name="aogonek" xMin="26" yMin="-219" xMax="369" yMax="423">
      <contour>
        <pt x="313" y="-170" on="1"/>
        <pt x="293" y="-192" on="0"/>
        <pt x="246" y="-219" on="0"/>
        <pt x="219" y="-219" on="1"/>
        <pt x="189" y="-219" on="0"/>
        <pt x="156" y="-185" on="0"/>
        <pt x="156" y="-159" on="1"/>
        <pt x="156" y="-135" on="0"/>
        <pt x="177" y="-91" on="0"/>
        <pt x="212" y="-49" on="0"/>
        <pt x="257" y="-10" on="0"/>
        <pt x="281" y="8" on="1"/>
        <pt x="289" y="48" on="1"/>
        <pt x="269" y="29" on="0"/>
        <pt x="200" y="-8" on="0"/>
        <pt x="152" y="-8" on="1"/>
        <pt x="126" y="-8" on="0"/>
        <pt x="81" y="7" on="0"/>
        <pt x="46" y="37" on="0"/>
        <pt x="26" y="81" on="0"/>
        <pt x="26" y="109" on="1"/>
        <pt x="26" y="137" on="0"/>
        <pt x="50" y="187" on="0"/>
        <pt x="95" y="226" on="0"/>
        <pt x="159" y="249" on="0"/>
        <pt x="199" y="249" on="1"/>
        <pt x="238" y="249" on="0"/>
        <pt x="302" y="227" on="0"/>
        <pt x="321" y="216" on="1"/>
        <pt x="329" y="256" on="1"/>
        <pt x="331" y="268" on="0"/>
        <pt x="334" y="286" on="0"/>
        <pt x="334" y="299" on="1"/>
        <pt x="334" y="343" on="0"/>
        <pt x="268" y="393" on="0"/>
        <pt x="214" y="393" on="1"/>
        <pt x="182" y="393" on="0"/>
        <pt x="131" y="384" on="0"/>
        <pt x="108" y="376" on="1"/>
        <pt x="103" y="406" on="1"/>
        <pt x="126" y="414" on="0"/>
        <pt x="181" y="423" on="0"/>
        <pt x="217" y="423" on="1"/>
        <pt x="251" y="423" on="0"/>
        <pt x="307" y="405" on="0"/>
        <pt x="347" y="374" on="0"/>
        <pt x="369" y="330" on="0"/>
        <pt x="369" y="304" on="1"/>
        <pt x="369" y="291" on="0"/>
        <pt x="365" y="263" on="0"/>
        <pt x="363" y="252" on="1"/>
        <pt x="312" y="0" on="1"/>
        <pt x="298" y="-11" on="0"/>
        <pt x="256" y="-45" on="0"/>
        <pt x="216" y="-85" on="0"/>
        <pt x="187" y="-130" on="0"/>
        <pt x="187" y="-152" on="1"/>
        <pt x="187" y="-170" on="0"/>
        <pt x="206" y="-192" on="0"/>
        <pt x="224" y="-192" on="1"/>
        <pt x="244" y="-192" on="0"/>
        <pt x="279" y="-168" on="0"/>
        <pt x="295" y="-151" on="1"/>
      </contour>
      <contour>
        <pt x="316" y="188" on="1"/>
        <pt x="299" y="202" on="0"/>
        <pt x="234" y="222" on="0"/>
        <pt x="197" y="222" on="1"/>
        <pt x="165" y="222" on="0"/>
        <pt x="114" y="204" on="0"/>
        <pt x="78" y="173" on="0"/>
        <pt x="59" y="133" on="0"/>
        <pt x="59" y="111" on="1"/>
        <pt x="59" y="66" on="0"/>
        <pt x="113" y="19" on="0"/>
        <pt x="154" y="19" on="1"/>
        <pt x="199" y="19" on="0"/>
        <pt x="269" y="57" on="0"/>
        <pt x="295" y="83" on="1"/>
      </contour>
    </TTGlyph>
    <TTGlyph name="aring" xMin="26" yMin="-8" xMax="376" yMax="685">
      <component glyphName="a" x="0" y="0" flags="0x204"/>
      <component glyphName="ring" x="-8" y="0" flags="0x4"/>
    </TTGlyph>
    <TTGlyph name="aringacute" xMin="26" yMin="-8" xMax="507" yMax="885">
      <component glyphName="acute" x="125" y="262" flags="0x4"/>
      <component glyphName="a" x="0" y="0" flags="0x4"/>
      <component glyphName="ring" x="-8" y="0" flags="0x4"/>
    </TTGlyph>
    <TTGlyph name="arrowleft" xMin="40" yMin="-1" xMax="675" yMax="486">
      <contour>
        <pt x="91" y="229" on="1"/>
        <pt x="303" y="21" on="1"/>
        <pt x="282" y="-1" on="1"/>
        <pt x="40" y="239" on="1"/>
        <pt x="41" y="245" on="1"/>
        <pt x="377" y="486" on="1"/>
        <pt x="393" y="461" on="1"/>
        <pt x="104" y="256" on="1"/>
        <pt x="675" y="257" on="1"/>
        <pt x="670" y="228" on="1"/>
      </contour>
    </TTGlyph>
    <TTGlyph name="arrowleft.cap" xMin="65" yMin="127" xMax="700" yMax="614">
      <component glyphName="arrowleft" x="25" y="128" flags="0x204"/>
    </TTGlyph>
    <TTGlyph name="arrowright" xMin="51" yMin="-1" xMax="686" yMax="486">
      <contour>
        <pt x="635" y="256" on="1"/>
        <pt x="423" y="464" on="1"/>
        <pt x="444" y="486" on="1"/>
        <pt x="686" y="246" on="1"/>
        <pt x="685" y="240" on="1"/>
        <pt x="349" y="-1" on="1"/>
        <pt x="333" y="24" on="1"/>
        <pt x="622" y="229" on="1"/>
        <pt x="51" y="228" on="1"/>
        <pt x="56" y="257" on="1"/>
      </contour>
    </TTGlyph>
    <TTGlyph name="arrowright.cap" xMin="76" yMin="127" xMax="711" yMax="614">
      <component glyphName="arrowright" x="25" y="128" flags="0x204"/>
    </TTGlyph>
    <TTGlyph name="asciicircum" xMin="153" yMin="485" xMax="403" yMax="622">
      <contour>
        <pt x="368" y="485" on="1"/>
        <pt x="299" y="595" on="1"/>
        <pt x="191" y="485" on="1"/>
        <pt x="153" y="485" on="1"/>
        <pt x="288" y="622" on="1"/>
        <pt x="318" y="622" on="1"/>
        <pt x="403" y="485" on="1"/>
      </contour>
    </TTGlyph>
    <TTGlyph name="asciitilde" xMin="97" yMin="329" xMax="412" yMax="417">
      <contour>
        <pt x="412" y="389" on="1"/>
        <pt x="396" y="372" on="0"/>
        <pt x="371" y="349" on="0"/>
        <pt x="347" y="335" on="0"/>
        <pt x="324" y="329" on="0"/>
        <pt x="311" y="329" on="1"/>
        <pt x="291" y="329" on="0"/>
        <pt x="262" y="348" on="0"/>
        <pt x="248" y="359" on="1"/>
        <pt x="235" y="370" on="0"/>
        <pt x="210" y="388" on="0"/>
        <pt x="193" y="388" on="1"/>
        <pt x="176" y="388" on="0"/>
        <pt x="144" y="367" on="0"/>
        <pt x="117" y="338" on="1"/>
        <pt x="97" y="357" on="1"/>
        <pt x="128" y="391" on="0"/>
        <pt x="172" y="417" on="0"/>
        <pt x="198" y="417" on="1"/>
        <pt x="218" y="417" on="0"/>
        <pt x="248" y="398" on="0"/>
        <pt x="263" y="385" on="1"/>
        <pt x="276" y="374" on="0"/>
        <pt x="301" y="358" on="0"/>
        <pt x="316" y="358" on="1"/>
        <pt x="333" y="358" on="0"/>
        <pt x="365" y="379" on="0"/>
        <pt x="392" y="408" on="1"/>
      </contour>
    </TTGlyph>
    <TTGlyph name="asterisk" xMin="112" yMin="439" xMax="412" yMax="740">
      <contour>
        <pt x="273" y="574" on="1"/>
        <pt x="334" y="450" on="1"/>
        <pt x="310" y="439" on="1"/>
        <pt x="251" y="565" on="1"/>
        <pt x="149" y="470" on="1"/>
        <pt x="131" y="489" on="1"/>
        <pt x="234" y="582" on="1"/>
        <pt x="112" y="650" on="1"/>
        <pt x="124" y="673" on="1"/>
        <pt x="246" y="603" on="1"/>
        <pt x="272" y="740" on="1"/>
        <pt x="298" y="736" on="1"/>
        <pt x="271" y="598" on="1"/>
        <pt x="409" y="617" on="1"/>
        <pt x="412" y="591" on="1"/>
      </contour>
    </TTGlyph>
    <TTGlyph name="at" xMin="69" yMin="-8" xMax="668" yMax="598">
      <contour>
        <pt x="668" y="340" on="1"/>
        <pt x="668" y="307" on="0"/>
        <pt x="649" y="236" on="0"/>
        <pt x="612" y="179" on="0"/>
        <pt x="558" y="142" on="0"/>
        <pt x="522" y="142" on="1"/>
        <pt x="496" y="142" on="0"/>
        <pt x="447" y="168" on="0"/>
        <pt x="438" y="194" on="1"/>
        <pt x="416" y="171" on="0"/>
        <pt x="368" y="149" on="0"/>
        <pt x="343" y="149" on="1"/>
        <pt x="326" y="149" on="0"/>
        <pt x="293" y="159" on="0"/>
        <pt x="267" y="179" on="0"/>
        <pt x="251" y="208" on="0"/>
        <pt x="251" y="227" on="1"/>
        <pt x="251" y="269" on="0"/>
        <pt x="308" y="315" on="0"/>
        <pt x="347" y="315" on="1"/>
        <pt x="402" y="315" on="0"/>
        <pt x="446" y="279" on="1"/>
        <pt x="451" y="301" on="0"/>
        <pt x="453" y="320" on="0"/>
        <pt x="453" y="331" on="1"/>
        <pt x="453" y="360" on="0"/>
        <pt x="409" y="394" on="0"/>
        <pt x="372" y="394" on="1"/>
        <pt x="353" y="394" on="0"/>
        <pt x="324" y="390" on="0"/>
        <pt x="310" y="386" on="1"/>
        <pt x="307" y="412" on="1"/>
        <pt x="324" y="416" on="0"/>
        <pt x="357" y="421" on="0"/>
        <pt x="374" y="421" on="1"/>
        <pt x="428" y="421" on="0"/>
        <pt x="482" y="372" on="0"/>
        <pt x="482" y="331" on="1"/>
        <pt x="482" y="320" on="0"/>
        <pt x="480" y="302" on="0"/>
        <pt x="478" y="294" on="1"/>
        <pt x="466" y="240" on="1"/>
        <pt x="458" y="204" on="0"/>
        <pt x="493" y="170" on="0"/>
        <pt x="525" y="170" on="1"/>
        <pt x="555" y="170" on="0"/>
        <pt x="597" y="205" on="0"/>
        <pt x="624" y="258" on="0"/>
        <pt x="637" y="317" on="0"/>
        <pt x="637" y="341" on="1"/>
        <pt x="637" y="395" on="0"/>
        <pt x="598" y="480" on="0"/>
        <pt x="530" y="539" on="0"/>
        <pt x="441" y="571" on="0"/>
        <pt x="390" y="571" on="1"/>
        <pt x="329" y="571" on="0"/>
        <pt x="223" y="522" on="0"/>
        <pt x="144" y="439" on="0"/>
        <pt x="99" y="330" on="0"/>
        <pt x="99" y="270" on="1"/>
        <pt x="99" y="211" on="0"/>
        <pt x="143" y="118" on="0"/>
        <pt x="218" y="53" on="0"/>
        <pt x="318" y="19" on="0"/>
        <pt x="373" y="19" on="1"/>
        <pt x="423" y="19" on="0"/>
        <pt x="473" y="30" on="1"/>
        <pt x="477" y="4" on="1"/>
        <pt x="450" y="-1" on="0"/>
        <pt x="397" y="-8" on="0"/>
        <pt x="369" y="-8" on="1"/>
        <pt x="309" y="-8" on="0"/>
        <pt x="200" y="32" on="0"/>
        <pt x="118" y="104" on="0"/>
        <pt x="69" y="207" on="0"/>
        <pt x="69" y="270" on="1"/>
        <pt x="69" y="336" on="0"/>
        <pt x="120" y="455" on="0"/>
        <pt x="208" y="545" on="0"/>
        <pt x="325" y="598" on="0"/>
        <pt x="391" y="598" on="1"/>
        <pt x="447" y="598" on="0"/>
        <pt x="548" y="562" on="0"/>
        <pt x="624" y="494" on="0"/>
        <pt x="668" y="399" on="0"/>
      </contour>
      <contour>
        <pt x="440" y="252" on="1"/>
        <pt x="423" y="269" on="0"/>
        <pt x="372" y="289" on="0"/>
        <pt x="348" y="289" on="1"/>
        <pt x="320" y="289" on="0"/>
        <pt x="282" y="259" on="0"/>
        <pt x="282" y="230" on="1"/>
        <pt x="282" y="201" on="0"/>
        <pt x="322" y="176" on="0"/>
        <pt x="347" y="176" on="1"/>
        <pt x="393" y="176" on="0"/>
        <pt x="433" y="218" on="1"/>
      </contour>
    </TTGlyph>
    <TTGlyph name="at.cap" xMin="94" yMin="-8" xMax="846" yMax="742">
      <contour>
        <pt x="602" y="5" on="1"/>
        <pt x="570" y="-1" on="0"/>
        <pt x="506" y="-8" on="0"/>
        <pt x="474" y="-8" on="1"/>
        <pt x="398" y="-8" on="0"/>
        <pt x="261" y="38" on="0"/>
        <pt x="156" y="125" on="0"/>
        <pt x="94" y="250" on="0"/>
        <pt x="94" y="330" on="1"/>
        <pt x="94" y="411" on="0"/>
        <pt x="154" y="560" on="0"/>
        <pt x="261" y="674" on="0"/>
        <pt x="409" y="742" on="0"/>
        <pt x="498" y="742" on="1"/>
        <pt x="570" y="742" on="0"/>
        <pt x="696" y="698" on="0"/>
        <pt x="791" y="615" on="0"/>
        <pt x="846" y="497" on="0"/>
        <pt x="846" y="423" on="1"/>
        <pt x="846" y="379" on="0"/>
        <pt x="821" y="295" on="0"/>
        <pt x="774" y="229" on="0"/>
        <pt x="707" y="188" on="0"/>
        <pt x="665" y="188" on="1"/>
        <pt x="630" y="188" on="0"/>
        <pt x="574" y="221" on="0"/>
        <pt x="566" y="251" on="1"/>
        <pt x="539" y="220" on="0"/>
        <pt x="470" y="191" on="0"/>
        <pt x="436" y="191" on="1"/>
        <pt x="413" y="191" on="0"/>
        <pt x="373" y="203" on="0"/>
        <pt x="341" y="227" on="0"/>
        <pt x="323" y="263" on="0"/>
        <pt x="323" y="286" on="1"/>
        <pt x="323" y="310" on="0"/>
        <pt x="342" y="348" on="0"/>
        <pt x="375" y="375" on="0"/>
        <pt x="419" y="390" on="0"/>
        <pt x="443" y="390" on="1"/>
        <pt x="478" y="390" on="0"/>
        <pt x="542" y="363" on="0"/>
        <pt x="569" y="341" on="1"/>
        <pt x="573" y="359" on="0"/>
        <pt x="577" y="382" on="0"/>
        <pt x="579" y="397" on="0"/>
        <pt x="580" y="406" on="0"/>
        <pt x="580" y="411" on="1"/>
        <pt x="580" y="446" on="0"/>
        <pt x="526" y="495" on="0"/>
        <pt x="469" y="495" on="1"/>
        <pt x="452" y="495" on="0"/>
        <pt x="417" y="490" on="0"/>
        <pt x="400" y="485" on="1"/>
        <pt x="402" y="514" on="1"/>
        <pt x="441" y="525" on="0"/>
        <pt x="478" y="525" on="1"/>
        <pt x="505" y="525" on="0"/>
        <pt x="554" y="512" on="0"/>
        <pt x="590" y="486" on="0"/>
        <pt x="612" y="446" on="0"/>
        <pt x="612" y="419" on="1"/>
        <pt x="612" y="413" on="0"/>
        <pt x="610" y="394" on="0"/>
        <pt x="608" y="383" on="1"/>
        <pt x="592" y="303" on="1"/>
        <pt x="587" y="281" on="0"/>
        <pt x="597" y="248" on="0"/>
        <pt x="619" y="227" on="0"/>
        <pt x="651" y="216" on="0"/>
        <pt x="668" y="216" on="1"/>
        <pt x="705" y="216" on="0"/>
        <pt x="760" y="257" on="0"/>
        <pt x="796" y="320" on="0"/>
        <pt x="814" y="392" on="0"/>
        <pt x="814" y="424" on="1"/>
        <pt x="814" y="492" on="0"/>
        <pt x="764" y="600" on="0"/>
        <pt x="677" y="675" on="0"/>
        <pt x="562" y="715" on="0"/>
        <pt x="496" y="715" on="1"/>
        <pt x="418" y="715" on="0"/>
        <pt x="283" y="651" on="0"/>
        <pt x="183" y="544" on="0"/>
        <pt x="126" y="405" on="0"/>
        <pt x="126" y="329" on="1"/>
        <pt x="126" y="254" on="0"/>
        <pt x="183" y="139" on="0"/>
        <pt x="280" y="61" on="0"/>
        <pt x="408" y="20" on="0"/>
        <pt x="478" y="20" on="1"/>
        <pt x="509" y="20" on="0"/>
        <pt x="569" y="27" on="0"/>
        <pt x="599" y="32" on="1"/>
      </contour>
      <contour>
        <pt x="563" y="311" on="1"/>
        <pt x="540" y="332" on="0"/>
        <pt x="475" y="362" on="0"/>
        <pt x="444" y="362" on="1"/>
        <pt x="411" y="362" on="0"/>
        <pt x="356" y="324" on="0"/>
        <pt x="356" y="288" on="1"/>
        <pt x="356" y="254" on="0"/>
        <pt x="407" y="219" on="0"/>
        <pt x="441" y="219" on="1"/>
        <pt x="473" y="219" on="0"/>
        <pt x="531" y="246" on="0"/>
        <pt x="556" y="275" on="1"/>
      </contour>
    </TTGlyph>
    <TTGlyph name="atilde" xMin="26" yMin="-8" xMax="431" yMax="585">
      <component glyphName="a" x="0" y="0" flags="0x204"/>
      <component glyphName="tilde" x="-14" y="0" flags="0x4"/>
    </TTGlyph>
    <TTGlyph name="b" xMin="28" yMin="-8" xMax="429" yMax="733">
      <contour>
        <pt x="429" y="248" on="1"/>
        <pt x="429" y="201" on="0"/>
        <pt x="395" y="109" on="0"/>
        <pt x="333" y="37" on="0"/>
        <pt x="249" y="-8" on="0"/>
        <pt x="198" y="-8" on="1"/>
        <pt x="156" y="-8" on="0"/>
        <pt x="90" y="25" on="0"/>
        <pt x="71" y="48" on="1"/>
        <pt x="61" y="0" on="1"/>
        <pt x="28" y="0" on="1"/>
        <pt x="171" y="733" on="1"/>
        <pt x="205" y="733" on="1"/>
        <pt x="134" y="373" on="1"/>
        <pt x="160" y="395" on="0"/>
        <pt x="230" y="423" on="0"/>
        <pt x="269" y="423" on="1"/>
        <pt x="302" y="423" on="0"/>
        <pt x="361" y="398" on="0"/>
        <pt x="404" y="353" on="0"/>
        <pt x="429" y="288" on="0"/>
      </contour>
      <contour>
        <pt x="396" y="241" on="1"/>
        <pt x="396" y="312" on="0"/>
        <pt x="324" y="394" on="0"/>
        <pt x="266" y="394" on="1"/>
        <pt x="230" y="394" on="0"/>
        <pt x="157" y="362" on="0"/>
        <pt x="128" y="335" on="1"/>
        <pt x="78" y="83" on="1"/>
        <pt x="97" y="58" on="0"/>
        <pt x="159" y="21" on="0"/>
        <pt x="200" y="21" on="1"/>
        <pt x="242" y="21" on="0"/>
        <pt x="314" y="60" on="0"/>
        <pt x="367" y="123" on="0"/>
        <pt x="396" y="201" on="0"/>
      </contour>
    </TTGlyph>
    <TTGlyph name="backslash" xMin="123" yMin="-216" xMax="257" yMax="733">
      <contour>
        <pt x="225" y="-216" on="1"/>
        <pt x="123" y="733" on="1"/>
        <pt x="154" y="733" on="1"/>
        <pt x="257" y="-216" on="1"/>
      </contour>
    </TTGlyph>
    <TTGlyph name="backslash.cap" xMin="116" yMin="-110" xMax="250" yMax="839">
      <component glyphName="backslash" x="-7" y="106" flags="0x204"/>
    </TTGlyph>
    <TTGlyph name="bar" xMin="9" yMin="-216" xMax="224" yMax="733">
      <contour>
        <pt x="9" y="-216" on="1"/>
        <pt x="193" y="733" on="1"/>
        <pt x="224" y="733" on="1"/>
        <pt x="39" y="-216" on="1"/>
      </contour>
    </TTGlyph>
    <TTGlyph name="bar.cap" xMin="30" yMin="-110" xMax="245" yMax="839">
      <component glyphName="bar" x="21" y="106" flags="0x204"/>
    </TTGlyph>
    <TTGlyph name="braceleft" xMin="22" yMin="-223" xMax="382" yMax="740">
      <contour>
        <pt x="376" y="711" on="1"/>
        <pt x="375" y="711" on="1"/>
        <pt x="307" y="711" on="0"/>
        <pt x="227" y="642" on="0"/>
        <pt x="213" y="567" on="1"/>
        <pt x="174" y="361" on="1"/>
        <pt x="166" y="317" on="0"/>
        <pt x="130" y="267" on="0"/>
        <pt x="92" y="259" on="1"/>
        <pt x="117" y="252" on="0"/>
        <pt x="138" y="219" on="0"/>
        <pt x="138" y="195" on="1"/>
        <pt x="138" y="179" on="0"/>
        <pt x="133" y="154" on="1"/>
        <pt x="94" y="-47" on="1"/>
        <pt x="91" y="-61" on="0"/>
        <pt x="88" y="-90" on="0"/>
        <pt x="88" y="-101" on="1"/>
        <pt x="88" y="-150" on="0"/>
        <pt x="143" y="-194" on="0"/>
        <pt x="199" y="-194" on="1"/>
        <pt x="194" y="-223" on="1"/>
        <pt x="54" y="-223" on="0"/>
        <pt x="54" y="-104" on="1"/>
        <pt x="54" y="-91" on="0"/>
        <pt x="58" y="-58" on="0"/>
        <pt x="61" y="-43" on="1"/>
        <pt x="102" y="168" on="1"/>
        <pt x="104" y="176" on="0"/>
        <pt x="106" y="191" on="0"/>
        <pt x="106" y="198" on="1"/>
        <pt x="106" y="221" on="0"/>
        <pt x="79" y="244" on="0"/>
        <pt x="45" y="244" on="1"/>
        <pt x="22" y="244" on="1"/>
        <pt x="28" y="275" on="1"/>
        <pt x="48" y="275" on="1"/>
        <pt x="93" y="275" on="0"/>
        <pt x="132" y="320" on="0"/>
        <pt x="140" y="358" on="1"/>
        <pt x="180" y="571" on="1"/>
        <pt x="197" y="657" on="0"/>
        <pt x="293" y="740" on="0"/>
        <pt x="381" y="740" on="1"/>
        <pt x="382" y="740" on="1"/>
      </contour>
    </TTGlyph>
    <TTGlyph name="braceleft.cap" xMin="42" yMin="-117" xMax="402" yMax="846">
      <component glyphName="braceleft" x="20" y="106" flags="0x204"/>
    </TTGlyph>
    <TTGlyph name="braceright" xMin="-67" yMin="-221" xMax="293" yMax="742">
      <contour>
        <pt x="-61" y="-192" on="1"/>
        <pt x="-60" y="-192" on="1"/>
        <pt x="8" y="-192" on="0"/>
        <pt x="88" y="-123" on="0"/>
        <pt x="102" y="-48" on="1"/>
        <pt x="141" y="158" on="1"/>
        <pt x="149" y="202" on="0"/>
        <pt x="185" y="252" on="0"/>
        <pt x="223" y="260" on="1"/>
        <pt x="198" y="267" on="0"/>
        <pt x="177" y="300" on="0"/>
        <pt x="177" y="324" on="1"/>
        <pt x="177" y="340" on="0"/>
        <pt x="182" y="365" on="1"/>
        <pt x="221" y="566" on="1"/>
        <pt x="224" y="580" on="0"/>
        <pt x="227" y="609" on="0"/>
        <pt x="227" y="620" on="1"/>
        <pt x="227" y="669" on="0"/>
        <pt x="172" y="713" on="0"/>
        <pt x="116" y="713" on="1"/>
        <pt x="121" y="742" on="1"/>
        <pt x="261" y="742" on="0"/>
        <pt x="261" y="623" on="1"/>
        <pt x="261" y="610" on="0"/>
        <pt x="257" y="577" on="0"/>
        <pt x="254" y="562" on="1"/>
        <pt x="213" y="351" on="1"/>
        <pt x="211" y="343" on="0"/>
        <pt x="209" y="328" on="0"/>
        <pt x="209" y="321" on="1"/>
        <pt x="209" y="298" on="0"/>
        <pt x="236" y="275" on="0"/>
        <pt x="270" y="275" on="1"/>
        <pt x="293" y="275" on="1"/>
        <pt x="287" y="244" on="1"/>
        <pt x="267" y="244" on="1"/>
        <pt x="222" y="244" on="0"/>
        <pt x="183" y="199" on="0"/>
        <pt x="175" y="161" on="1"/>
        <pt x="135" y="-52" on="1"/>
        <pt x="118" y="-138" on="0"/>
        <pt x="22" y="-221" on="0"/>
        <pt x="-66" y="-221" on="1"/>
        <pt x="-67" y="-221" on="1"/>
      </contour>
    </TTGlyph>
    <TTGlyph name="braceright.cap" xMin="-47" yMin="-117" xMax="313" yMax="846">
      <component glyphName="braceright" x="20" y="104" flags="0x204"/>
    </TTGlyph>
    <TTGlyph name="bracketleft" xMin="-2" yMin="-216" xMax="371" yMax="733">
      <contour>
        <pt x="366" y="704" on="1"/>
        <pt x="210" y="704" on="1"/>
        <pt x="37" y="-187" on="1"/>
        <pt x="193" y="-187" on="1"/>
        <pt x="187" y="-216" on="1"/>
        <pt x="-2" y="-216" on="1"/>
        <pt x="182" y="733" on="1"/>
        <pt x="371" y="733" on="1"/>
      </contour>
    </TTGlyph>
    <TTGlyph name="bracketleft.cap" xMin="17" yMin="-110" xMax="390" yMax="839">
      <component glyphName="bracketleft" x="19" y="106" flags="0x204"/>
    </TTGlyph>
    <TTGlyph name="bracketright" xMin="-57" yMin="-216" xMax="317" yMax="733">
      <contour>
        <pt x="133" y="-216" on="1"/>
        <pt x="-57" y="-216" on="1"/>
        <pt x="-51" y="-187" on="1"/>
        <pt x="106" y="-187" on="1"/>
        <pt x="279" y="704" on="1"/>
        <pt x="122" y="704" on="1"/>
        <pt x="127" y="733" on="1"/>
        <pt x="317" y="733" on="1"/>
      </contour>
    </TTGlyph>
    <TTGlyph name="bracketright.cap" xMin="-37" yMin="-110" xMax="337" yMax="839">
      <component glyphName="bracketright" x="20" y="106" flags="0x204"/>
    </TTGlyph>
    <TTGlyph name="breve" xMin="173" yMin="481" xMax="418" yMax="605">
      <contour>
        <pt x="418" y="601" on="1"/>
        <pt x="407" y="550" on="0"/>
        <pt x="339" y="481" on="0"/>
        <pt x="285" y="481" on="1"/>
        <pt x="233" y="481" on="0"/>
        <pt x="173" y="534" on="0"/>
        <pt x="173" y="576" on="1"/>
        <pt x="173" y="584" on="0"/>
        <pt x="173" y="594" on="0"/>
        <pt x="175" y="601" on="1"/>
        <pt x="203" y="605" on="1"/>
        <pt x="202" y="600" on="0"/>
        <pt x="201" y="590" on="0"/>
        <pt x="201" y="584" on="1"/>
        <pt x="201" y="564" on="0"/>
        <pt x="215" y="535" on="0"/>
        <pt x="239" y="517" on="0"/>
        <pt x="270" y="509" on="0"/>
        <pt x="286" y="509" on="1"/>
        <pt x="328" y="509" on="0"/>
        <pt x="381" y="563" on="0"/>
        <pt x="390" y="605" on="1"/>
      </contour>
    </TTGlyph>
    <TTGlyph name="bullet" xMin="99" yMin="267" xMax="291" yMax="465">
      <contour>
        <pt x="291" y="366" on="1"/>
        <pt x="291" y="325" on="0"/>
        <pt x="236" y="267" on="0"/>
        <pt x="195" y="267" on="1"/>
        <pt x="154" y="267" on="0"/>
        <pt x="99" y="325" on="0"/>
        <pt x="99" y="366" on="1"/>
        <pt x="99" y="407" on="0"/>
        <pt x="154" y="465" on="0"/>
        <pt x="195" y="465" on="1"/>
        <pt x="236" y="465" on="0"/>
        <pt x="291" y="407" on="0"/>
      </contour>
    </TTGlyph>
    <TTGlyph name="c" xMin="39" yMin="-8" xMax="411" yMax="423">
      <contour>
        <pt x="391" y="343" on="1"/>
        <pt x="368" y="365" on="0"/>
        <pt x="305" y="394" on="0"/>
        <pt x="265" y="394" on="1"/>
        <pt x="223" y="394" on="0"/>
        <pt x="152" y="360" on="0"/>
        <pt x="101" y="301" on="0"/>
        <pt x="73" y="225" on="0"/>
        <pt x="73" y="183" on="1"/>
        <pt x="73" y="146" on="0"/>
        <pt x="96" y="86" on="0"/>
        <pt x="137" y="44" on="0"/>
        <pt x="194" y="21" on="0"/>
        <pt x="228" y="21" on="1"/>
        <pt x="257" y="21" on="0"/>
        <pt x="309" y="35" on="0"/>
        <pt x="332" y="46" on="1"/>
        <pt x="342" y="19" on="1"/>
        <pt x="317" y="7" on="0"/>
        <pt x="261" y="-8" on="0"/>
        <pt x="227" y="-8" on="1"/>
        <pt x="182" y="-8" on="0"/>
        <pt x="112" y="22" on="0"/>
        <pt x="64" y="73" on="0"/>
        <pt x="39" y="143" on="0"/>
        <pt x="39" y="182" on="1"/>
        <pt x="39" y="227" on="0"/>
        <pt x="72" y="314" on="0"/>
        <pt x="132" y="382" on="0"/>
        <pt x="217" y="423" on="0"/>
        <pt x="269" y="423" on="1"/>
        <pt x="314" y="423" on="0"/>
        <pt x="386" y="392" on="0"/>
        <pt x="411" y="368" on="1"/>
      </contour>
    </TTGlyph>
    <TTGlyph name="cacute" xMin="39" yMin="-8" xMax="462" yMax="623">
      <component glyphName="c" x="0" y="0" flags="0x204"/>
      <component glyphName="acute" x="80" y="0" flags="0x4"/>
    </TTGlyph>
    <TTGlyph name="caron" xMin="171" yMin="484" xMax="421" yMax="621">
      <contour>
        <pt x="286" y="484" on="1"/>
        <pt x="256" y="484" on="1"/>
        <pt x="171" y="621" on="1"/>
        <pt x="206" y="621" on="1"/>
        <pt x="275" y="511" on="1"/>
        <pt x="383" y="621" on="1"/>
        <pt x="421" y="621" on="1"/>
      </contour>
    </TTGlyph>
    <TTGlyph name="caron.alt" xMin="43" yMin="553" xMax="179" yMax="736">
      <contour>
        <pt x="179" y="732" on="1"/>
        <pt x="167" y="672" on="0"/>
        <pt x="104" y="582" on="0"/>
        <pt x="56" y="553" on="1"/>
        <pt x="43" y="568" on="1"/>
        <pt x="83" y="598" on="0"/>
        <pt x="133" y="680" on="0"/>
        <pt x="144" y="736" on="1"/>
      </contour>
    </TTGlyph>
    <TTGlyph name="ccaron" xMin="39" yMin="-8" xMax="435" yMax="621">
      <component glyphName="c" x="0" y="0" flags="0x204"/>
      <component glyphName="caron" x="14" y="0" flags="0x4"/>
    </TTGlyph>
    <TTGlyph name="ccedilla" xMin="39" yMin="-237" xMax="411" yMax="423">
      <contour>
        <pt x="270" y="-146" on="1"/>
        <pt x="270" y="-166" on="0"/>
        <pt x="252" y="-199" on="0"/>
        <pt x="221" y="-223" on="0"/>
        <pt x="178" y="-237" on="0"/>
        <pt x="153" y="-237" on="1"/>
        <pt x="130" y="-237" on="0"/>
        <pt x="77" y="-220" on="0"/>
        <pt x="52" y="-203" on="1"/>
        <pt x="70" y="-177" on="1"/>
        <pt x="90" y="-191" on="0"/>
        <pt x="133" y="-208" on="0"/>
        <pt x="153" y="-208" on="1"/>
        <pt x="188" y="-208" on="0"/>
        <pt x="235" y="-178" on="0"/>
        <pt x="235" y="-148" on="1"/>
        <pt x="235" y="-127" on="0"/>
        <pt x="193" y="-90" on="0"/>
        <pt x="139" y="-82" on="1"/>
        <pt x="138" y="-78" on="1"/>
        <pt x="173" y="-1" on="1"/>
        <pt x="108" y="15" on="0"/>
        <pt x="39" y="116" on="0"/>
        <pt x="39" y="182" on="1"/>
        <pt x="39" y="227" on="0"/>
        <pt x="72" y="314" on="0"/>
        <pt x="132" y="382" on="0"/>
        <pt x="217" y="423" on="0"/>
        <pt x="269" y="423" on="1"/>
        <pt x="314" y="423" on="0"/>
        <pt x="386" y="392" on="0"/>
        <pt x="411" y="368" on="1"/>
        <pt x="391" y="343" on="1"/>
        <pt x="368" y="365" on="0"/>
        <pt x="305" y="394" on="0"/>
        <pt x="265" y="394" on="1"/>
        <pt x="223" y="394" on="0"/>
        <pt x="152" y="360" on="0"/>
        <pt x="101" y="301" on="0"/>
        <pt x="73" y="225" on="0"/>
        <pt x="73" y="183" on="1"/>
        <pt x="73" y="146" on="0"/>
        <pt x="96" y="86" on="0"/>
        <pt x="137" y="44" on="0"/>
        <pt x="194" y="21" on="0"/>
        <pt x="228" y="21" on="1"/>
        <pt x="257" y="21" on="0"/>
        <pt x="309" y="35" on="0"/>
        <pt x="332" y="46" on="1"/>
        <pt x="342" y="19" on="1"/>
        <pt x="317" y="7" on="0"/>
        <pt x="261" y="-8" on="0"/>
        <pt x="227" y="-8" on="1"/>
        <pt x="221" y="-8" on="0"/>
        <pt x="210" y="-7" on="0"/>
        <pt x="205" y="-7" on="1"/>
        <pt x="178" y="-64" on="1"/>
        <pt x="220" y="-74" on="0"/>
        <pt x="270" y="-112" on="0"/>
      </contour>
    </TTGlyph>
    <TTGlyph name="cdotaccent" xMin="39" yMin="-8" xMax="411" yMax="576">
      <component glyphName="c" x="0" y="0" flags="0x204"/>
      <component glyphName="dotaccent" x="10" y="0" flags="0x4"/>
    </TTGlyph>
    <TTGlyph name="cedilla" xMin="37" yMin="-237" xMax="255" yMax="14">
      <contour>
        <pt x="255" y="-146" on="1"/>
        <pt x="255" y="-166" on="0"/>
        <pt x="237" y="-199" on="0"/>
        <pt x="206" y="-223" on="0"/>
        <pt x="163" y="-237" on="0"/>
        <pt x="138" y="-237" on="1"/>
        <pt x="115" y="-237" on="0"/>
        <pt x="62" y="-220" on="0"/>
        <pt x="37" y="-203" on="1"/>
        <pt x="55" y="-177" on="1"/>
        <pt x="75" y="-191" on="0"/>
        <pt x="118" y="-208" on="0"/>
        <pt x="138" y="-208" on="1"/>
        <pt x="173" y="-208" on="0"/>
        <pt x="220" y="-178" on="0"/>
        <pt x="220" y="-148" on="1"/>
        <pt x="220" y="-127" on="0"/>
        <pt x="178" y="-90" on="0"/>
        <pt x="124" y="-82" on="1"/>
        <pt x="123" y="-78" on="1"/>
        <pt x="166" y="14" on="1"/>
        <pt x="197" y="8" on="1"/>
        <pt x="163" y="-64" on="1"/>
        <pt x="205" y="-74" on="0"/>
        <pt x="255" y="-112" on="0"/>
      </contour>
    </TTGlyph>
    <TTGlyph name="cent" xMin="42" yMin="-87" xMax="420" yMax="495">
      <contour>
        <pt x="315" y="419" on="1"/>
        <pt x="377" y="407" on="0"/>
        <pt x="420" y="367" on="1"/>
        <pt x="398" y="342" on="1"/>
        <pt x="380" y="359" on="0"/>
        <pt x="334" y="385" on="0"/>
        <pt x="307" y="390" on="1"/>
        <pt x="204" y="23" on="1"/>
        <pt x="210" y="21" on="0"/>
        <pt x="226" y="21" on="0"/>
        <pt x="234" y="21" on="1"/>
        <pt x="263" y="21" on="0"/>
        <pt x="316" y="36" on="0"/>
        <pt x="339" y="47" on="1"/>
        <pt x="351" y="20" on="1"/>
        <pt x="326" y="8" on="0"/>
        <pt x="268" y="-8" on="0"/>
        <pt x="230" y="-8" on="1"/>
        <pt x="212" y="-8" on="0"/>
        <pt x="196" y="-5" on="1"/>
        <pt x="173" y="-87" on="1"/>
        <pt x="145" y="-81" on="1"/>
        <pt x="168" y="1" on="1"/>
        <pt x="112" y="18" on="0"/>
        <pt x="42" y="111" on="0"/>
        <pt x="42" y="182" on="1"/>
        <pt x="42" y="227" on="0"/>
        <pt x="75" y="314" on="0"/>
        <pt x="137" y="382" on="0"/>
        <pt x="222" y="423" on="0"/>
        <pt x="275" y="423" on="1"/>
        <pt x="286" y="423" on="1"/>
        <pt x="307" y="495" on="1"/>
        <pt x="335" y="489" on="1"/>
      </contour>
      <contour>
        <pt x="76" y="183" on="1"/>
        <pt x="76" y="126" on="0"/>
        <pt x="128" y="46" on="0"/>
        <pt x="176" y="30" on="1"/>
        <pt x="278" y="394" on="1"/>
        <pt x="271" y="394" on="1"/>
        <pt x="228" y="394" on="0"/>
        <pt x="157" y="360" on="0"/>
        <pt x="105" y="301" on="0"/>
        <pt x="76" y="225" on="0"/>
      </contour>
    </TTGlyph>
    <TTGlyph name="cent.lin" xMin="79" yMin="80" xMax="457" yMax="662">
      <component glyphName="cent" x="37" y="167" flags="0x204"/>
    </TTGlyph>
    <TTGlyph name="circumflex" xMin="153" yMin="485" xMax="403" yMax="622">
      <contour>
        <pt x="368" y="485" on="1"/>
        <pt x="299" y="595" on="1"/>
        <pt x="191" y="485" on="1"/>
        <pt x="153" y="485" on="1"/>
        <pt x="288" y="622" on="1"/>
        <pt x="318" y="622" on="1"/>
        <pt x="403" y="485" on="1"/>
      </contour>
    </TTGlyph>
    <TTGlyph name="colon" xMin="2" yMin="-8" xMax="131" yMax="363">
      <contour>
        <pt x="131" y="327" on="1"/>
        <pt x="131" y="312" on="0"/>
        <pt x="110" y="292" on="0"/>
        <pt x="95" y="292" on="1"/>
        <pt x="80" y="292" on="0"/>
        <pt x="59" y="312" on="0"/>
        <pt x="59" y="327" on="1"/>
        <pt x="59" y="342" on="0"/>
        <pt x="80" y="363" on="0"/>
        <pt x="95" y="363" on="1"/>
        <pt x="110" y="363" on="0"/>
        <pt x="131" y="342" on="0"/>
      </contour>
      <contour>
        <pt x="74" y="27" on="1"/>
        <pt x="74" y="12" on="0"/>
        <pt x="53" y="-8" on="0"/>
        <pt x="38" y="-8" on="1"/>
        <pt x="23" y="-8" on="0"/>
        <pt x="2" y="12" on="0"/>
        <pt x="2" y="27" on="1"/>
        <pt x="2" y="42" on="0"/>
        <pt x="23" y="63" on="0"/>
        <pt x="38" y="63" on="1"/>
        <pt x="53" y="63" on="0"/>
        <pt x="74" y="42" on="0"/>
      </contour>
    </TTGlyph>
    <TTGlyph name="comma" xMin="-35" yMin="-100" xMax="74" yMax="63">
      <contour>
        <pt x="74" y="20" on="1"/>
        <pt x="74" y="-3" on="0"/>
        <pt x="51" y="-42" on="0"/>
        <pt x="19" y="-73" on="0"/>
        <pt x="-16" y="-95" on="0"/>
        <pt x="-28" y="-100" on="1"/>
        <pt x="-35" y="-90" on="1"/>
        <pt x="-12" y="-73" on="0"/>
        <pt x="31" y="-32" on="0"/>
        <pt x="42" y="-6" on="1"/>
        <pt x="27" y="-5" on="0"/>
        <pt x="3" y="13" on="0"/>
        <pt x="3" y="30" on="1"/>
        <pt x="3" y="44" on="0"/>
        <pt x="23" y="63" on="0"/>
        <pt x="36" y="63" on="1"/>
        <pt x="46" y="63" on="0"/>
        <pt x="74" y="43" on="0"/>
      </contour>
    </TTGlyph>
    <TTGlyph name="commaaccent" xMin="39" yMin="-236" xMax="148" yMax="-73">
      <contour>
        <pt x="148" y="-116" on="1"/>
        <pt x="148" y="-139" on="0"/>
        <pt x="125" y="-178" on="0"/>
        <pt x="93" y="-209" on="0"/>
        <pt x="58" y="-231" on="0"/>
        <pt x="46" y="-236" on="1"/>
        <pt x="39" y="-226" on="1"/>
        <pt x="62" y="-209" on="0"/>
        <pt x="105" y="-168" on="0"/>
        <pt x="116" y="-142" on="1"/>
        <pt x="101" y="-141" on="0"/>
        <pt x="77" y="-123" on="0"/>
        <pt x="77" y="-106" on="1"/>
        <pt x="77" y="-92" on="0"/>
        <pt x="97" y="-73" on="0"/>
        <pt x="110" y="-73" on="1"/>
        <pt x="120" y="-73" on="0"/>
        <pt x="148" y="-93" on="0"/>
      </contour>
    </TTGlyph>
    <TTGlyph name="copyright" xMin="91" yMin="-12" xMax="829" yMax="745">
      <contour>
        <pt x="575" y="223" on="1"/>
        <pt x="547" y="206" on="0"/>
        <pt x="477" y="181" on="0"/>
        <pt x="436" y="181" on="1"/>
        <pt x="401" y="181" on="0"/>
        <pt x="343" y="204" on="0"/>
        <pt x="301" y="246" on="0"/>
        <pt x="279" y="307" on="0"/>
        <pt x="279" y="346" on="1"/>
        <pt x="279" y="390" on="0"/>
        <pt x="315" y="467" on="0"/>
        <pt x="377" y="525" on="0"/>
        <pt x="458" y="558" on="0"/>
        <pt x="505" y="558" on="1"/>
        <pt x="546" y="558" on="0"/>
        <pt x="608" y="535" on="0"/>
        <pt x="631" y="516" on="1"/>
        <pt x="614" y="492" on="1"/>
        <pt x="592" y="509" on="0"/>
        <pt x="539" y="530" on="0"/>
        <pt x="504" y="530" on="1"/>
        <pt x="463" y="530" on="0"/>
        <pt x="393" y="502" on="0"/>
        <pt x="341" y="453" on="0"/>
        <pt x="311" y="387" on="0"/>
        <pt x="311" y="348" on="1"/>
        <pt x="311" y="281" on="0"/>
        <pt x="382" y="210" on="0"/>
        <pt x="442" y="210" on="1"/>
        <pt x="477" y="210" on="0"/>
        <pt x="538" y="232" on="0"/>
        <pt x="564" y="249" on="1"/>
      </contour>
      <contour>
        <pt x="800" y="414" on="1"/>
        <pt x="800" y="481" on="0"/>
        <pt x="754" y="593" on="0"/>
        <pt x="673" y="674" on="0"/>
        <pt x="562" y="719" on="0"/>
        <pt x="498" y="719" on="1"/>
        <pt x="416" y="719" on="0"/>
        <pt x="277" y="655" on="0"/>
        <pt x="177" y="546" on="0"/>
        <pt x="120" y="401" on="0"/>
        <pt x="120" y="320" on="1"/>
        <pt x="120" y="253" on="0"/>
        <pt x="166" y="140" on="0"/>
        <pt x="247" y="59" on="0"/>
        <pt x="357" y="14" on="0"/>
        <pt x="422" y="14" on="1"/>
        <pt x="504" y="14" on="0"/>
        <pt x="642" y="79" on="0"/>
        <pt x="743" y="189" on="0"/>
        <pt x="800" y="334" on="0"/>
      </contour>
      <contour>
        <pt x="829" y="413" on="1"/>
        <pt x="829" y="330" on="0"/>
        <pt x="769" y="176" on="0"/>
        <pt x="661" y="58" on="0"/>
        <pt x="511" y="-12" on="0"/>
        <pt x="421" y="-12" on="1"/>
        <pt x="348" y="-12" on="0"/>
        <pt x="227" y="38" on="0"/>
        <pt x="140" y="127" on="0"/>
        <pt x="91" y="249" on="0"/>
        <pt x="91" y="321" on="1"/>
        <pt x="91" y="404" on="0"/>
        <pt x="151" y="558" on="0"/>
        <pt x="259" y="675" on="0"/>
        <pt x="409" y="745" on="0"/>
        <pt x="499" y="745" on="1"/>
        <pt x="572" y="745" on="0"/>
        <pt x="693" y="695" on="0"/>
        <pt x="780" y="606" on="0"/>
        <pt x="829" y="485" on="0"/>
      </contour>
    </TTGlyph>
    <TTGlyph name="d" xMin="43" yMin="-8" xMax="505" yMax="733">
      <contour>
        <pt x="363" y="0" on="1"/>
        <pt x="329" y="0" on="1"/>
        <pt x="338" y="42" on="1"/>
        <pt x="312" y="20" on="0"/>
        <pt x="242" y="-8" on="0"/>
        <pt x="203" y="-8" on="1"/>
        <pt x="170" y="-8" on="0"/>
        <pt x="111" y="17" on="0"/>
        <pt x="68" y="62" on="0"/>
        <pt x="43" y="127" on="0"/>
        <pt x="43" y="167" on="1"/>
        <pt x="43" y="214" on="0"/>
        <pt x="77" y="306" on="0"/>
        <pt x="139" y="378" on="0"/>
        <pt x="223" y="423" on="0"/>
        <pt x="274" y="423" on="1"/>
        <pt x="318" y="423" on="0"/>
        <pt x="383" y="390" on="0"/>
        <pt x="402" y="367" on="1"/>
        <pt x="472" y="733" on="1"/>
        <pt x="505" y="733" on="1"/>
      </contour>
      <contour>
        <pt x="394" y="332" on="1"/>
        <pt x="375" y="357" on="0"/>
        <pt x="313" y="394" on="0"/>
        <pt x="272" y="394" on="1"/>
        <pt x="230" y="394" on="0"/>
        <pt x="158" y="355" on="0"/>
        <pt x="105" y="292" on="0"/>
        <pt x="76" y="214" on="0"/>
        <pt x="76" y="174" on="1"/>
        <pt x="76" y="103" on="0"/>
        <pt x="148" y="21" on="0"/>
        <pt x="206" y="21" on="1"/>
        <pt x="242" y="21" on="0"/>
        <pt x="315" y="52" on="0"/>
        <pt x="344" y="79" on="1"/>
      </contour>
    </TTGlyph>
    <TTGlyph name="dagger" xMin="116" yMin="156" xMax="470" yMax="733">
      <contour>
        <pt x="465" y="512" on="1"/>
        <pt x="307" y="512" on="1"/>
        <pt x="237" y="156" on="1"/>
        <pt x="204" y="156" on="1"/>
        <pt x="274" y="512" on="1"/>
        <pt x="116" y="512" on="1"/>
        <pt x="121" y="541" on="1"/>
        <pt x="279" y="541" on="1"/>
        <pt x="316" y="733" on="1"/>
        <pt x="349" y="733" on="1"/>
        <pt x="312" y="541" on="1"/>
        <pt x="470" y="541" on="1"/>
      </contour>
    </TTGlyph>
    <TTGlyph name="daggerdbl" xMin="79" yMin="156" xMax="475" yMax="733">
      <contour>
        <pt x="470" y="538" on="1"/>
        <pt x="312" y="538" on="1"/>
        <pt x="275" y="351" on="1"/>
        <pt x="433" y="351" on="1"/>
        <pt x="428" y="322" on="1"/>
        <pt x="270" y="322" on="1"/>
        <pt x="237" y="156" on="1"/>
        <pt x="204" y="156" on="1"/>
        <pt x="237" y="322" on="1"/>
        <pt x="79" y="322" on="1"/>
        <pt x="84" y="351" on="1"/>
        <pt x="242" y="351" on="1"/>
        <pt x="279" y="538" on="1"/>
        <pt x="121" y="538" on="1"/>
        <pt x="126" y="567" on="1"/>
        <pt x="284" y="567" on="1"/>
        <pt x="316" y="733" on="1"/>
        <pt x="349" y="733" on="1"/>
        <pt x="317" y="567" on="1"/>
        <pt x="475" y="567" on="1"/>
      </contour>
    </TTGlyph>
    <TTGlyph name="dcaron" xMin="43" yMin="-8" xMax="641" yMax="734">
      <component glyphName="d" x="0" y="0" flags="0x204"/>
      <component glyphName="caron.alt" x="462" y="-2" flags="0x4"/>
    </TTGlyph>
    <TTGlyph name="dcroat" xMin="43" yMin="-8" xMax="541" yMax="733">
      <contour>
        <pt x="481" y="609" on="1"/>
        <pt x="541" y="609" on="1"/>
        <pt x="535" y="578" on="1"/>
        <pt x="475" y="578" on="1"/>
        <pt x="363" y="0" on="1"/>
        <pt x="329" y="0" on="1"/>
        <pt x="338" y="42" on="1"/>
        <pt x="312" y="20" on="0"/>
        <pt x="242" y="-8" on="0"/>
        <pt x="203" y="-8" on="1"/>
        <pt x="170" y="-8" on="0"/>
        <pt x="111" y="17" on="0"/>
        <pt x="68" y="62" on="0"/>
        <pt x="43" y="127" on="0"/>
        <pt x="43" y="167" on="1"/>
        <pt x="43" y="214" on="0"/>
        <pt x="77" y="306" on="0"/>
        <pt x="139" y="378" on="0"/>
        <pt x="223" y="423" on="0"/>
        <pt x="274" y="423" on="1"/>
        <pt x="318" y="423" on="0"/>
        <pt x="383" y="390" on="0"/>
        <pt x="402" y="367" on="1"/>
        <pt x="442" y="578" on="1"/>
        <pt x="296" y="578" on="1"/>
        <pt x="302" y="609" on="1"/>
        <pt x="448" y="609" on="1"/>
        <pt x="472" y="733" on="1"/>
        <pt x="505" y="733" on="1"/>
      </contour>
      <contour>
        <pt x="394" y="332" on="1"/>
        <pt x="375" y="357" on="0"/>
        <pt x="313" y="394" on="0"/>
        <pt x="272" y="394" on="1"/>
        <pt x="230" y="394" on="0"/>
        <pt x="158" y="355" on="0"/>
        <pt x="105" y="292" on="0"/>
        <pt x="76" y="214" on="0"/>
        <pt x="76" y="174" on="1"/>
        <pt x="76" y="103" on="0"/>
        <pt x="148" y="21" on="0"/>
        <pt x="206" y="21" on="1"/>
        <pt x="242" y="21" on="0"/>
        <pt x="315" y="52" on="0"/>
        <pt x="344" y="79" on="1"/>
      </contour>
    </TTGlyph>
    <TTGlyph name="degree" xMin="148" yMin="482" xMax="331" yMax="685">
      <contour>
        <pt x="331" y="598" on="1"/>
        <pt x="331" y="574" on="0"/>
        <pt x="315" y="532" on="0"/>
        <pt x="288" y="501" on="0"/>
        <pt x="250" y="482" on="0"/>
        <pt x="229" y="482" on="1"/>
        <pt x="193" y="482" on="0"/>
        <pt x="148" y="531" on="0"/>
        <pt x="148" y="569" on="1"/>
        <pt x="148" y="593" on="0"/>
        <pt x="164" y="635" on="0"/>
        <pt x="191" y="666" on="0"/>
        <pt x="228" y="685" on="0"/>
        <pt x="250" y="685" on="1"/>
        <pt x="286" y="685" on="0"/>
        <pt x="331" y="636" on="0"/>
      </contour>
      <contour>
        <pt x="303" y="596" on="1"/>
        <pt x="303" y="625" on="0"/>
        <pt x="274" y="661" on="0"/>
        <pt x="249" y="661" on="1"/>
        <pt x="217" y="661" on="0"/>
        <pt x="176" y="606" on="0"/>
        <pt x="176" y="569" on="1"/>
        <pt x="176" y="540" on="0"/>
        <pt x="204" y="506" on="0"/>
        <pt x="230" y="506" on="1"/>
        <pt x="261" y="506" on="0"/>
        <pt x="303" y="559" on="0"/>
      </contour>
    </TTGlyph>
    <TTGlyph name="degree.lin" xMin="152" yMin="479" xMax="389" yMax="742">
      <contour>
        <pt x="389" y="629" on="1"/>
        <pt x="389" y="599" on="0"/>
        <pt x="369" y="544" on="0"/>
        <pt x="333" y="503" on="0"/>
        <pt x="285" y="479" on="0"/>
        <pt x="257" y="479" on="1"/>
        <pt x="210" y="479" on="0"/>
        <pt x="152" y="542" on="0"/>
        <pt x="152" y="592" on="1"/>
        <pt x="152" y="622" on="0"/>
        <pt x="172" y="677" on="0"/>
        <pt x="208" y="718" on="0"/>
        <pt x="256" y="742" on="0"/>
        <pt x="284" y="742" on="1"/>
        <pt x="331" y="742" on="0"/>
        <pt x="389" y="679" on="0"/>
      </contour>
      <contour>
        <pt x="359" y="628" on="1"/>
        <pt x="359" y="666" on="0"/>
        <pt x="316" y="716" on="0"/>
        <pt x="281" y="716" on="1"/>
        <pt x="260" y="716" on="0"/>
        <pt x="223" y="696" on="0"/>
        <pt x="197" y="661" on="0"/>
        <pt x="182" y="616" on="0"/>
        <pt x="182" y="591" on="1"/>
        <pt x="182" y="552" on="0"/>
        <pt x="224" y="505" on="0"/>
        <pt x="260" y="505" on="1"/>
        <pt x="281" y="505" on="0"/>
        <pt x="317" y="524" on="0"/>
        <pt x="344" y="558" on="0"/>
        <pt x="359" y="602" on="0"/>
      </contour>
    </TTGlyph>
    <TTGlyph name="dieresis" xMin="168" yMin="507" xMax="404" yMax="576">
      <contour>
        <pt x="236" y="541" on="1"/>
        <pt x="236" y="527" on="0"/>
        <pt x="216" y="507" on="0"/>
        <pt x="202" y="507" on="1"/>
        <pt x="188" y="507" on="0"/>
        <pt x="168" y="527" on="0"/>
        <pt x="168" y="541" on="1"/>
        <pt x="168" y="555" on="0"/>
        <pt x="188" y="576" on="0"/>
        <pt x="202" y="576" on="1"/>
        <pt x="216" y="576" on="0"/>
        <pt x="236" y="555" on="0"/>
      </contour>
      <contour>
        <pt x="404" y="541" on="1"/>
        <pt x="404" y="527" on="0"/>
        <pt x="384" y="507" on="0"/>
        <pt x="370" y="507" on="1"/>
        <pt x="356" y="507" on="0"/>
        <pt x="336" y="527" on="0"/>
        <pt x="336" y="541" on="1"/>
        <pt x="336" y="555" on="0"/>
        <pt x="356" y="576" on="0"/>
        <pt x="370" y="576" on="1"/>
        <pt x="384" y="576" on="0"/>
        <pt x="404" y="555" on="0"/>
      </contour>
    </TTGlyph>
    <TTGlyph name="divide" xMin="71" yMin="91" xMax="416" yMax="457">
      <contour>
        <pt x="245" y="121" on="1"/>
        <pt x="245" y="109" on="0"/>
        <pt x="228" y="91" on="0"/>
        <pt x="215" y="91" on="1"/>
        <pt x="202" y="91" on="0"/>
        <pt x="185" y="109" on="0"/>
        <pt x="185" y="121" on="1"/>
        <pt x="185" y="134" on="0"/>
        <pt x="202" y="152" on="0"/>
        <pt x="215" y="152" on="1"/>
        <pt x="228" y="152" on="0"/>
        <pt x="245" y="134" on="0"/>
      </contour>
      <contour>
        <pt x="77" y="289" on="1"/>
        <pt x="416" y="289" on="1"/>
        <pt x="410" y="260" on="1"/>
        <pt x="71" y="260" on="1"/>
      </contour>
      <contour>
        <pt x="302" y="426" on="1"/>
        <pt x="302" y="414" on="0"/>
        <pt x="285" y="396" on="0"/>
        <pt x="272" y="396" on="1"/>
        <pt x="259" y="396" on="0"/>
        <pt x="242" y="414" on="0"/>
        <pt x="242" y="426" on="1"/>
        <pt x="242" y="439" on="0"/>
        <pt x="259" y="457" on="0"/>
        <pt x="272" y="457" on="1"/>
        <pt x="285" y="457" on="0"/>
        <pt x="302" y="439" on="0"/>
      </contour>
    </TTGlyph>
    <TTGlyph name="divide.lin" xMin="90" yMin="188" xMax="435" yMax="554">
      <component glyphName="divide" x="19" y="97" flags="0x204"/>
    </TTGlyph>
    <TTGlyph name="dollar" xMin="0" yMin="-69" xMax="415" yMax="640">
      <contour>
        <pt x="318" y="580" on="1"/>
        <pt x="347" y="574" on="0"/>
        <pt x="396" y="547" on="0"/>
        <pt x="415" y="531" on="1"/>
        <pt x="396" y="506" on="1"/>
        <pt x="354" y="541" on="0"/>
        <pt x="310" y="552" on="1"/>
        <pt x="241" y="303" on="1"/>
        <pt x="263" y="289" on="0"/>
        <pt x="304" y="259" on="0"/>
        <pt x="336" y="222" on="0"/>
        <pt x="355" y="178" on="0"/>
        <pt x="355" y="150" on="1"/>
        <pt x="355" y="113" on="0"/>
        <pt x="327" y="54" on="0"/>
        <pt x="279" y="14" on="0"/>
        <pt x="214" y="-8" on="0"/>
        <pt x="176" y="-8" on="1"/>
        <pt x="171" y="-8" on="0"/>
        <pt x="160" y="-7" on="0"/>
        <pt x="155" y="-7" on="1"/>
        <pt x="138" y="-69" on="1"/>
        <pt x="112" y="-64" on="1"/>
        <pt x="129" y="-3" on="1"/>
        <pt x="94" y="4" on="0"/>
        <pt x="29" y="37" on="0"/>
        <pt x="0" y="62" on="1"/>
        <pt x="18" y="87" on="1"/>
        <pt x="45" y="65" on="0"/>
        <pt x="103" y="31" on="0"/>
        <pt x="136" y="23" on="1"/>
        <pt x="209" y="288" on="1"/>
        <pt x="188" y="301" on="0"/>
        <pt x="149" y="331" on="0"/>
        <pt x="118" y="365" on="0"/>
        <pt x="100" y="406" on="0"/>
        <pt x="100" y="432" on="1"/>
        <pt x="100" y="466" on="0"/>
        <pt x="126" y="522" on="0"/>
        <pt x="172" y="562" on="0"/>
        <pt x="236" y="585" on="0"/>
        <pt x="274" y="585" on="1"/>
        <pt x="279" y="585" on="0"/>
        <pt x="287" y="585" on="0"/>
        <pt x="291" y="584" on="1"/>
        <pt x="307" y="640" on="1"/>
        <pt x="333" y="635" on="1"/>
      </contour>
      <contour>
        <pt x="323" y="150" on="1"/>
        <pt x="323" y="189" on="0"/>
        <pt x="273" y="245" on="0"/>
        <pt x="232" y="273" on="1"/>
        <pt x="162" y="19" on="1"/>
        <pt x="177" y="19" on="1"/>
        <pt x="207" y="19" on="0"/>
        <pt x="261" y="38" on="0"/>
        <pt x="300" y="72" on="0"/>
        <pt x="323" y="120" on="0"/>
      </contour>
      <contour>
        <pt x="132" y="433" on="1"/>
        <pt x="132" y="398" on="0"/>
        <pt x="174" y="348" on="0"/>
        <pt x="218" y="319" on="1"/>
        <pt x="283" y="555" on="1"/>
        <pt x="279" y="556" on="0"/>
        <pt x="272" y="556" on="1"/>
        <pt x="207" y="556" on="0"/>
        <pt x="132" y="486" on="0"/>
      </contour>
    </TTGlyph>
    <TTGlyph name="dollar.lin" xMin="0" yMin="-87" xMax="523" yMax="816">
      <contour>
        <pt x="400" y="735" on="1"/>
        <pt x="436" y="727" on="0"/>
        <pt x="498" y="694" on="0"/>
        <pt x="523" y="673" on="1"/>
        <pt x="503" y="648" on="1"/>
        <pt x="482" y="667" on="0"/>
        <pt x="424" y="698" on="0"/>
        <pt x="392" y="706" on="1"/>
        <pt x="300" y="385" on="1"/>
        <pt x="327" y="367" on="0"/>
        <pt x="380" y="328" on="0"/>
        <pt x="421" y="281" on="0"/>
        <pt x="447" y="224" on="0"/>
        <pt x="447" y="188" on="1"/>
        <pt x="447" y="142" on="0"/>
        <pt x="412" y="70" on="0"/>
        <pt x="352" y="19" on="0"/>
        <pt x="270" y="-8" on="0"/>
        <pt x="224" y="-8" on="1"/>
        <pt x="215" y="-8" on="0"/>
        <pt x="198" y="-7" on="0"/>
        <pt x="190" y="-6" on="1"/>
        <pt x="168" y="-87" on="1"/>
        <pt x="138" y="-80" on="1"/>
        <pt x="160" y="-1" on="1"/>
        <pt x="116" y="9" on="0"/>
        <pt x="36" y="51" on="0"/>
        <pt x="0" y="82" on="1"/>
        <pt x="20" y="107" on="1"/>
        <pt x="54" y="78" on="0"/>
        <pt x="127" y="36" on="0"/>
        <pt x="168" y="27" on="1"/>
        <pt x="265" y="369" on="1"/>
        <pt x="239" y="387" on="0"/>
        <pt x="190" y="424" on="0"/>
        <pt x="151" y="468" on="0"/>
        <pt x="128" y="520" on="0"/>
        <pt x="128" y="553" on="1"/>
        <pt x="128" y="595" on="0"/>
        <pt x="160" y="665" on="0"/>
        <pt x="217" y="714" on="0"/>
        <pt x="295" y="742" on="0"/>
        <pt x="342" y="742" on="1"/>
        <pt x="349" y="742" on="0"/>
        <pt x="363" y="741" on="0"/>
        <pt x="370" y="740" on="1"/>
        <pt x="391" y="816" on="1"/>
        <pt x="421" y="809" on="1"/>
      </contour>
      <contour>
        <pt x="414" y="187" on="1"/>
        <pt x="414" y="214" on="0"/>
        <pt x="395" y="259" on="0"/>
        <pt x="361" y="298" on="0"/>
        <pt x="316" y="334" on="0"/>
        <pt x="291" y="352" on="1"/>
        <pt x="198" y="22" on="1"/>
        <pt x="205" y="21" on="0"/>
        <pt x="217" y="21" on="0"/>
        <pt x="224" y="21" on="1"/>
        <pt x="263" y="21" on="0"/>
        <pt x="333" y="44" on="0"/>
        <pt x="384" y="88" on="0"/>
        <pt x="414" y="149" on="0"/>
      </contour>
      <contour>
        <pt x="161" y="554" on="1"/>
        <pt x="161" y="507" on="0"/>
        <pt x="218" y="441" on="0"/>
        <pt x="275" y="402" on="1"/>
        <pt x="362" y="712" on="1"/>
        <pt x="357" y="712" on="0"/>
        <pt x="347" y="713" on="0"/>
        <pt x="342" y="713" on="1"/>
        <pt x="300" y="713" on="0"/>
        <pt x="233" y="689" on="0"/>
        <pt x="186" y="646" on="0"/>
        <pt x="161" y="588" on="0"/>
      </contour>
    </TTGlyph>
    <TTGlyph name="dotaccent" xMin="251" yMin="507" xMax="319" yMax="576">
      <contour>
        <pt x="319" y="541" on="1"/>
        <pt x="319" y="527" on="0"/>
        <pt x="299" y="507" on="0"/>
        <pt x="285" y="507" on="1"/>
        <pt x="271" y="507" on="0"/>
        <pt x="251" y="527" on="0"/>
        <pt x="251" y="541" on="1"/>
        <pt x="251" y="555" on="0"/>
        <pt x="271" y="576" on="0"/>
        <pt x="285" y="576" on="1"/>
        <pt x="299" y="576" on="0"/>
        <pt x="319" y="555" on="0"/>
      </contour>
    </TTGlyph>
    <TTGlyph name="dotlessi" xMin="31" yMin="0" xMax="144" yMax="415">
      <contour>
        <pt x="64" y="0" on="1"/>
        <pt x="31" y="0" on="1"/>
        <pt x="112" y="415" on="1"/>
        <pt x="144" y="415" on="1"/>
      </contour>
    </TTGlyph>
    <TTGlyph name="e" xMin="35" yMin="-8" xMax="395" yMax="423">
      <contour>
        <pt x="221" y="-8" on="1"/>
        <pt x="171" y="-8" on="0"/>
        <pt x="101" y="21" on="0"/>
        <pt x="56" y="70" on="0"/>
        <pt x="35" y="135" on="0"/>
        <pt x="35" y="172" on="1"/>
        <pt x="35" y="217" on="0"/>
        <pt x="68" y="307" on="0"/>
        <pt x="127" y="379" on="0"/>
        <pt x="207" y="423" on="0"/>
        <pt x="254" y="423" on="1"/>
        <pt x="290" y="423" on="0"/>
        <pt x="343" y="399" on="0"/>
        <pt x="378" y="357" on="0"/>
        <pt x="395" y="302" on="0"/>
        <pt x="395" y="272" on="1"/>
        <pt x="395" y="251" on="0"/>
        <pt x="392" y="224" on="0"/>
        <pt x="387" y="208" on="1"/>
        <pt x="69" y="208" on="1"/>
        <pt x="68" y="200" on="0"/>
        <pt x="67" y="180" on="0"/>
        <pt x="67" y="174" on="1"/>
        <pt x="67" y="107" on="0"/>
        <pt x="143" y="20" on="0"/>
        <pt x="223" y="20" on="1"/>
        <pt x="275" y="20" on="0"/>
        <pt x="323" y="38" on="1"/>
        <pt x="324" y="30" on="0"/>
        <pt x="326" y="24" on="1"/>
        <pt x="327" y="19" on="0"/>
        <pt x="329" y="9" on="0"/>
        <pt x="329" y="10" on="1"/>
        <pt x="305" y="1" on="0"/>
        <pt x="248" y="-8" on="0"/>
      </contour>
      <contour>
        <pt x="361" y="236" on="1"/>
        <pt x="364" y="249" on="0"/>
        <pt x="364" y="270" on="1"/>
        <pt x="364" y="294" on="0"/>
        <pt x="352" y="340" on="0"/>
        <pt x="326" y="374" on="0"/>
        <pt x="283" y="395" on="0"/>
        <pt x="253" y="395" on="1"/>
        <pt x="223" y="395" on="0"/>
        <pt x="167" y="370" on="0"/>
        <pt x="119" y="327" on="0"/>
        <pt x="84" y="269" on="0"/>
        <pt x="75" y="236" on="1"/>
      </contour>
    </TTGlyph>
    <TTGlyph name="eacute" xMin="35" yMin="-8" xMax="450" yMax="623">
      <component glyphName="e" x="0" y="0" flags="0x204"/>
      <component glyphName="acute" x="68" y="0" flags="0x4"/>
    </TTGlyph>
    <TTGlyph name="ebreve" xMin="35" yMin="-8" xMax="417" yMax="605">
      <component glyphName="e" x="0" y="0" flags="0x204"/>
      <component glyphName="breve" x="-1" y="0" flags="0x4"/>
    </TTGlyph>
    <TTGlyph name="ecaron" xMin="35" yMin="-8" xMax="423" yMax="621">
      <component glyphName="e" x="0" y="0" flags="0x204"/>
      <component glyphName="caron" x="2" y="0" flags="0x4"/>
    </TTGlyph>
    <TTGlyph name="ecircumflex" xMin="35" yMin="-8" xMax="398" yMax="622">
      <component glyphName="e" x="0" y="0" flags="0x204"/>
      <component glyphName="circumflex" x="-5" y="0" flags="0x4"/>
    </TTGlyph>
    <TTGlyph name="edieresis" xMin="35" yMin="-8" xMax="402" yMax="576">
      <component glyphName="e" x="0" y="0" flags="0x204"/>
      <component glyphName="dieresis" x="-2" y="0" flags="0x4"/>
    </TTGlyph>
    <TTGlyph name="edotaccent" xMin="35" yMin="-8" xMax="395" yMax="576">
      <component glyphName="e" x="0" y="0" flags="0x204"/>
      <component glyphName="dotaccent" x="-1" y="0" flags="0x4"/>
    </TTGlyph>
    <TTGlyph name="egrave" xMin="35" yMin="-8" xMax="395" yMax="622">
      <component glyphName="e" x="0" y="0" flags="0x204"/>
      <component glyphName="grave" x="-82" y="0" flags="0x4"/>
    </TTGlyph>
    <TTGlyph name="eight" xMin="47" yMin="-8" xMax="443" yMax="585">
      <contour>
        <pt x="443" y="446" on="1"/>
        <pt x="443" y="387" on="0"/>
        <pt x="372" y="301" on="0"/>
        <pt x="315" y="286" on="1"/>
        <pt x="353" y="268" on="0"/>
        <pt x="398" y="200" on="0"/>
        <pt x="398" y="158" on="1"/>
        <pt x="398" y="121" on="0"/>
        <pt x="368" y="60" on="0"/>
        <pt x="318" y="16" on="0"/>
        <pt x="252" y="-8" on="0"/>
        <pt x="217" y="-8" on="1"/>
        <pt x="184" y="-8" on="0"/>
        <pt x="123" y="12" on="0"/>
        <pt x="75" y="50" on="0"/>
        <pt x="47" y="105" on="0"/>
        <pt x="47" y="140" on="1"/>
        <pt x="47" y="171" on="0"/>
        <pt x="68" y="225" on="0"/>
        <pt x="105" y="267" on="0"/>
        <pt x="156" y="297" on="0"/>
        <pt x="186" y="303" on="1"/>
        <pt x="151" y="321" on="0"/>
        <pt x="113" y="383" on="0"/>
        <pt x="113" y="422" on="1"/>
        <pt x="113" y="457" on="0"/>
        <pt x="141" y="517" on="0"/>
        <pt x="187" y="560" on="0"/>
        <pt x="249" y="585" on="0"/>
        <pt x="284" y="585" on="1"/>
        <pt x="315" y="585" on="0"/>
        <pt x="372" y="566" on="0"/>
        <pt x="416" y="531" on="0"/>
        <pt x="443" y="479" on="0"/>
      </contour>
      <contour>
        <pt x="412" y="445" on="1"/>
        <pt x="412" y="472" on="0"/>
        <pt x="392" y="515" on="0"/>
        <pt x="357" y="543" on="0"/>
        <pt x="311" y="558" on="0"/>
        <pt x="285" y="558" on="1"/>
        <pt x="256" y="558" on="0"/>
        <pt x="205" y="538" on="0"/>
        <pt x="167" y="502" on="0"/>
        <pt x="145" y="453" on="0"/>
        <pt x="145" y="423" on="1"/>
        <pt x="145" y="370" on="0"/>
        <pt x="216" y="305" on="0"/>
        <pt x="269" y="305" on="1"/>
        <pt x="299" y="305" on="0"/>
        <pt x="351" y="327" on="0"/>
        <pt x="390" y="364" on="0"/>
        <pt x="412" y="415" on="0"/>
      </contour>
      <contour>
        <pt x="366" y="159" on="1"/>
        <pt x="366" y="187" on="0"/>
        <pt x="343" y="233" on="0"/>
        <pt x="305" y="265" on="0"/>
        <pt x="255" y="283" on="0"/>
        <pt x="228" y="283" on="1"/>
        <pt x="198" y="283" on="0"/>
        <pt x="144" y="261" on="0"/>
        <pt x="103" y="223" on="0"/>
        <pt x="79" y="170" on="0"/>
        <pt x="79" y="140" on="1"/>
        <pt x="79" y="111" on="0"/>
        <pt x="102" y="66" on="0"/>
        <pt x="140" y="34" on="0"/>
        <pt x="191" y="18" on="0"/>
        <pt x="220" y="18" on="1"/>
        <pt x="250" y="18" on="0"/>
        <pt x="303" y="39" on="0"/>
        <pt x="343" y="76" on="0"/>
        <pt x="366" y="128" on="0"/>
      </contour>
    </TTGlyph>
    <TTGlyph name="eight.den" xMin="18" yMin="-8" xMax="321" yMax="380">
      <contour>
        <pt x="151" y="-8" on="1"/>
        <pt x="128" y="-8" on="0"/>
        <pt x="81" y="3" on="0"/>
        <pt x="42" y="27" on="0"/>
        <pt x="18" y="65" on="0"/>
        <pt x="18" y="92" on="1"/>
        <pt x="18" y="130" on="0"/>
        <pt x="71" y="184" on="0"/>
        <pt x="117" y="195" on="1"/>
        <pt x="90" y="208" on="0"/>
        <pt x="62" y="249" on="0"/>
        <pt x="62" y="275" on="1"/>
        <pt x="62" y="298" on="0"/>
        <pt x="82" y="337" on="0"/>
        <pt x="118" y="365" on="0"/>
        <pt x="166" y="380" on="0"/>
        <pt x="194" y="380" on="1"/>
        <pt x="251" y="380" on="0"/>
        <pt x="321" y="327" on="0"/>
        <pt x="321" y="285" on="1"/>
        <pt x="321" y="248" on="0"/>
        <pt x="273" y="196" on="0"/>
        <pt x="231" y="185" on="1"/>
        <pt x="292" y="157" on="0"/>
        <pt x="292" y="100" on="1"/>
        <pt x="292" y="75" on="0"/>
        <pt x="270" y="35" on="0"/>
        <pt x="231" y="7" on="0"/>
        <pt x="180" y="-8" on="0"/>
      </contour>
      <contour>
        <pt x="191" y="203" on="1"/>
        <pt x="233" y="203" on="0"/>
        <pt x="290" y="247" on="0"/>
        <pt x="290" y="283" on="1"/>
        <pt x="290" y="313" on="0"/>
        <pt x="238" y="353" on="0"/>
        <pt x="192" y="353" on="1"/>
        <pt x="150" y="353" on="0"/>
        <pt x="93" y="309" on="0"/>
        <pt x="93" y="273" on="1"/>
        <pt x="93" y="243" on="0"/>
        <pt x="145" y="203" on="0"/>
      </contour>
      <contour>
        <pt x="154" y="19" on="1"/>
        <pt x="175" y="19" on="0"/>
        <pt x="214" y="31" on="0"/>
        <pt x="244" y="52" on="0"/>
        <pt x="261" y="83" on="0"/>
        <pt x="261" y="103" on="1"/>
        <pt x="261" y="137" on="0"/>
        <pt x="203" y="178" on="0"/>
        <pt x="156" y="178" on="1"/>
        <pt x="135" y="178" on="0"/>
        <pt x="96" y="166" on="0"/>
        <pt x="66" y="145" on="0"/>
        <pt x="49" y="113" on="0"/>
        <pt x="49" y="94" on="1"/>
        <pt x="49" y="60" on="0"/>
        <pt x="107" y="19" on="0"/>
      </contour>
    </TTGlyph>
    <TTGlyph name="eight.lin" xMin="61" yMin="-9" xMax="557" yMax="742">
      <contour>
        <pt x="271" y="-9" on="1"/>
        <pt x="231" y="-9" on="0"/>
        <pt x="156" y="17" on="0"/>
        <pt x="97" y="66" on="0"/>
        <pt x="61" y="135" on="0"/>
        <pt x="61" y="179" on="1"/>
        <pt x="61" y="218" on="0"/>
        <pt x="88" y="287" on="0"/>
        <pt x="135" y="340" on="0"/>
        <pt x="200" y="376" on="0"/>
        <pt x="238" y="383" on="1"/>
        <pt x="193" y="407" on="0"/>
        <pt x="144" y="487" on="0"/>
        <pt x="144" y="538" on="1"/>
        <pt x="144" y="582" on="0"/>
        <pt x="180" y="657" on="0"/>
        <pt x="240" y="711" on="0"/>
        <pt x="319" y="742" on="0"/>
        <pt x="362" y="742" on="1"/>
        <pt x="401" y="742" on="0"/>
        <pt x="472" y="717" on="0"/>
        <pt x="525" y="671" on="0"/>
        <pt x="557" y="605" on="0"/>
        <pt x="557" y="564" on="1"/>
        <pt x="557" y="527" on="0"/>
        <pt x="532" y="461" on="0"/>
        <pt x="488" y="409" on="0"/>
        <pt x="425" y="372" on="0"/>
        <pt x="388" y="365" on="1"/>
        <pt x="440" y="341" on="0"/>
        <pt x="499" y="255" on="0"/>
        <pt x="499" y="201" on="1"/>
        <pt x="499" y="155" on="0"/>
        <pt x="462" y="78" on="0"/>
        <pt x="399" y="22" on="0"/>
        <pt x="316" y="-9" on="0"/>
      </contour>
      <contour>
        <pt x="465" y="201" on="1"/>
        <pt x="465" y="238" on="0"/>
        <pt x="435" y="298" on="0"/>
        <pt x="385" y="340" on="0"/>
        <pt x="321" y="363" on="0"/>
        <pt x="288" y="363" on="1"/>
        <pt x="245" y="363" on="0"/>
        <pt x="174" y="335" on="0"/>
        <pt x="123" y="286" on="0"/>
        <pt x="95" y="218" on="0"/>
        <pt x="95" y="179" on="1"/>
        <pt x="95" y="141" on="0"/>
        <pt x="126" y="82" on="0"/>
        <pt x="176" y="41" on="0"/>
        <pt x="240" y="20" on="0"/>
        <pt x="274" y="20" on="1"/>
        <pt x="313" y="20" on="0"/>
        <pt x="383" y="48" on="0"/>
        <pt x="435" y="97" on="0"/>
        <pt x="465" y="163" on="0"/>
      </contour>
      <contour>
        <pt x="523" y="564" on="1"/>
        <pt x="523" y="600" on="0"/>
        <pt x="497" y="656" on="0"/>
        <pt x="452" y="693" on="0"/>
        <pt x="392" y="713" on="0"/>
        <pt x="359" y="713" on="1"/>
        <pt x="322" y="713" on="0"/>
        <pt x="256" y="685" on="0"/>
        <pt x="207" y="637" on="0"/>
        <pt x="178" y="573" on="0"/>
        <pt x="178" y="537" on="1"/>
        <pt x="178" y="501" on="0"/>
        <pt x="205" y="445" on="0"/>
        <pt x="250" y="405" on="0"/>
        <pt x="309" y="384" on="0"/>
        <pt x="342" y="384" on="1"/>
        <pt x="381" y="384" on="0"/>
        <pt x="447" y="413" on="0"/>
        <pt x="495" y="463" on="0"/>
        <pt x="523" y="528" on="0"/>
      </contour>
    </TTGlyph>
    <TTGlyph name="eight.num" xMin="89" yMin="353" xMax="392" yMax="741">
      <contour>
        <pt x="222" y="353" on="1"/>
        <pt x="199" y="353" on="0"/>
        <pt x="152" y="364" on="0"/>
        <pt x="113" y="388" on="0"/>
        <pt x="89" y="426" on="0"/>
        <pt x="89" y="453" on="1"/>
        <pt x="89" y="491" on="0"/>
        <pt x="142" y="545" on="0"/>
        <pt x="188" y="556" on="1"/>
        <pt x="161" y="569" on="0"/>
        <pt x="133" y="610" on="0"/>
        <pt x="133" y="636" on="1"/>
        <pt x="133" y="659" on="0"/>
        <pt x="153" y="698" on="0"/>
        <pt x="189" y="726" on="0"/>
        <pt x="237" y="741" on="0"/>
        <pt x="265" y="741" on="1"/>
        <pt x="322" y="741" on="0"/>
        <pt x="392" y="688" on="0"/>
        <pt x="392" y="646" on="1"/>
        <pt x="392" y="609" on="0"/>
        <pt x="344" y="557" on="0"/>
        <pt x="302" y="546" on="1"/>
        <pt x="363" y="518" on="0"/>
        <pt x="363" y="461" on="1"/>
        <pt x="363" y="436" on="0"/>
        <pt x="341" y="396" on="0"/>
        <pt x="302" y="368" on="0"/>
        <pt x="251" y="353" on="0"/>
      </contour>
      <contour>
        <pt x="262" y="564" on="1"/>
        <pt x="304" y="564" on="0"/>
        <pt x="361" y="608" on="0"/>
        <pt x="361" y="644" on="1"/>
        <pt x="361" y="674" on="0"/>
        <pt x="309" y="714" on="0"/>
        <pt x="263" y="714" on="1"/>
        <pt x="221" y="714" on="0"/>
        <pt x="164" y="670" on="0"/>
        <pt x="164" y="634" on="1"/>
        <pt x="164" y="604" on="0"/>
        <pt x="216" y="564" on="0"/>
      </contour>
      <contour>
        <pt x="225" y="380" on="1"/>
        <pt x="246" y="380" on="0"/>
        <pt x="285" y="392" on="0"/>
        <pt x="315" y="413" on="0"/>
        <pt x="332" y="444" on="0"/>
        <pt x="332" y="464" on="1"/>
        <pt x="332" y="498" on="0"/>
        <pt x="274" y="539" on="0"/>
        <pt x="227" y="539" on="1"/>
        <pt x="206" y="539" on="0"/>
        <pt x="167" y="527" on="0"/>
        <pt x="137" y="506" on="0"/>
        <pt x="120" y="474" on="0"/>
        <pt x="120" y="455" on="1"/>
        <pt x="120" y="421" on="0"/>
        <pt x="178" y="380" on="0"/>
      </contour>
    </TTGlyph>
    <TTGlyph name="elevensixteenths" xMin="132" yMin="-17" xMax="1256" yMax="750">
      <component glyphName="one.num" x="0" y="0" flags="0x4"/>
      <component glyphName="one.num" x="274" y="0" flags="0x4"/>
      <component glyphName="fraction" x="548" y="0" flags="0x4"/>
      <component glyphName="one.den" x="673" y="0" flags="0x4"/>
      <component glyphName="six.den" x="947" y="0" flags="0x4"/>
    </TTGlyph>
    <TTGlyph name="ellipsis" xMin="14" yMin="-8" xMax="426" yMax="63">
      <contour>
        <pt x="86" y="27" on="1"/>
        <pt x="86" y="12" on="0"/>
        <pt x="65" y="-8" on="0"/>
        <pt x="50" y="-8" on="1"/>
        <pt x="35" y="-8" on="0"/>
        <pt x="14" y="12" on="0"/>
        <pt x="14" y="27" on="1"/>
        <pt x="14" y="42" on="0"/>
        <pt x="35" y="63" on="0"/>
        <pt x="50" y="63" on="1"/>
        <pt x="65" y="63" on="0"/>
        <pt x="86" y="42" on="0"/>
      </contour>
      <contour>
        <pt x="256" y="27" on="1"/>
        <pt x="256" y="12" on="0"/>
        <pt x="235" y="-8" on="0"/>
        <pt x="220" y="-8" on="1"/>
        <pt x="205" y="-8" on="0"/>
        <pt x="184" y="12" on="0"/>
        <pt x="184" y="27" on="1"/>
        <pt x="184" y="42" on="0"/>
        <pt x="205" y="63" on="0"/>
        <pt x="220" y="63" on="1"/>
        <pt x="235" y="63" on="0"/>
        <pt x="256" y="42" on="0"/>
      </contour>
      <contour>
        <pt x="426" y="27" on="1"/>
        <pt x="426" y="12" on="0"/>
        <pt x="405" y="-8" on="0"/>
        <pt x="390" y="-8" on="1"/>
        <pt x="375" y="-8" on="0"/>
        <pt x="354" y="12" on="0"/>
        <pt x="354" y="27" on="1"/>
        <pt x="354" y="42" on="0"/>
        <pt x="375" y="63" on="0"/>
        <pt x="390" y="63" on="1"/>
        <pt x="405" y="63" on="0"/>
        <pt x="426" y="42" on="0"/>
      </contour>
    </TTGlyph>
    <TTGlyph name="emacron" xMin="35" yMin="-8" xMax="426" yMax="552">
      <component glyphName="e" x="0" y="0" flags="0x204"/>
      <component glyphName="macron" x="-1" y="0" flags="0x4"/>
    </TTGlyph>
    <TTGlyph name="emdash" xMin="54" yMin="228" xMax="710" yMax="257">
      <contour>
        <pt x="704" y="228" on="1"/>
        <pt x="54" y="228" on="1"/>
        <pt x="60" y="257" on="1"/>
        <pt x="710" y="257" on="1"/>
      </contour>
    </TTGlyph>
    <TTGlyph name="emdash.cap" xMin="80" yMin="356" xMax="736" yMax="385">
      <component glyphName="emdash" x="26" y="128" flags="0x204"/>
    </TTGlyph>
    <TTGlyph name="endash" xMin="54" yMin="228" xMax="460" yMax="257">
      <contour>
        <pt x="454" y="228" on="1"/>
        <pt x="54" y="228" on="1"/>
        <pt x="60" y="257" on="1"/>
        <pt x="460" y="257" on="1"/>
      </contour>
    </TTGlyph>
    <TTGlyph name="endash.cap" xMin="80" yMin="356" xMax="486" yMax="385">
      <component glyphName="endash" x="26" y="128" flags="0x204"/>
    </TTGlyph>
    <TTGlyph name="eogonek" xMin="35" yMin="-219" xMax="395" yMax="423">
      <contour>
        <pt x="221" y="-8" on="1"/>
        <pt x="171" y="-8" on="0"/>
        <pt x="101" y="21" on="0"/>
        <pt x="56" y="70" on="0"/>
        <pt x="35" y="135" on="0"/>
        <pt x="35" y="172" on="1"/>
        <pt x="35" y="217" on="0"/>
        <pt x="68" y="307" on="0"/>
        <pt x="127" y="379" on="0"/>
        <pt x="207" y="423" on="0"/>
        <pt x="254" y="423" on="1"/>
        <pt x="290" y="423" on="0"/>
        <pt x="343" y="399" on="0"/>
        <pt x="378" y="357" on="0"/>
        <pt x="395" y="302" on="0"/>
        <pt x="395" y="272" on="1"/>
        <pt x="395" y="251" on="0"/>
        <pt x="392" y="224" on="0"/>
        <pt x="387" y="208" on="1"/>
        <pt x="69" y="208" on="1"/>
        <pt x="68" y="200" on="0"/>
        <pt x="67" y="180" on="0"/>
        <pt x="67" y="174" on="1"/>
        <pt x="67" y="107" on="0"/>
        <pt x="143" y="20" on="0"/>
        <pt x="223" y="20" on="1"/>
        <pt x="275" y="20" on="0"/>
        <pt x="323" y="38" on="1"/>
        <pt x="324" y="30" on="0"/>
        <pt x="326" y="24" on="1"/>
        <pt x="327" y="19" on="0"/>
        <pt x="329" y="9" on="0"/>
        <pt x="329" y="10" on="1"/>
        <pt x="308" y="-5" on="0"/>
        <pt x="262" y="-43" on="0"/>
        <pt x="223" y="-84" on="0"/>
        <pt x="197" y="-128" on="0"/>
        <pt x="197" y="-150" on="1"/>
        <pt x="197" y="-170" on="0"/>
        <pt x="217" y="-192" on="0"/>
        <pt x="234" y="-192" on="1"/>
        <pt x="254" y="-192" on="0"/>
        <pt x="289" y="-168" on="0"/>
        <pt x="305" y="-151" on="1"/>
        <pt x="323" y="-170" on="1"/>
        <pt x="303" y="-192" on="0"/>
        <pt x="256" y="-219" on="0"/>
        <pt x="227" y="-219" on="1"/>
        <pt x="198" y="-219" on="0"/>
        <pt x="166" y="-185" on="0"/>
        <pt x="166" y="-159" on="1"/>
        <pt x="166" y="-113" on="0"/>
        <pt x="226" y="-38" on="0"/>
        <pt x="267" y="-5" on="1"/>
        <pt x="243" y="-8" on="0"/>
      </contour>
      <contour>
        <pt x="361" y="236" on="1"/>
        <pt x="364" y="249" on="0"/>
        <pt x="364" y="270" on="1"/>
        <pt x="364" y="294" on="0"/>
        <pt x="352" y="340" on="0"/>
        <pt x="326" y="374" on="0"/>
        <pt x="283" y="395" on="0"/>
        <pt x="253" y="395" on="1"/>
        <pt x="223" y="395" on="0"/>
        <pt x="167" y="370" on="0"/>
        <pt x="119" y="327" on="0"/>
        <pt x="84" y="269" on="0"/>
        <pt x="75" y="236" on="1"/>
      </contour>
    </TTGlyph>
    <TTGlyph name="equal" xMin="57" yMin="187" xMax="363" yMax="357">
      <contour>
        <pt x="330" y="187" on="1"/>
        <pt x="57" y="187" on="1"/>
        <pt x="63" y="218" on="1"/>
        <pt x="336" y="218" on="1"/>
      </contour>
      <contour>
        <pt x="357" y="326" on="1"/>
        <pt x="84" y="326" on="1"/>
        <pt x="90" y="357" on="1"/>
        <pt x="363" y="357" on="1"/>
      </contour>
    </TTGlyph>
    <TTGlyph name="equal.lin" xMin="76" yMin="286" xMax="382" yMax="456">
      <component glyphName="equal" x="19" y="99" flags="0x204"/>
    </TTGlyph>
    <TTGlyph name="eth" xMin="26" yMin="-8" xMax="412" yMax="735">
      <contour>
        <pt x="269" y="628" on="1"/>
        <pt x="333" y="561" on="0"/>
        <pt x="412" y="378" on="0"/>
        <pt x="412" y="263" on="1"/>
        <pt x="412" y="200" on="0"/>
        <pt x="377" y="100" on="0"/>
        <pt x="317" y="29" on="0"/>
        <pt x="236" y="-8" on="0"/>
        <pt x="190" y="-8" on="1"/>
        <pt x="153" y="-8" on="0"/>
        <pt x="92" y="18" on="0"/>
        <pt x="49" y="65" on="0"/>
        <pt x="26" y="131" on="0"/>
        <pt x="26" y="171" on="1"/>
        <pt x="26" y="223" on="0"/>
        <pt x="61" y="314" on="0"/>
        <pt x="121" y="382" on="0"/>
        <pt x="203" y="422" on="0"/>
        <pt x="250" y="422" on="1"/>
        <pt x="293" y="422" on="0"/>
        <pt x="357" y="386" on="0"/>
        <pt x="371" y="362" on="1"/>
        <pt x="357" y="437" on="0"/>
        <pt x="289" y="561" on="0"/>
        <pt x="241" y="611" on="1"/>
        <pt x="126" y="542" on="1"/>
        <pt x="110" y="568" on="1"/>
        <pt x="219" y="633" on="1"/>
        <pt x="172" y="677" on="0"/>
        <pt x="116" y="708" on="1"/>
        <pt x="132" y="735" on="1"/>
        <pt x="163" y="718" on="0"/>
        <pt x="221" y="676" on="0"/>
        <pt x="247" y="650" on="1"/>
        <pt x="361" y="719" on="1"/>
        <pt x="377" y="694" on="1"/>
      </contour>
      <contour>
        <pt x="379" y="251" on="1"/>
        <pt x="379" y="312" on="0"/>
        <pt x="310" y="392" on="0"/>
        <pt x="250" y="392" on="1"/>
        <pt x="209" y="392" on="0"/>
        <pt x="140" y="356" on="0"/>
        <pt x="89" y="295" on="0"/>
        <pt x="60" y="216" on="0"/>
        <pt x="60" y="173" on="1"/>
        <pt x="60" y="140" on="0"/>
        <pt x="80" y="85" on="0"/>
        <pt x="115" y="44" on="0"/>
        <pt x="165" y="22" on="0"/>
        <pt x="195" y="22" on="1"/>
        <pt x="234" y="22" on="0"/>
        <pt x="301" y="58" on="0"/>
        <pt x="351" y="121" on="0"/>
        <pt x="379" y="204" on="0"/>
      </contour>
    </TTGlyph>
    <TTGlyph name="exclam" xMin="30" yMin="-8" xMax="215" yMax="733">
      <contour>
        <pt x="100" y="143" on="1"/>
        <pt x="75" y="145" on="1"/>
        <pt x="180" y="733" on="1"/>
        <pt x="215" y="733" on="1"/>
      </contour>
      <contour>
        <pt x="102" y="27" on="1"/>
        <pt x="102" y="12" on="0"/>
        <pt x="81" y="-8" on="0"/>
        <pt x="66" y="-8" on="1"/>
        <pt x="51" y="-8" on="0"/>
        <pt x="30" y="12" on="0"/>
        <pt x="30" y="27" on="1"/>
        <pt x="30" y="42" on="0"/>
        <pt x="51" y="63" on="0"/>
        <pt x="66" y="63" on="1"/>
        <pt x="81" y="63" on="0"/>
        <pt x="102" y="42" on="0"/>
      </contour>
    </TTGlyph>
    <TTGlyph name="exclamdown" xMin="34" yMin="0" xMax="219" yMax="742">
      <contour>
        <pt x="219" y="707" on="1"/>
        <pt x="219" y="692" on="0"/>
        <pt x="198" y="671" on="0"/>
        <pt x="183" y="671" on="1"/>
        <pt x="168" y="671" on="0"/>
        <pt x="147" y="692" on="0"/>
        <pt x="147" y="707" on="1"/>
        <pt x="147" y="722" on="0"/>
        <pt x="168" y="742" on="0"/>
        <pt x="183" y="742" on="1"/>
        <pt x="198" y="742" on="0"/>
        <pt x="219" y="722" on="0"/>
      </contour>
      <contour>
        <pt x="69" y="0" on="1"/>
        <pt x="34" y="0" on="1"/>
        <pt x="149" y="590" on="1"/>
        <pt x="174" y="588" on="1"/>
      </contour>
    </TTGlyph>
    <TTGlyph name="f" xMin="14" yMin="-216" xMax="398" yMax="742">
      <contour>
        <pt x="385" y="697" on="1"/>
        <pt x="371" y="704" on="0"/>
        <pt x="336" y="713" on="0"/>
        <pt x="316" y="713" on="1"/>
        <pt x="273" y="713" on="0"/>
        <pt x="218" y="653" on="0"/>
        <pt x="204" y="583" on="1"/>
        <pt x="170" y="415" on="1"/>
        <pt x="294" y="415" on="1"/>
        <pt x="288" y="386" on="1"/>
        <pt x="164" y="386" on="1"/>
        <pt x="47" y="-216" on="1"/>
        <pt x="14" y="-216" on="1"/>
        <pt x="131" y="385" on="1"/>
        <pt x="57" y="385" on="1"/>
        <pt x="60" y="401" on="1"/>
        <pt x="137" y="415" on="1"/>
        <pt x="171" y="589" on="1"/>
        <pt x="187" y="669" on="0"/>
        <pt x="265" y="742" on="0"/>
        <pt x="321" y="742" on="1"/>
        <pt x="341" y="742" on="0"/>
        <pt x="383" y="732" on="0"/>
        <pt x="398" y="724" on="1"/>
      </contour>
    </TTGlyph>
    <TTGlyph name="f_f" xMin="14" yMin="-216" xMax="656" yMax="742">
      <contour>
        <pt x="643" y="697" on="1"/>
        <pt x="629" y="704" on="0"/>
        <pt x="594" y="713" on="0"/>
        <pt x="574" y="713" on="1"/>
        <pt x="531" y="713" on="0"/>
        <pt x="476" y="653" on="0"/>
        <pt x="462" y="583" on="1"/>
        <pt x="428" y="415" on="1"/>
        <pt x="552" y="415" on="1"/>
        <pt x="546" y="386" on="1"/>
        <pt x="422" y="386" on="1"/>
        <pt x="305" y="-216" on="1"/>
        <pt x="272" y="-216" on="1"/>
        <pt x="389" y="385" on="1"/>
        <pt x="315" y="385" on="1"/>
        <pt x="318" y="401" on="1"/>
        <pt x="395" y="415" on="1"/>
        <pt x="429" y="589" on="1"/>
        <pt x="445" y="669" on="0"/>
        <pt x="523" y="742" on="0"/>
        <pt x="579" y="742" on="1"/>
        <pt x="599" y="742" on="0"/>
        <pt x="641" y="732" on="0"/>
        <pt x="656" y="724" on="1"/>
      </contour>
      <contour>
        <pt x="385" y="697" on="1"/>
        <pt x="371" y="704" on="0"/>
        <pt x="336" y="713" on="0"/>
        <pt x="316" y="713" on="1"/>
        <pt x="273" y="713" on="0"/>
        <pt x="218" y="653" on="0"/>
        <pt x="204" y="583" on="1"/>
        <pt x="170" y="415" on="1"/>
        <pt x="294" y="415" on="1"/>
        <pt x="288" y="386" on="1"/>
        <pt x="164" y="386" on="1"/>
        <pt x="47" y="-216" on="1"/>
        <pt x="14" y="-216" on="1"/>
        <pt x="131" y="385" on="1"/>
        <pt x="57" y="385" on="1"/>
        <pt x="60" y="401" on="1"/>
        <pt x="137" y="415" on="1"/>
        <pt x="171" y="589" on="1"/>
        <pt x="187" y="669" on="0"/>
        <pt x="265" y="742" on="0"/>
        <pt x="321" y="742" on="1"/>
        <pt x="341" y="742" on="0"/>
        <pt x="383" y="732" on="0"/>
        <pt x="398" y="724" on="1"/>
      </contour>
    </TTGlyph>
    <TTGlyph name="f_f_i" xMin="14" yMin="-216" xMax="705" yMax="742">
      <contour>
        <pt x="385" y="697" on="1"/>
        <pt x="371" y="704" on="0"/>
        <pt x="336" y="713" on="0"/>
        <pt x="316" y="713" on="1"/>
        <pt x="273" y="713" on="0"/>
        <pt x="218" y="653" on="0"/>
        <pt x="204" y="583" on="1"/>
        <pt x="170" y="415" on="1"/>
        <pt x="294" y="415" on="1"/>
        <pt x="288" y="386" on="1"/>
        <pt x="164" y="386" on="1"/>
        <pt x="47" y="-216" on="1"/>
        <pt x="14" y="-216" on="1"/>
        <pt x="131" y="385" on="1"/>
        <pt x="57" y="385" on="1"/>
        <pt x="60" y="401" on="1"/>
        <pt x="137" y="415" on="1"/>
        <pt x="171" y="589" on="1"/>
        <pt x="187" y="669" on="0"/>
        <pt x="265" y="742" on="0"/>
        <pt x="321" y="742" on="1"/>
        <pt x="341" y="742" on="0"/>
        <pt x="383" y="732" on="0"/>
        <pt x="398" y="724" on="1"/>
      </contour>
      <contour>
        <pt x="643" y="697" on="1"/>
        <pt x="629" y="704" on="0"/>
        <pt x="594" y="713" on="0"/>
        <pt x="574" y="713" on="1"/>
        <pt x="531" y="713" on="0"/>
        <pt x="476" y="653" on="0"/>
        <pt x="462" y="583" on="1"/>
        <pt x="428" y="415" on="1"/>
        <pt x="552" y="415" on="1"/>
        <pt x="546" y="386" on="1"/>
        <pt x="422" y="386" on="1"/>
        <pt x="305" y="-216" on="1"/>
        <pt x="272" y="-216" on="1"/>
        <pt x="389" y="385" on="1"/>
        <pt x="315" y="385" on="1"/>
        <pt x="318" y="401" on="1"/>
        <pt x="395" y="415" on="1"/>
        <pt x="429" y="589" on="1"/>
        <pt x="445" y="669" on="0"/>
        <pt x="523" y="742" on="0"/>
        <pt x="579" y="742" on="1"/>
        <pt x="599" y="742" on="0"/>
        <pt x="641" y="732" on="0"/>
        <pt x="656" y="724" on="1"/>
      </contour>
      <contour>
        <pt x="580" y="0" on="1"/>
        <pt x="547" y="0" on="1"/>
        <pt x="628" y="415" on="1"/>
        <pt x="660" y="415" on="1"/>
      </contour>
      <contour>
        <pt x="705" y="580" on="1"/>
        <pt x="705" y="568" on="0"/>
        <pt x="688" y="550" on="0"/>
        <pt x="675" y="550" on="1"/>
        <pt x="662" y="550" on="0"/>
        <pt x="645" y="568" on="0"/>
        <pt x="645" y="580" on="1"/>
        <pt x="645" y="593" on="0"/>
        <pt x="662" y="611" on="0"/>
        <pt x="675" y="611" on="1"/>
        <pt x="688" y="611" on="0"/>
        <pt x="705" y="593" on="0"/>
      </contour>
    </TTGlyph>
    <TTGlyph name="f_f_l" xMin="14" yMin="-216" xMax="718" yMax="742">
      <contour>
        <pt x="385" y="697" on="1"/>
        <pt x="371" y="704" on="0"/>
        <pt x="336" y="713" on="0"/>
        <pt x="316" y="713" on="1"/>
        <pt x="273" y="713" on="0"/>
        <pt x="218" y="653" on="0"/>
        <pt x="204" y="583" on="1"/>
        <pt x="170" y="415" on="1"/>
        <pt x="294" y="415" on="1"/>
        <pt x="288" y="386" on="1"/>
        <pt x="164" y="386" on="1"/>
        <pt x="47" y="-216" on="1"/>
        <pt x="14" y="-216" on="1"/>
        <pt x="131" y="385" on="1"/>
        <pt x="57" y="385" on="1"/>
        <pt x="60" y="401" on="1"/>
        <pt x="137" y="415" on="1"/>
        <pt x="171" y="589" on="1"/>
        <pt x="187" y="669" on="0"/>
        <pt x="265" y="742" on="0"/>
        <pt x="321" y="742" on="1"/>
        <pt x="341" y="742" on="0"/>
        <pt x="383" y="732" on="0"/>
        <pt x="398" y="724" on="1"/>
      </contour>
      <contour>
        <pt x="643" y="697" on="1"/>
        <pt x="629" y="704" on="0"/>
        <pt x="594" y="713" on="0"/>
        <pt x="574" y="713" on="1"/>
        <pt x="531" y="713" on="0"/>
        <pt x="476" y="653" on="0"/>
        <pt x="462" y="583" on="1"/>
        <pt x="428" y="415" on="1"/>
        <pt x="552" y="415" on="1"/>
        <pt x="546" y="386" on="1"/>
        <pt x="422" y="386" on="1"/>
        <pt x="305" y="-216" on="1"/>
        <pt x="272" y="-216" on="1"/>
        <pt x="389" y="385" on="1"/>
        <pt x="315" y="385" on="1"/>
        <pt x="318" y="401" on="1"/>
        <pt x="395" y="415" on="1"/>
        <pt x="429" y="589" on="1"/>
        <pt x="445" y="669" on="0"/>
        <pt x="523" y="742" on="0"/>
        <pt x="579" y="742" on="1"/>
        <pt x="599" y="742" on="0"/>
        <pt x="641" y="732" on="0"/>
        <pt x="656" y="724" on="1"/>
      </contour>
      <contour>
        <pt x="576" y="0" on="1"/>
        <pt x="544" y="0" on="1"/>
        <pt x="686" y="733" on="1"/>
        <pt x="718" y="733" on="1"/>
      </contour>
    </TTGlyph>
    <TTGlyph name="fi" xMin="14" yMin="-216" xMax="447" yMax="742">
      <contour>
        <pt x="385" y="697" on="1"/>
        <pt x="371" y="704" on="0"/>
        <pt x="336" y="713" on="0"/>
        <pt x="316" y="713" on="1"/>
        <pt x="273" y="713" on="0"/>
        <pt x="218" y="653" on="0"/>
        <pt x="204" y="583" on="1"/>
        <pt x="170" y="415" on="1"/>
        <pt x="294" y="415" on="1"/>
        <pt x="288" y="386" on="1"/>
        <pt x="164" y="386" on="1"/>
        <pt x="47" y="-216" on="1"/>
        <pt x="14" y="-216" on="1"/>
        <pt x="131" y="385" on="1"/>
        <pt x="57" y="385" on="1"/>
        <pt x="60" y="401" on="1"/>
        <pt x="137" y="415" on="1"/>
        <pt x="171" y="589" on="1"/>
        <pt x="187" y="669" on="0"/>
        <pt x="265" y="742" on="0"/>
        <pt x="321" y="742" on="1"/>
        <pt x="341" y="742" on="0"/>
        <pt x="383" y="732" on="0"/>
        <pt x="398" y="724" on="1"/>
      </contour>
      <contour>
        <pt x="322" y="0" on="1"/>
        <pt x="289" y="0" on="1"/>
        <pt x="370" y="415" on="1"/>
        <pt x="402" y="415" on="1"/>
      </contour>
      <contour>
        <pt x="447" y="580" on="1"/>
        <pt x="447" y="568" on="0"/>
        <pt x="430" y="550" on="0"/>
        <pt x="417" y="550" on="1"/>
        <pt x="404" y="550" on="0"/>
        <pt x="387" y="568" on="0"/>
        <pt x="387" y="580" on="1"/>
        <pt x="387" y="593" on="0"/>
        <pt x="404" y="611" on="0"/>
        <pt x="417" y="611" on="1"/>
        <pt x="430" y="611" on="0"/>
        <pt x="447" y="593" on="0"/>
      </contour>
    </TTGlyph>
    <TTGlyph name="fifteensixteenths" xMin="132" yMin="-17" xMax="1332" yMax="750">
      <component glyphName="one.num" x="0" y="0" flags="0x4"/>
      <component glyphName="five.num" x="274" y="0" flags="0x4"/>
      <component glyphName="fraction" x="624" y="0" flags="0x4"/>
      <component glyphName="one.den" x="749" y="0" flags="0x4"/>
      <component glyphName="six.den" x="1023" y="0" flags="0x4"/>
    </TTGlyph>
    <TTGlyph name="five" xMin="26" yMin="-8" xMax="433" yMax="577">
      <contour>
        <pt x="428" y="549" on="1"/>
        <pt x="180" y="549" on="1"/>
        <pt x="139" y="331" on="1"/>
        <pt x="150" y="333" on="0"/>
        <pt x="175" y="334" on="0"/>
        <pt x="187" y="334" on="1"/>
        <pt x="231" y="334" on="0"/>
        <pt x="307" y="314" on="0"/>
        <pt x="364" y="275" on="0"/>
        <pt x="397" y="215" on="0"/>
        <pt x="397" y="175" on="1"/>
        <pt x="397" y="136" on="0"/>
        <pt x="363" y="69" on="0"/>
        <pt x="303" y="20" on="0"/>
        <pt x="221" y="-8" on="0"/>
        <pt x="173" y="-8" on="1"/>
        <pt x="127" y="-8" on="0"/>
        <pt x="58" y="14" on="0"/>
        <pt x="26" y="30" on="1"/>
        <pt x="38" y="56" on="1"/>
        <pt x="65" y="42" on="0"/>
        <pt x="133" y="19" on="0"/>
        <pt x="175" y="19" on="1"/>
        <pt x="211" y="19" on="0"/>
        <pt x="279" y="40" on="0"/>
        <pt x="332" y="81" on="0"/>
        <pt x="364" y="138" on="0"/>
        <pt x="364" y="174" on="1"/>
        <pt x="364" y="209" on="0"/>
        <pt x="335" y="259" on="0"/>
        <pt x="286" y="292" on="0"/>
        <pt x="219" y="307" on="0"/>
        <pt x="181" y="307" on="1"/>
        <pt x="156" y="307" on="0"/>
        <pt x="122" y="304" on="0"/>
        <pt x="110" y="303" on="1"/>
        <pt x="104" y="308" on="1"/>
        <pt x="156" y="577" on="1"/>
        <pt x="433" y="577" on="1"/>
      </contour>
    </TTGlyph>
    <TTGlyph name="five.den" xMin="9" yMin="-8" xMax="317" yMax="372">
      <contour>
        <pt x="23" y="53" on="1"/>
        <pt x="49" y="38" on="0"/>
        <pt x="110" y="19" on="0"/>
        <pt x="141" y="19" on="1"/>
        <pt x="192" y="19" on="0"/>
        <pt x="256" y="69" on="0"/>
        <pt x="256" y="116" on="1"/>
        <pt x="256" y="152" on="0"/>
        <pt x="201" y="201" on="0"/>
        <pt x="133" y="201" on="1"/>
        <pt x="116" y="201" on="0"/>
        <pt x="80" y="199" on="0"/>
        <pt x="63" y="197" on="1"/>
        <pt x="58" y="202" on="1"/>
        <pt x="90" y="372" on="1"/>
        <pt x="317" y="372" on="1"/>
        <pt x="312" y="345" on="1"/>
        <pt x="115" y="345" on="1"/>
        <pt x="92" y="226" on="1"/>
        <pt x="103" y="227" on="0"/>
        <pt x="126" y="228" on="0"/>
        <pt x="135" y="228" on="1"/>
        <pt x="177" y="228" on="0"/>
        <pt x="235" y="210" on="0"/>
        <pt x="272" y="180" on="0"/>
        <pt x="288" y="140" on="0"/>
        <pt x="288" y="117" on="1"/>
        <pt x="288" y="90" on="0"/>
        <pt x="267" y="44" on="0"/>
        <pt x="228" y="11" on="0"/>
        <pt x="172" y="-8" on="0"/>
        <pt x="138" y="-8" on="1"/>
        <pt x="101" y="-8" on="0"/>
        <pt x="40" y="9" on="0"/>
        <pt x="9" y="26" on="1"/>
      </contour>
    </TTGlyph>
    <TTGlyph name="five.lin" xMin="29" yMin="-8" xMax="546" yMax="733">
      <contour>
        <pt x="541" y="704" on="1"/>
        <pt x="224" y="704" on="1"/>
        <pt x="164" y="423" on="1"/>
        <pt x="192" y="425" on="0"/>
        <pt x="219" y="427" on="0"/>
        <pt x="233" y="427" on="1"/>
        <pt x="287" y="427" on="0"/>
        <pt x="378" y="403" on="0"/>
        <pt x="445" y="353" on="0"/>
        <pt x="483" y="278" on="0"/>
        <pt x="483" y="227" on="1"/>
        <pt x="483" y="176" on="0"/>
        <pt x="440" y="90" on="0"/>
        <pt x="367" y="27" on="0"/>
        <pt x="269" y="-8" on="0"/>
        <pt x="214" y="-8" on="1"/>
        <pt x="155" y="-8" on="0"/>
        <pt x="70" y="21" on="0"/>
        <pt x="29" y="41" on="1"/>
        <pt x="42" y="67" on="1"/>
        <pt x="76" y="50" on="0"/>
        <pt x="161" y="20" on="0"/>
        <pt x="216" y="20" on="1"/>
        <pt x="259" y="20" on="0"/>
        <pt x="343" y="49" on="0"/>
        <pt x="409" y="103" on="0"/>
        <pt x="449" y="179" on="0"/>
        <pt x="449" y="225" on="1"/>
        <pt x="449" y="269" on="0"/>
        <pt x="415" y="335" on="0"/>
        <pt x="357" y="378" on="0"/>
        <pt x="276" y="399" on="0"/>
        <pt x="230" y="399" on="1"/>
        <pt x="197" y="399" on="0"/>
        <pt x="150" y="396" on="0"/>
        <pt x="127" y="394" on="1"/>
        <pt x="126" y="399" on="1"/>
        <pt x="198" y="733" on="1"/>
        <pt x="546" y="733" on="1"/>
      </contour>
    </TTGlyph>
    <TTGlyph name="five.num" xMin="79" yMin="353" xMax="387" yMax="733">
      <contour>
        <pt x="93" y="414" on="1"/>
        <pt x="119" y="399" on="0"/>
        <pt x="180" y="380" on="0"/>
        <pt x="211" y="380" on="1"/>
        <pt x="262" y="380" on="0"/>
        <pt x="326" y="430" on="0"/>
        <pt x="326" y="477" on="1"/>
        <pt x="326" y="513" on="0"/>
        <pt x="271" y="562" on="0"/>
        <pt x="203" y="562" on="1"/>
        <pt x="186" y="562" on="0"/>
        <pt x="150" y="560" on="0"/>
        <pt x="133" y="558" on="1"/>
        <pt x="128" y="563" on="1"/>
        <pt x="160" y="733" on="1"/>
        <pt x="387" y="733" on="1"/>
        <pt x="382" y="706" on="1"/>
        <pt x="185" y="706" on="1"/>
        <pt x="162" y="587" on="1"/>
        <pt x="173" y="588" on="0"/>
        <pt x="196" y="589" on="0"/>
        <pt x="205" y="589" on="1"/>
        <pt x="247" y="589" on="0"/>
        <pt x="305" y="571" on="0"/>
        <pt x="342" y="541" on="0"/>
        <pt x="358" y="501" on="0"/>
        <pt x="358" y="478" on="1"/>
        <pt x="358" y="451" on="0"/>
        <pt x="337" y="405" on="0"/>
        <pt x="298" y="372" on="0"/>
        <pt x="242" y="353" on="0"/>
        <pt x="208" y="353" on="1"/>
        <pt x="171" y="353" on="0"/>
        <pt x="110" y="370" on="0"/>
        <pt x="79" y="387" on="1"/>
      </contour>
    </TTGlyph>
    <TTGlyph name="fiveeighths" xMin="77" yMin="-17" xMax="810" yMax="750">
      <component glyphName="five.num" x="0" y="0" flags="0x4"/>
      <component glyphName="fraction" x="350" y="0" flags="0x4"/>
      <component glyphName="eight.den" x="475" y="0" flags="0x4"/>
    </TTGlyph>
    <TTGlyph name="fivesixteenths" xMin="77" yMin="-17" xMax="1058" yMax="750">
      <component glyphName="five.num" x="0" y="0" flags="0x4"/>
      <component glyphName="fraction" x="350" y="0" flags="0x4"/>
      <component glyphName="one.den" x="475" y="0" flags="0x4"/>
      <component glyphName="six.den" x="749" y="0" flags="0x4"/>
    </TTGlyph>
    <TTGlyph name="fivesixths" xMin="87" yMin="-17" xMax="820" yMax="750">
      <component glyphName="five.num" x="10" y="0" flags="0x4"/>
      <component glyphName="fraction" x="360" y="0" flags="0x4"/>
      <component glyphName="six.den" x="465" y="0" flags="0x4"/>
    </TTGlyph>
    <TTGlyph name="fl" xMin="14" yMin="-216" xMax="460" yMax="742">
      <contour>
        <pt x="318" y="0" on="1"/>
        <pt x="286" y="0" on="1"/>
        <pt x="428" y="733" on="1"/>
        <pt x="460" y="733" on="1"/>
      </contour>
      <contour>
        <pt x="385" y="697" on="1"/>
        <pt x="371" y="704" on="0"/>
        <pt x="336" y="713" on="0"/>
        <pt x="316" y="713" on="1"/>
        <pt x="273" y="713" on="0"/>
        <pt x="218" y="653" on="0"/>
        <pt x="204" y="583" on="1"/>
        <pt x="170" y="415" on="1"/>
        <pt x="294" y="415" on="1"/>
        <pt x="288" y="386" on="1"/>
        <pt x="164" y="386" on="1"/>
        <pt x="47" y="-216" on="1"/>
        <pt x="14" y="-216" on="1"/>
        <pt x="131" y="385" on="1"/>
        <pt x="57" y="385" on="1"/>
        <pt x="60" y="401" on="1"/>
        <pt x="137" y="415" on="1"/>
        <pt x="171" y="589" on="1"/>
        <pt x="187" y="669" on="0"/>
        <pt x="265" y="742" on="0"/>
        <pt x="321" y="742" on="1"/>
        <pt x="341" y="742" on="0"/>
        <pt x="383" y="732" on="0"/>
        <pt x="398" y="724" on="1"/>
      </contour>
    </TTGlyph>
    <TTGlyph name="florin" xMin="50" yMin="0" xMax="423" yMax="585">
      <contour>
        <pt x="410" y="540" on="1"/>
        <pt x="397" y="546" on="0"/>
        <pt x="362" y="556" on="0"/>
        <pt x="343" y="556" on="1"/>
        <pt x="295" y="556" on="0"/>
        <pt x="233" y="486" on="0"/>
        <pt x="210" y="411" on="1"/>
        <pt x="184" y="328" on="1"/>
        <pt x="280" y="328" on="1"/>
        <pt x="272" y="300" on="1"/>
        <pt x="175" y="300" on="1"/>
        <pt x="83" y="0" on="1"/>
        <pt x="50" y="0" on="1"/>
        <pt x="142" y="300" on="1"/>
        <pt x="84" y="300" on="1"/>
        <pt x="87" y="316" on="1"/>
        <pt x="150" y="328" on="1"/>
        <pt x="177" y="415" on="1"/>
        <pt x="204" y="503" on="0"/>
        <pt x="285" y="585" on="0"/>
        <pt x="345" y="585" on="1"/>
        <pt x="367" y="585" on="0"/>
        <pt x="409" y="576" on="0"/>
        <pt x="423" y="568" on="1"/>
      </contour>
    </TTGlyph>
    <TTGlyph name="florin.lin" xMin="93" yMin="0" xMax="493" yMax="742">
      <contour>
        <pt x="481" y="695" on="1"/>
        <pt x="465" y="702" on="0"/>
        <pt x="422" y="712" on="0"/>
        <pt x="398" y="712" on="1"/>
        <pt x="334" y="712" on="0"/>
        <pt x="256" y="618" on="0"/>
        <pt x="235" y="513" on="1"/>
        <pt x="215" y="415" on="1"/>
        <pt x="338" y="415" on="1"/>
        <pt x="332" y="386" on="1"/>
        <pt x="208" y="386" on="1"/>
        <pt x="127" y="0" on="1"/>
        <pt x="93" y="0" on="1"/>
        <pt x="174" y="385" on="1"/>
        <pt x="100" y="385" on="1"/>
        <pt x="102" y="401" on="1"/>
        <pt x="180" y="414" on="1"/>
        <pt x="201" y="518" on="1"/>
        <pt x="224" y="634" on="0"/>
        <pt x="323" y="742" on="0"/>
        <pt x="402" y="742" on="1"/>
        <pt x="428" y="742" on="0"/>
        <pt x="476" y="732" on="0"/>
        <pt x="493" y="724" on="1"/>
      </contour>
    </TTGlyph>
    <TTGlyph name="four" xMin="14" yMin="0" xMax="453" yMax="587">
      <contour>
        <pt x="447" y="175" on="1"/>
        <pt x="351" y="175" on="1"/>
        <pt x="317" y="0" on="1"/>
        <pt x="286" y="0" on="1"/>
        <pt x="320" y="175" on="1"/>
        <pt x="14" y="175" on="1"/>
        <pt x="15" y="184" on="1"/>
        <pt x="421" y="587" on="1"/>
        <pt x="432" y="587" on="1"/>
        <pt x="357" y="203" on="1"/>
        <pt x="453" y="203" on="1"/>
      </contour>
      <contour>
        <pt x="388" y="518" on="1"/>
        <pt x="73" y="203" on="1"/>
        <pt x="326" y="203" on="1"/>
      </contour>
    </TTGlyph>
    <TTGlyph name="four.den" xMin="-4" yMin="0" xMax="311" yMax="390">
      <contour>
        <pt x="209" y="94" on="1"/>
        <pt x="-4" y="94" on="1"/>
        <pt x="-1" y="106" on="1"/>
        <pt x="282" y="390" on="1"/>
        <pt x="294" y="390" on="1"/>
        <pt x="241" y="120" on="1"/>
        <pt x="311" y="120" on="1"/>
        <pt x="306" y="94" on="1"/>
        <pt x="236" y="94" on="1"/>
        <pt x="218" y="0" on="1"/>
        <pt x="191" y="0" on="1"/>
      </contour>
      <contour>
        <pt x="214" y="120" on="1"/>
        <pt x="255" y="328" on="1"/>
        <pt x="48" y="120" on="1"/>
      </contour>
    </TTGlyph>
    <TTGlyph name="four.lin" xMin="21" yMin="0" xMax="572" yMax="744">
      <contour>
        <pt x="566" y="222" on="1"/>
        <pt x="445" y="222" on="1"/>
        <pt x="402" y="0" on="1"/>
        <pt x="369" y="0" on="1"/>
        <pt x="412" y="222" on="1"/>
        <pt x="21" y="222" on="1"/>
        <pt x="23" y="234" on="1"/>
        <pt x="535" y="744" on="1"/>
        <pt x="547" y="744" on="1"/>
        <pt x="451" y="251" on="1"/>
        <pt x="572" y="251" on="1"/>
      </contour>
      <contour>
        <pt x="499" y="668" on="1"/>
        <pt x="80" y="251" on="1"/>
        <pt x="418" y="251" on="1"/>
      </contour>
    </TTGlyph>
    <TTGlyph name="four.num" xMin="66" yMin="361" xMax="381" yMax="751">
      <contour>
        <pt x="279" y="455" on="1"/>
        <pt x="66" y="455" on="1"/>
        <pt x="69" y="467" on="1"/>
        <pt x="352" y="751" on="1"/>
        <pt x="364" y="751" on="1"/>
        <pt x="311" y="481" on="1"/>
        <pt x="381" y="481" on="1"/>
        <pt x="376" y="455" on="1"/>
        <pt x="306" y="455" on="1"/>
        <pt x="288" y="361" on="1"/>
        <pt x="261" y="361" on="1"/>
      </contour>
      <contour>
        <pt x="284" y="481" on="1"/>
        <pt x="325" y="689" on="1"/>
        <pt x="118" y="481" on="1"/>
      </contour>
    </TTGlyph>
    <TTGlyph name="fourfifths" xMin="66" yMin="-17" xMax="810" yMax="751">
      <component glyphName="four.num" x="0" y="0" flags="0x4"/>
      <component glyphName="fraction" x="350" y="0" flags="0x4"/>
      <component glyphName="five.den" x="475" y="0" flags="0x4"/>
    </TTGlyph>
    <TTGlyph name="fraction" xMin="-273" yMin="-17" xMax="460" yMax="750">
      <contour>
        <pt x="-273" y="2" on="1"/>
        <pt x="83" y="377" on="1"/>
        <pt x="439" y="750" on="1"/>
        <pt x="460" y="731" on="1"/>
        <pt x="103" y="356" on="1"/>
        <pt x="-252" y="-17" on="1"/>
      </contour>
    </TTGlyph>
    <TTGlyph name="g" xMin="14" yMin="-228" xMax="444" yMax="423">
      <contour>
        <pt x="353" y="-48" on="1"/>
        <pt x="334" y="-143" on="0"/>
        <pt x="234" y="-228" on="0"/>
        <pt x="149" y="-228" on="1"/>
        <pt x="108" y="-228" on="0"/>
        <pt x="41" y="-210" on="0"/>
        <pt x="14" y="-197" on="1"/>
        <pt x="28" y="-171" on="1"/>
        <pt x="57" y="-184" on="0"/>
        <pt x="115" y="-199" on="0"/>
        <pt x="151" y="-199" on="1"/>
        <pt x="223" y="-199" on="0"/>
        <pt x="307" y="-125" on="0"/>
        <pt x="322" y="-44" on="1"/>
        <pt x="337" y="35" on="1"/>
        <pt x="311" y="17" on="0"/>
        <pt x="242" y="-8" on="0"/>
        <pt x="203" y="-8" on="1"/>
        <pt x="170" y="-8" on="0"/>
        <pt x="111" y="17" on="0"/>
        <pt x="68" y="62" on="0"/>
        <pt x="43" y="127" on="0"/>
        <pt x="43" y="167" on="1"/>
        <pt x="43" y="214" on="0"/>
        <pt x="77" y="306" on="0"/>
        <pt x="139" y="378" on="0"/>
        <pt x="223" y="423" on="0"/>
        <pt x="274" y="423" on="1"/>
        <pt x="318" y="423" on="0"/>
        <pt x="384" y="390" on="0"/>
        <pt x="403" y="367" on="1"/>
        <pt x="411" y="415" on="1"/>
        <pt x="444" y="415" on="1"/>
      </contour>
      <contour>
        <pt x="395" y="332" on="1"/>
        <pt x="376" y="357" on="0"/>
        <pt x="313" y="394" on="0"/>
        <pt x="272" y="394" on="1"/>
        <pt x="230" y="394" on="0"/>
        <pt x="158" y="355" on="0"/>
        <pt x="105" y="292" on="0"/>
        <pt x="76" y="214" on="0"/>
        <pt x="76" y="174" on="1"/>
        <pt x="76" y="103" on="0"/>
        <pt x="148" y="21" on="0"/>
        <pt x="206" y="21" on="1"/>
        <pt x="242" y="21" on="0"/>
        <pt x="314" y="49" on="0"/>
        <pt x="343" y="72" on="1"/>
      </contour>
    </TTGlyph>
    <TTGlyph name="gbreve" xMin="14" yMin="-228" xMax="454" yMax="605">
      <component glyphName="g" x="0" y="0" flags="0x204"/>
      <component glyphName="breve" x="36" y="0" flags="0x4"/>
    </TTGlyph>
    <TTGlyph name="gcommaaccent" xMin="14" yMin="-228" xMax="444" yMax="669">
      <contour>
        <pt x="283" y="549" on="1"/>
        <pt x="283" y="572" on="0"/>
        <pt x="306" y="611" on="0"/>
        <pt x="338" y="642" on="0"/>
        <pt x="373" y="664" on="0"/>
        <pt x="385" y="669" on="1"/>
        <pt x="392" y="659" on="1"/>
        <pt x="369" y="642" on="0"/>
        <pt x="326" y="601" on="0"/>
        <pt x="315" y="575" on="1"/>
        <pt x="330" y="574" on="0"/>
        <pt x="354" y="556" on="0"/>
        <pt x="354" y="539" on="1"/>
        <pt x="354" y="525" on="0"/>
        <pt x="334" y="506" on="0"/>
        <pt x="321" y="506" on="1"/>
        <pt x="311" y="506" on="0"/>
        <pt x="283" y="526" on="0"/>
      </contour>
      <contour>
        <pt x="353" y="-48" on="1"/>
        <pt x="334" y="-143" on="0"/>
        <pt x="234" y="-228" on="0"/>
        <pt x="149" y="-228" on="1"/>
        <pt x="108" y="-228" on="0"/>
        <pt x="41" y="-210" on="0"/>
        <pt x="14" y="-197" on="1"/>
        <pt x="28" y="-171" on="1"/>
        <pt x="57" y="-184" on="0"/>
        <pt x="115" y="-199" on="0"/>
        <pt x="151" y="-199" on="1"/>
        <pt x="223" y="-199" on="0"/>
        <pt x="307" y="-125" on="0"/>
        <pt x="322" y="-44" on="1"/>
        <pt x="337" y="35" on="1"/>
        <pt x="311" y="17" on="0"/>
        <pt x="242" y="-8" on="0"/>
        <pt x="203" y="-8" on="1"/>
        <pt x="170" y="-8" on="0"/>
        <pt x="111" y="17" on="0"/>
        <pt x="68" y="62" on="0"/>
        <pt x="43" y="127" on="0"/>
        <pt x="43" y="167" on="1"/>
        <pt x="43" y="214" on="0"/>
        <pt x="77" y="306" on="0"/>
        <pt x="139" y="378" on="0"/>
        <pt x="223" y="423" on="0"/>
        <pt x="274" y="423" on="1"/>
        <pt x="318" y="423" on="0"/>
        <pt x="384" y="390" on="0"/>
        <pt x="403" y="367" on="1"/>
        <pt x="411" y="415" on="1"/>
        <pt x="444" y="415" on="1"/>
      </contour>
      <contour>
        <pt x="395" y="332" on="1"/>
        <pt x="376" y="357" on="0"/>
        <pt x="313" y="394" on="0"/>
        <pt x="272" y="394" on="1"/>
        <pt x="230" y="394" on="0"/>
        <pt x="158" y="355" on="0"/>
        <pt x="105" y="292" on="0"/>
        <pt x="76" y="214" on="0"/>
        <pt x="76" y="174" on="1"/>
        <pt x="76" y="103" on="0"/>
        <pt x="148" y="21" on="0"/>
        <pt x="206" y="21" on="1"/>
        <pt x="242" y="21" on="0"/>
        <pt x="314" y="49" on="0"/>
        <pt x="343" y="72" on="1"/>
      </contour>
    </TTGlyph>
    <TTGlyph name="gdotaccent" xMin="14" yMin="-228" xMax="444" yMax="576">
      <component glyphName="g" x="0" y="0" flags="0x204"/>
      <component glyphName="dotaccent" x="35" y="0" flags="0x4"/>
    </TTGlyph>
    <TTGlyph name="germandbls" xMin="-26" yMin="-216" xMax="411" yMax="742">
      <contour>
        <pt x="215" y="211" on="1"/>
        <pt x="281" y="206" on="0"/>
        <pt x="357" y="138" on="0"/>
        <pt x="357" y="86" on="1"/>
        <pt x="357" y="48" on="0"/>
        <pt x="328" y="-16" on="0"/>
        <pt x="278" y="-62" on="0"/>
        <pt x="211" y="-87" on="0"/>
        <pt x="173" y="-87" on="1"/>
        <pt x="147" y="-87" on="0"/>
        <pt x="107" y="-79" on="0"/>
        <pt x="87" y="-72" on="1"/>
        <pt x="98" y="-43" on="1"/>
        <pt x="115" y="-50" on="0"/>
        <pt x="150" y="-58" on="0"/>
        <pt x="173" y="-58" on="1"/>
        <pt x="204" y="-58" on="0"/>
        <pt x="259" y="-38" on="0"/>
        <pt x="300" y="-1" on="0"/>
        <pt x="324" y="49" on="0"/>
        <pt x="324" y="79" on="1"/>
        <pt x="324" y="107" on="0"/>
        <pt x="300" y="150" on="0"/>
        <pt x="257" y="177" on="0"/>
        <pt x="198" y="188" on="0"/>
        <pt x="164" y="185" on="1"/>
        <pt x="164" y="186" on="1"/>
        <pt x="160" y="193" on="1"/>
        <pt x="352" y="386" on="1"/>
        <pt x="124" y="386" on="1"/>
        <pt x="6" y="-216" on="1"/>
        <pt x="-26" y="-216" on="1"/>
        <pt x="131" y="589" on="1"/>
        <pt x="147" y="669" on="0"/>
        <pt x="225" y="742" on="0"/>
        <pt x="281" y="742" on="1"/>
        <pt x="301" y="742" on="0"/>
        <pt x="343" y="732" on="0"/>
        <pt x="358" y="724" on="1"/>
        <pt x="345" y="697" on="1"/>
        <pt x="331" y="704" on="0"/>
        <pt x="296" y="713" on="0"/>
        <pt x="276" y="713" on="1"/>
        <pt x="233" y="713" on="0"/>
        <pt x="178" y="653" on="0"/>
        <pt x="164" y="583" on="1"/>
        <pt x="130" y="415" on="1"/>
        <pt x="408" y="415" on="1"/>
        <pt x="411" y="407" on="1"/>
      </contour>
    </TTGlyph>
    <TTGlyph name="grave" xMin="169" yMin="475" xMax="381" yMax="622">
      <contour>
        <pt x="371" y="475" on="1"/>
        <pt x="169" y="591" on="1"/>
        <pt x="187" y="622" on="1"/>
        <pt x="381" y="493" on="1"/>
      </contour>
    </TTGlyph>
    <TTGlyph name="greater" xMin="1" yMin="37" xMax="339" yMax="524">
      <contour>
        <pt x="17" y="37" on="1"/>
        <pt x="1" y="62" on="1"/>
        <pt x="293" y="262" on="1"/>
        <pt x="87" y="506" on="1"/>
        <pt x="111" y="524" on="1"/>
        <pt x="339" y="255" on="1"/>
      </contour>
    </TTGlyph>
    <TTGlyph name="greater.lin" xMin="34" yMin="128" xMax="372" yMax="615">
      <component glyphName="greater" x="33" y="91" flags="0x204"/>
    </TTGlyph>
    <TTGlyph name="guillemotleft" xMin="42" yMin="9" xMax="361" yMax="336">
      <contour>
        <pt x="223" y="171" on="1"/>
        <pt x="296" y="9" on="1"/>
        <pt x="260" y="9" on="1"/>
        <pt x="187" y="175" on="1"/>
        <pt x="324" y="336" on="1"/>
        <pt x="361" y="336" on="1"/>
      </contour>
      <contour>
        <pt x="78" y="171" on="1"/>
        <pt x="151" y="9" on="1"/>
        <pt x="115" y="9" on="1"/>
        <pt x="42" y="175" on="1"/>
        <pt x="179" y="336" on="1"/>
        <pt x="216" y="336" on="1"/>
      </contour>
    </TTGlyph>
    <TTGlyph name="guillemotleft.cap" xMin="81" yMin="207" xMax="400" yMax="534">
      <component glyphName="guillemotleft" x="39" y="198" flags="0x204"/>
    </TTGlyph>
    <TTGlyph name="guillemotright" xMin="5" yMin="9" xMax="324" yMax="336">
      <contour>
        <pt x="187" y="9" on="1"/>
        <pt x="150" y="9" on="1"/>
        <pt x="288" y="174" on="1"/>
        <pt x="215" y="336" on="1"/>
        <pt x="251" y="336" on="1"/>
        <pt x="324" y="170" on="1"/>
      </contour>
      <contour>
        <pt x="42" y="9" on="1"/>
        <pt x="5" y="9" on="1"/>
        <pt x="143" y="174" on="1"/>
        <pt x="70" y="336" on="1"/>
        <pt x="106" y="336" on="1"/>
        <pt x="179" y="170" on="1"/>
      </contour>
    </TTGlyph>
    <TTGlyph name="guillemotright.cap" xMin="44" yMin="207" xMax="363" yMax="534">
      <component glyphName="guillemotright" x="39" y="198" flags="0x204"/>
    </TTGlyph>
    <TTGlyph name="guilsinglleft" xMin="42" yMin="9" xMax="216" yMax="336">
      <contour>
        <pt x="78" y="171" on="1"/>
        <pt x="151" y="9" on="1"/>
        <pt x="115" y="9" on="1"/>
        <pt x="42" y="175" on="1"/>
        <pt x="179" y="336" on="1"/>
        <pt x="216" y="336" on="1"/>
      </contour>
    </TTGlyph>
    <TTGlyph name="guilsinglleft.cap" xMin="81" yMin="207" xMax="255" yMax="534">
      <component glyphName="guilsinglleft" x="39" y="198" flags="0x204"/>
    </TTGlyph>
    <TTGlyph name="guilsinglright" xMin="5" yMin="9" xMax="179" yMax="336">
      <contour>
        <pt x="42" y="9" on="1"/>
        <pt x="5" y="9" on="1"/>
        <pt x="143" y="174" on="1"/>
        <pt x="70" y="336" on="1"/>
        <pt x="106" y="336" on="1"/>
        <pt x="179" y="170" on="1"/>
      </contour>
    </TTGlyph>
    <TTGlyph name="guilsinglright.cap" xMin="44" yMin="207" xMax="218" yMax="534">
      <component glyphName="guilsinglright" x="39" y="198" flags="0x204"/>
    </TTGlyph>
    <TTGlyph name="h" xMin="28" yMin="0" xMax="404" yMax="733">
      <contour>
        <pt x="404" y="316" on="1"/>
        <pt x="404" y="305" on="0"/>
        <pt x="400" y="274" on="0"/>
        <pt x="397" y="259" on="1"/>
        <pt x="346" y="0" on="1"/>
        <pt x="313" y="0" on="1"/>
        <pt x="365" y="263" on="1"/>
        <pt x="371" y="294" on="0"/>
        <pt x="371" y="311" on="1"/>
        <pt x="371" y="350" on="0"/>
        <pt x="326" y="393" on="0"/>
        <pt x="288" y="393" on="1"/>
        <pt x="243" y="393" on="0"/>
        <pt x="164" y="345" on="0"/>
        <pt x="122" y="308" on="1"/>
        <pt x="61" y="0" on="1"/>
        <pt x="28" y="0" on="1"/>
        <pt x="171" y="733" on="1"/>
        <pt x="205" y="733" on="1"/>
        <pt x="127" y="346" on="1"/>
        <pt x="163" y="376" on="0"/>
        <pt x="245" y="422" on="0"/>
        <pt x="293" y="422" on="1"/>
        <pt x="347" y="422" on="0"/>
        <pt x="404" y="363" on="0"/>
      </contour>
    </TTGlyph>
    <TTGlyph name="hbar" xMin="28" yMin="0" xMax="404" yMax="733">
      <contour>
        <pt x="404" y="316" on="1"/>
        <pt x="404" y="305" on="0"/>
        <pt x="400" y="274" on="0"/>
        <pt x="397" y="259" on="1"/>
        <pt x="346" y="0" on="1"/>
        <pt x="313" y="0" on="1"/>
        <pt x="365" y="263" on="1"/>
        <pt x="371" y="294" on="0"/>
        <pt x="371" y="311" on="1"/>
        <pt x="371" y="350" on="0"/>
        <pt x="326" y="393" on="0"/>
        <pt x="288" y="393" on="1"/>
        <pt x="243" y="393" on="0"/>
        <pt x="164" y="345" on="0"/>
        <pt x="122" y="308" on="1"/>
        <pt x="61" y="0" on="1"/>
        <pt x="28" y="0" on="1"/>
        <pt x="141" y="578" on="1"/>
        <pt x="81" y="578" on="1"/>
        <pt x="87" y="609" on="1"/>
        <pt x="147" y="609" on="1"/>
        <pt x="171" y="733" on="1"/>
        <pt x="205" y="733" on="1"/>
        <pt x="180" y="609" on="1"/>
        <pt x="326" y="609" on="1"/>
        <pt x="320" y="578" on="1"/>
        <pt x="174" y="578" on="1"/>
        <pt x="127" y="346" on="1"/>
        <pt x="163" y="376" on="0"/>
        <pt x="245" y="422" on="0"/>
        <pt x="293" y="422" on="1"/>
        <pt x="347" y="422" on="0"/>
        <pt x="404" y="363" on="0"/>
      </contour>
    </TTGlyph>
</ttFont>
